<svg width="4136" height="1662" xmlns="http://www.w3.org/2000/svg" xmlns:xlink="http://www.w3.org/1999/xlink" xml:space="preserve" overflow="hidden"><defs><clipPath id="clip0"><rect x="89" y="556" width="4136" height="1662"/></clipPath></defs><g clip-path="url(#clip0)" transform="translate(-89 -556)"><path d="M1739.5 586.667C1739.5 571.111 1752.11 558.5 1767.67 558.5L2130.33 558.5C2145.89 558.5 2158.5 571.111 2158.5 586.667L2158.5 699.333C2158.5 714.889 2145.89 727.5 2130.33 727.5L1767.67 727.5C1752.11 727.5 1739.5 714.889 1739.5 699.333Z" stroke="#125186" stroke-width="4.58333" stroke-miterlimit="8" fill="#1D71B8" fill-rule="evenodd"/><text fill="#FFFFFF" font-family="Calibri,Calibri_MSFontService,sans-serif" font-weight="400" font-size="55" transform="matrix(1 0 0 1 1784.43 628)">Get<tspan font-size="55" x="93.3854" y="0">country</tspan><tspan font-size="55" x="290.469" y="0">&amp; </tspan><tspan font-size="55" x="52.9833" y="66">neighbors</tspan></text><rect x="3588.5" y="1151.5" width="634" height="169" stroke="#C00000" stroke-width="4.58333" stroke-miterlimit="8" fill="#C00000"/><text fill="#FFFFFF" font-family="Calibri,Calibri_MSFontService,sans-serif" font-weight="400" font-size="55" transform="matrix(1 0 0 1 3649.15 1254)">SARIMAX_LinInt_PCA<tspan font-size="55" x="478.386" y="0">()</tspan></text><path d="M2280.5 588.667C2280.5 573.111 2293.11 560.5 2308.67 560.5L2703.33 560.5C2718.89 560.5 2731.5 573.111 2731.5 588.667L2731.5 701.333C2731.5 716.889 2718.89 729.5 2703.33 729.5L2308.67 729.5C2293.11 729.5 2280.5 716.889 2280.5 701.333Z" stroke="#125186" stroke-width="4.58333" stroke-miterlimit="8" fill="#1D71B8" fill-rule="evenodd"/><text fill="#FFFFFF" font-family="Calibri,Calibri_MSFontService,sans-serif" font-weight="400" font-size="55" transform="matrix(1 0 0 1 2324.67 662)">Retrieve<tspan font-size="55" x="199.375" y="0">X and y</tspan></text><path d="M91.4999 644C91.4999 597.332 149.703 559.5 221.5 559.5 293.297 559.5 351.5 597.332 351.5 644 351.5 690.668 293.297 728.5 221.5 728.5 149.703 728.5 91.4999 690.668 91.4999 644Z" stroke="#000000" stroke-width="4.58333" stroke-miterlimit="8" fill-rule="evenodd"/><text fill="#FFFFFF" font-family="Calibri,Calibri_MSFontService,sans-serif" font-weight="400" font-size="55" transform="matrix(1 0 0 1 167.457 661)">Start</text><path d="M2853.5 589.667C2853.5 574.111 2866.11 561.5 2881.67 561.5L3438.33 561.5C3453.89 561.5 3466.5 574.111 3466.5 589.667L3466.5 702.33C3466.5 717.886 3453.89 730.497 3438.33 730.497L2881.67 730.497C2866.11 730.497 2853.5 717.886 2853.5 702.33Z" stroke="#125186" stroke-width="4.58333" stroke-miterlimit="8" fill="#1D71B8" fill-rule="evenodd"/><text fill="#FFFFFF" font-family="Calibri,Calibri_MSFontService,sans-serif" font-weight="400" font-size="55" transform="matrix(1 0 0 1 2904.47 631)">Split <tspan font-size="55" x="110" y="0">data</tspan><tspan font-size="55" x="222.292" y="0">into</tspan><tspan font-size="55" x="336.302" y="0">X_train</tspan><tspan font-size="55" x="497.292" y="0">, </tspan><tspan font-size="55" x="10.6106" y="66">X_test</tspan><tspan font-size="55" x="152.694" y="66">, </tspan><tspan font-size="55" x="179.048" y="66">y_train</tspan><tspan font-size="55" x="336.027" y="66">, </tspan><tspan font-size="55" x="362.381" y="66">y_test</tspan></text><path d="M2822.5 868.667C2822.5 853.111 2835.11 840.5 2850.67 840.5L3470.33 840.5C3485.89 840.5 3498.5 853.111 3498.5 868.667L3498.5 981.333C3498.5 996.889 3485.89 1009.5 3470.33 1009.5L2850.67 1009.5C2835.11 1009.5 2822.5 996.889 2822.5 981.333Z" stroke="#125186" stroke-width="4.58333" stroke-miterlimit="8" fill="#1D71B8" fill-rule="evenodd"/><text fill="#FFFFFF" font-family="Calibri,Calibri_MSFontService,sans-serif" font-weight="400" font-size="55" transform="matrix(1 0 0 1 2879.26 910)">Perform <tspan font-size="55" x="196.51" y="0">hyperparameter</tspan><tspan font-size="55" x="139.517" y="66">optimization</tspan></text><path d="M2900.5 1407.5 3160.5 1147.5 3420.5 1407.5 3160.5 1667.5Z" stroke="#125186" stroke-width="4.58333" stroke-miterlimit="8" fill="#1D71B8" fill-rule="evenodd"/><text fill="#FFFFFF" font-family="Calibri,Calibri_MSFontService,sans-serif" font-weight="400" font-size="55" transform="matrix(1 0 0 1 3099.83 1326)">GSCV <tspan font-size="55" x="-21.1978" y="66">returns</tspan><tspan font-size="55" x="-11.7561" y="132">a valid</tspan><tspan font-size="55" x="-10.8853" y="198">model</tspan></text><path d="M91.4999 1955C91.4999 1908.33 149.703 1870.5 221.5 1870.5 293.297 1870.5 351.5 1908.33 351.5 1955 351.5 2001.67 293.297 2039.5 221.5 2039.5 149.703 2039.5 91.4999 2001.67 91.4999 1955Z" stroke="#000000" stroke-width="4.58333" stroke-miterlimit="8" fill-rule="evenodd"/><text fill="#FFFFFF" font-family="Calibri,Calibri_MSFontService,sans-serif" font-weight="400" font-size="55" transform="matrix(1 0 0 1 178.915 1973)">End</text><rect x="2355.5" y="839.5" width="299" height="169" stroke="#C00000" stroke-width="4.58333" stroke-miterlimit="8" fill="#C00000"/><text fill="#FFFFFF" font-family="Calibri,Calibri_MSFontService,sans-serif" font-weight="400" font-size="55" transform="matrix(1 0 0 1 2399.77 942)">getData<tspan font-size="55" x="176.458" y="0">()</tspan></text><rect x="3676.5" y="840.5" width="458" height="169" stroke="#C00000" stroke-width="4.58333" stroke-miterlimit="8" fill="#C00000"/><text fill="#FFFFFF" font-family="Calibri,Calibri_MSFontService,sans-serif" font-weight="400" font-size="55" transform="matrix(1 0 0 1 3735.66 943)">GridSearchCV<tspan font-size="55" x="305.365" y="0">()</tspan></text><path d="M1901.5 1898.67C1901.5 1883.11 1914.11 1870.5 1929.67 1870.5L2640.33 1870.5C2655.89 1870.5 2668.5 1883.11 2668.5 1898.67L2668.5 2011.33C2668.5 2026.89 2655.89 2039.5 2640.33 2039.5L1929.67 2039.5C1914.11 2039.5 1901.5 2026.89 1901.5 2011.33Z" stroke="#125186" stroke-width="4.58333" stroke-miterlimit="8" fill="#1D71B8" fill-rule="evenodd"/><text fill="#FFFFFF" font-family="Calibri,Calibri_MSFontService,sans-serif" font-weight="400" font-size="55" transform="matrix(1 0 0 1 1988.14 1940)">Make<tspan font-size="55" x="138.646" y="0">1</tspan><tspan font-size="55" x="166.719" y="0">-</tspan><tspan font-size="55" x="183.333" y="0">year </tspan><tspan font-size="55" x="293.333" y="0">prediction</tspan><tspan font-size="55" x="534.531" y="0">on </tspan><tspan font-size="55" x="-14.5979" y="66">test</tspan><tspan font-size="55" x="83.9437" y="66">set</tspan><tspan font-size="55" x="164.152" y="66">and </tspan><tspan font-size="55" x="260.402" y="66">evaluate</tspan><tspan font-size="55" x="464.933" y="66">model</tspan></text><path d="M2840.5 1898.67C2840.5 1883.11 2853.11 1870.5 2868.67 1870.5L3452.33 1870.5C3467.89 1870.5 3480.5 1883.11 3480.5 1898.67L3480.5 2011.33C3480.5 2026.89 3467.89 2039.5 3452.33 2039.5L2868.67 2039.5C2853.11 2039.5 2840.5 2026.89 2840.5 2011.33Z" stroke="#125186" stroke-width="4.58333" stroke-miterlimit="8" fill="#1D71B8" fill-rule="evenodd"/><text fill="#FFFFFF" font-family="Calibri,Calibri_MSFontService,sans-serif" font-weight="400" font-size="55" transform="matrix(1 0 0 1 2955.46 1940)">Fit <tspan font-size="55" x="68.75" y="0">baseline</tspan><tspan font-size="55" x="266.979" y="0">model</tspan><tspan font-size="55" x="122.604" y="66">instead</tspan></text><path d="M453.5 587.667C453.5 572.111 466.111 559.5 481.667 559.5L945.333 559.5C960.889 559.5 973.5 572.111 973.5 587.667L973.5 700.333C973.5 715.889 960.889 728.5 945.333 728.5L481.667 728.5C466.111 728.5 453.5 715.889 453.5 700.333Z" stroke="#125186" stroke-width="4.58333" stroke-miterlimit="8" fill="#1D71B8" fill-rule="evenodd"/><text fill="#FFFFFF" font-family="Calibri,Calibri_MSFontService,sans-serif" font-weight="400" font-size="55" transform="matrix(1 0 0 1 500.245 628)">Specify<tspan font-size="55" x="171.302" y="0">model</tspan><tspan font-size="55" x="325.99" y="0">type </tspan><tspan font-size="55" x="77.0687" y="66">and </tspan><tspan font-size="55" x="173.319" y="66">settings</tspan></text><path d="M1213.5 1898.67C1213.5 1883.11 1226.11 1870.5 1241.67 1870.5L1704.33 1870.5C1719.89 1870.5 1732.5 1883.11 1732.5 1898.67L1732.5 2011.33C1732.5 2026.89 1719.89 2039.5 1704.33 2039.5L1241.67 2039.5C1226.11 2039.5 1213.5 2026.89 1213.5 2011.33Z" stroke="#125186" stroke-width="4.58333" stroke-miterlimit="8" fill="#1D71B8" fill-rule="evenodd"/><text fill="#FFFFFF" font-family="Calibri,Calibri_MSFontService,sans-serif" font-weight="400" font-size="55" transform="matrix(1 0 0 1 1289.21 1973)">Save <tspan font-size="55" x="116.302" y="0">prediction</tspan><tspan font-size="55" x="344.896" y="0">s</tspan></text><path d="M1074.5 586.667C1074.5 571.111 1087.11 558.5 1102.67 558.5L1598.33 558.5C1613.89 558.5 1626.5 571.111 1626.5 586.667L1626.5 699.333C1626.5 714.889 1613.89 727.5 1598.33 727.5L1102.67 727.5C1087.11 727.5 1074.5 714.889 1074.5 699.333Z" stroke="#125186" stroke-width="4.58333" stroke-miterlimit="8" fill="#1D71B8" fill-rule="evenodd"/><text fill="#FFFFFF" font-family="Calibri,Calibri_MSFontService,sans-serif" font-weight="400" font-size="55" transform="matrix(1 0 0 1 1276.68 627)">Define<tspan font-size="55" x="-158.423" y="66">hyperparameter</tspan><tspan font-size="55" x="219.129" y="66">grid</tspan></text><path d="M540.5 1954 800.5 1694.5 1060.5 1954 800.5 2213.5Z" stroke="#125186" stroke-width="4.58333" stroke-miterlimit="8" fill="#1D71B8" fill-rule="evenodd"/><text fill="#FFFFFF" font-family="Calibri,Calibri_MSFontService,sans-serif" font-weight="400" font-size="55" transform="matrix(1 0 0 1 706.281 1872)">A <tspan font-size="55" x="44.6874" y="0">model</tspan><tspan font-size="55" x="1.71875" y="66">for</tspan><tspan font-size="55" x="79.0624" y="66">each</tspan><tspan font-size="55" x="7.44788" y="132">country</tspan><tspan font-size="55" x="19.4791" y="198">is</tspan><tspan font-size="55" x="66.4583" y="198">built</tspan></text><path d="M351 637.844 427.228 637.844 427.228 648.157 351 648.156ZM422.072 627.532 453.009 643.001 422.072 658.469Z" fill="#1D71B8"/><path d="M0.048507-5.15602 75.9246-4.44219 75.8276 5.86985-0.048507 5.15602ZM70.8656-14.8027 101.656 0.956365 70.5745 16.1334Z" fill="#1D71B8" transform="matrix(1 0 0 -1 973 642.956)"/><path d="M1626.03 636.844 1713.52 637.282 1713.47 647.594 1625.97 647.156ZM1708.41 626.944 1739.27 642.567 1708.26 657.881Z" fill="#1D71B8"/><path d="M2148.06 637.844 2254.17 639.018 2254.06 649.33 2147.94 648.156ZM2249.13 628.649 2279.9 644.459 2248.79 659.585Z" fill="#1D71B8"/><path d="M0-5.15625 620.952-5.15625 620.952 437.419 610.639 437.419 610.639 0 615.795 5.15625 0 5.15625ZM631.264 432.263 615.795 463.2 600.327 432.263Z" fill="#1D71B8" transform="matrix(-1 1.22465e-16 1.22465e-16 1 2899.8 1407)"/><path d="M794.844 1693.33 794.844 1205.01 1948.62 1205.01 1943.46 1210.17 1943.46 752.781 1953.78 752.781 1953.78 1215.32 800 1215.32 805.156 1210.17 805.156 1693.33ZM1933.15 757.938 1948.62 727 1964.09 757.938Z" fill="#1D71B8"/><rect x="3676.5" y="560.5" width="458" height="168" stroke="#C00000" stroke-width="4.58333" stroke-miterlimit="8" fill="#C00000"/><text fill="#FFFFFF" font-family="Calibri,Calibri_MSFontService,sans-serif" font-weight="400" font-size="55" transform="matrix(1 0 0 1 3718.47 662)">train_test_split<tspan font-size="55" x="339.74" y="0">()</tspan></text><path d="M2731.06 638.844 2828.18 639.997 2828.06 650.308 2730.94 649.156ZM2823.15 629.624 2853.9 645.459 2822.78 660.559Z" fill="#1D71B8"/><path d="M0.0302061-5.15616 163.128-4.2007 163.067 6.11163-0.0302061 5.15616ZM158.032-14.5432 188.878 1.1065 157.851 16.3937Z" fill="#1D71B8" transform="matrix(-1 0 0 1 539.878 1953)"/><path d="M1213.15 1959.26 1085.74 1958.34 1085.82 1948.03 1213.23 1948.95ZM1090.83 1968.69 1060 1953 1091.05 1937.75Z" fill="#1D71B8"/><path d="M3165.16 1009 3165.16 1120.97 3154.84 1120.97 3154.84 1009ZM3175.47 1115.82 3160 1146.75 3144.53 1115.82Z" fill="#1D71B8"/><path d="M1.10305e-05-5.15625 142.919-5.15594 142.919 5.15656-1.10305e-05 5.15625ZM137.762-15.4685 168.7 0.000360892 137.762 15.469Z" fill="#1D71B8" transform="matrix(-1 0 0 1 1900.7 1955)"/><path d="M3165.16 1667 3165.16 1844.58 3154.84 1844.58 3154.84 1667ZM3175.47 1839.42 3160 1870.36 3144.53 1839.42Z" fill="#1D71B8"/><path d="M5.15625-1.68469e-05 5.15653 84.6753-5.15597 84.6753-5.15625 1.68469e-05ZM15.469 79.519 0.000360892 110.457-15.4685 79.5191Z" fill="#1D71B8" transform="matrix(-1 0 0 1 3160 730)"/><path d="M1.07761e-05-5.15625 146.902-5.15594 146.902 5.15656-1.07761e-05 5.15625ZM141.746-15.4685 172.683 0.000360892 141.746 15.469Z" fill="#1D71B8" transform="matrix(-1 0 0 1 2840.68 1955)"/><path d="M5.34661 25.7424 5.78231 84.7061-4.52991 84.7823-4.96561 25.8186ZM-15.2397 31.051 0 0 15.6969 30.8224ZM16.0564 79.4738 0.816699 110.525-14.8802 79.7024Z" fill="#C00000" transform="matrix(1 0 0 -1 2505 839.525)"/><path d="M25.7813-5.1562 151.944-5.15594 151.944 5.15656 25.7812 5.1563ZM30.9375 15.4688 0 0 30.9375-15.4687ZM146.788-15.4685 177.725 0.000360892 146.788 15.469Z" fill="#C00000" transform="matrix(-1 0 0 1 3675.73 925)"/><path d="M25.8189-4.96411 183.457-3.79013 183.38 6.52208 25.7421 5.3481ZM30.8214 15.6987 0 0 31.0518-15.2379ZM178.377-14.1407 209.199 1.55797 178.147 16.7959Z" fill="#C00000" transform="matrix(-1 0 0 1 3675.2 644)"/><path d="M3910.16 1034.78 3910.16 1125.37 3899.84 1125.37 3899.84 1034.78ZM3889.53 1039.94 3905 1009 3920.47 1039.94ZM3920.47 1120.21 3905 1151.15 3889.53 1120.21Z" fill="#C00000"/><rect x="3729.5" y="1870.5" width="352" height="169" stroke="#C00000" stroke-width="4.58333" stroke-miterlimit="8" fill="#C00000"/><text fill="#FFFFFF" font-family="Calibri,Calibri_MSFontService,sans-serif" font-weight="400" font-size="55" transform="matrix(1 0 0 1 3772.9 1973)">NoChange<tspan font-size="55" x="230.886" y="0">()</tspan></text><path d="M3505.78 1949.84 3703.81 1949.84 3703.81 1960.16 3505.78 1960.16ZM3510.94 1970.47 3480 1955 3510.94 1939.53ZM3698.65 1939.53 3729.59 1955 3698.65 1970.47Z" fill="#C00000"/><text font-family="Arial,Arial_MSFontService,sans-serif" font-weight="700" font-size="55" transform="matrix(1 0 0 1 699.149 1659)">No<tspan font-size="55" x="-302.462" y="266">Ye</tspan>s<tspan font-size="55" x="2057.02" y="-280">Ye</tspan>s<tspan font-size="55" x="2372.08" y="77">No</tspan></text></g></svg>