<svg width="2283" height="1136" xmlns="http://www.w3.org/2000/svg" xmlns:xlink="http://www.w3.org/1999/xlink" xml:space="preserve" overflow="hidden"><defs><clipPath id="clip0"><rect x="211" y="680" width="2283" height="1136"/></clipPath></defs><g clip-path="url(#clip0)" transform="translate(-211 -680)"><rect x="266.5" y="1345.5" width="716" height="159" stroke="#C00000" stroke-width="4.58333" stroke-miterlimit="8" fill="#C00000"/><text fill="#FFFFFF" font-family="Calibri,Calibri_MSFontService,sans-serif" font-weight="700" font-size="64" transform="matrix(1 0 0 1 316.226 1446)">SARIMAX_LinInt_PCA</text><text fill="#FFFFFF" font-family="Calibri,Calibri_MSFontService,sans-serif" font-weight="700" font-size="64" transform="matrix(1 0 0 1 892.007 1446)">()</text><rect x="1103.5" y="1345.5" width="565" height="159" stroke="#C00000" stroke-width="4.58333" stroke-miterlimit="8" fill="#C00000"/><text fill="#FFFFFF" font-family="Calibri,Calibri_MSFontService,sans-serif" font-weight="700" font-size="64" transform="matrix(1 0 0 1 1228.95 1446)">NoChange</text><text fill="#FFFFFF" font-family="Calibri,Calibri_MSFontService,sans-serif" font-weight="700" font-size="64" transform="matrix(1 0 0 1 1502.23 1446)">()</text><rect x="1815.5" y="1345.5" width="645" height="159" stroke="#C00000" stroke-width="4.58333" stroke-miterlimit="8" fill="#C00000"/><text fill="#FFFFFF" font-family="Calibri,Calibri_MSFontService,sans-serif" font-weight="700" font-size="64" transform="matrix(1 0 0 1 1935.69 1446)">GridSearchCV</text><text fill="#FFFFFF" font-family="Calibri,Calibri_MSFontService,sans-serif" font-weight="700" font-size="64" transform="matrix(1 0 0 1 2299.5 1446)">()</text><rect x="214.5" y="683.5" width="587" height="158" stroke="#C00000" stroke-width="6.875" stroke-miterlimit="8" fill="#FEA57C"/><text fill="#FFFFFF" font-family="Calibri,Calibri_MSFontService,sans-serif" font-weight="700" font-size="64" transform="matrix(1 0 0 1 254.716 784)">ParametricModel</text><text fill="#FFFFFF" font-family="Calibri,Calibri_MSFontService,sans-serif" font-weight="700" font-size="64" transform="matrix(1 0 0 1 720.497 784)">()</text><rect x="1043.5" y="896.5" width="685" height="159" stroke="#C00000" stroke-width="6.875" stroke-miterlimit="8" fill="#FEA57C"/><text fill="#FFFFFF" font-family="Calibri,Calibri_MSFontService,sans-serif" font-weight="700" font-size="64" transform="matrix(1 0 0 1 1079.99 997)">TimeSeriesForecaster</text><text fill="#FFFFFF" font-family="Calibri,Calibri_MSFontService,sans-serif" font-weight="700" font-size="64" transform="matrix(1 0 0 1 1651.19 997)">()</text><path d="M1389.94 1055.5 1389.94 1204.03 1386.5 1204.03 1389.94 1200.59 1389.94 1322.76 1383.06 1322.76 1383.06 1197.15 1386.5 1197.15 1383.06 1200.59 1383.06 1055.5ZM1400.25 1318.18 1386.5 1345.68 1372.75 1318.18Z" fill="#C00000"/><path d="M0-3.4375 148.527-3.4375 148.527 752.003 145.09 748.566 267.262 748.566 267.262 755.441 141.652 755.441 141.652 0 145.09 3.4375 0 3.4375ZM262.678 738.253 290.178 752.003 262.678 765.753Z" fill="#C00000" transform="matrix(1.83697e-16 1 1 -1.83697e-16 1386.5 1055.5)"/><path d="M1389.41 1055.5 1389.41 1204.03 624.5 1204.03 627.938 1200.59 627.938 1322.76 621.062 1322.76 621.062 1197.15 1385.97 1197.15 1382.54 1200.59 1382.54 1055.5ZM638.25 1318.18 624.5 1345.68 610.75 1318.18Z" fill="#C00000"/><path d="M511.849 840.725 623.194 1322.03 616.496 1323.58 505.151 842.275ZM632.208 1315.24 625.01 1345.14 605.415 1321.44Z" fill="#C00000"/><text font-family="Calibri,Calibri_MSFontService,sans-serif" font-weight="400" font-size="64" transform="matrix(1 0 0 1 1848.29 1606)">Hyperparameter </text><text font-family="Calibri,Calibri_MSFontService,sans-serif" font-weight="400" font-size="64" transform="matrix(1 0 0 1 1848.29 1683)">tuning</text><text font-family="Calibri,Calibri_MSFontService,sans-serif" font-weight="400" font-size="64" transform="matrix(1 0 0 1 2031.05 1683)">for</text><text font-family="Calibri,Calibri_MSFontService,sans-serif" font-weight="400" font-size="64" transform="matrix(1 0 0 1 2121 1683)">parametric</text><text font-family="Calibri,Calibri_MSFontService,sans-serif" font-weight="400" font-size="64" transform="matrix(1 0 0 1 1848.29 1760)">models</text><text font-family="Calibri,Calibri_MSFontService,sans-serif" font-weight="400" font-size="64" transform="matrix(1 0 0 1 1136.41 1606)">Implementation </text><text font-family="Calibri,Calibri_MSFontService,sans-serif" font-weight="400" font-size="64" transform="matrix(1 0 0 1 1572.39 1606)">of</text><text font-family="Calibri,Calibri_MSFontService,sans-serif" font-weight="400" font-size="64" transform="matrix(1 0 0 1 1640 1606)">the</text><text font-family="Calibri,Calibri_MSFontService,sans-serif" font-weight="400" font-size="64" transform="matrix(1 0 0 1 1136.41 1683)">no</text><text font-family="Calibri,Calibri_MSFontService,sans-serif" font-weight="400" font-size="64" transform="matrix(1 0 0 1 1204.01 1683)">-</text><text font-family="Calibri,Calibri_MSFontService,sans-serif" font-weight="400" font-size="64" transform="matrix(1 0 0 1 1223.49 1683)">change </text><text font-family="Calibri,Calibri_MSFontService,sans-serif" font-weight="400" font-size="64" transform="matrix(1 0 0 1 1425.73 1683)">baseline</text><text font-family="Calibri,Calibri_MSFontService,sans-serif" font-weight="400" font-size="64" transform="matrix(1 0 0 1 299.25 1606)">Implementation </text><text font-family="Calibri,Calibri_MSFontService,sans-serif" font-weight="400" font-size="64" transform="matrix(1 0 0 1 735.24 1606)">of</text><text font-family="Calibri,Calibri_MSFontService,sans-serif" font-weight="400" font-size="64" transform="matrix(1 0 0 1 802.844 1606)">the</text><text font-family="Calibri,Calibri_MSFontService,sans-serif" font-weight="400" font-size="64" transform="matrix(1 0 0 1 299.25 1683)">(S)ARIMA(X) </text><text font-family="Calibri,Calibri_MSFontService,sans-serif" font-weight="400" font-size="64" transform="matrix(1 0 0 1 634.406 1683)">models</text></g></svg>