<?xml version="1.0" encoding="utf-8" standalone="no"?>
<!DOCTYPE svg PUBLIC "-//W3C//DTD SVG 1.1//EN"
  "http://www.w3.org/Graphics/SVG/1.1/DTD/svg11.dtd">
<svg xmlns:xlink="http://www.w3.org/1999/xlink" width="860.30625pt" height="305.419063pt" viewBox="0 0 860.30625 305.419063" xmlns="http://www.w3.org/2000/svg" version="1.1">
 <metadata>
  <rdf:RDF xmlns:dc="http://purl.org/dc/elements/1.1/" xmlns:cc="http://creativecommons.org/ns#" xmlns:rdf="http://www.w3.org/1999/02/22-rdf-syntax-ns#">
   <cc:Work>
    <dc:type rdf:resource="http://purl.org/dc/dcmitype/StillImage"/>
    <dc:date>2022-10-23T20:44:51.445275</dc:date>
    <dc:format>image/svg+xml</dc:format>
    <dc:creator>
     <cc:Agent>
      <dc:title>Matplotlib v3.5.1, https://matplotlib.org/</dc:title>
     </cc:Agent>
    </dc:creator>
   </cc:Work>
  </rdf:RDF>
 </metadata>
 <defs>
  <style type="text/css">*{stroke-linejoin: round; stroke-linecap: butt}</style>
 </defs>
 <g id="figure_1">
  <g id="patch_1">
   <path d="M 0 305.419063 
L 860.30625 305.419063 
L 860.30625 0 
L 0 0 
z
" style="fill: #ffffff"/>
  </g>
  <g id="axes_1">
   <g id="patch_2">
    <path d="M 38.70625 268.689375 
L 284.30625 268.689375 
L 284.30625 21.789375 
L 38.70625 21.789375 
z
" style="fill: #ffffff"/>
   </g>
   <g id="matplotlib.axis_1">
    <g id="xtick_1">
     <g id="line2d_1">
      <path d="M 49.869886 268.689375 
L 49.869886 21.789375 
" clip-path="url(#p95d72dcf6e)" style="fill: none; stroke: #cccccc; stroke-width: 0.8; stroke-linecap: round"/>
     </g>
     <g id="text_1">
      <!-- 0 -->
      <g style="fill: #262626" transform="translate(47.089418 282.847188)scale(0.1 -0.1)">
       <defs>
        <path id="ArialMT-30" d="M 266 2259 
Q 266 3072 433 3567 
Q 600 4063 929 4331 
Q 1259 4600 1759 4600 
Q 2128 4600 2406 4451 
Q 2684 4303 2865 4023 
Q 3047 3744 3150 3342 
Q 3253 2941 3253 2259 
Q 3253 1453 3087 958 
Q 2922 463 2592 192 
Q 2263 -78 1759 -78 
Q 1097 -78 719 397 
Q 266 969 266 2259 
z
M 844 2259 
Q 844 1131 1108 757 
Q 1372 384 1759 384 
Q 2147 384 2411 759 
Q 2675 1134 2675 2259 
Q 2675 3391 2411 3762 
Q 2147 4134 1753 4134 
Q 1366 4134 1134 3806 
Q 844 3388 844 2259 
z
" transform="scale(0.015625)"/>
       </defs>
       <use xlink:href="#ArialMT-30"/>
      </g>
     </g>
    </g>
    <g id="xtick_2">
     <g id="line2d_2">
      <path d="M 84.874851 268.689375 
L 84.874851 21.789375 
" clip-path="url(#p95d72dcf6e)" style="fill: none; stroke: #cccccc; stroke-width: 0.8; stroke-linecap: round"/>
     </g>
     <g id="text_2">
      <!-- 10 -->
      <g style="fill: #262626" transform="translate(79.313914 282.847188)scale(0.1 -0.1)">
       <defs>
        <path id="ArialMT-31" d="M 2384 0 
L 1822 0 
L 1822 3584 
Q 1619 3391 1289 3197 
Q 959 3003 697 2906 
L 697 3450 
Q 1169 3672 1522 3987 
Q 1875 4303 2022 4600 
L 2384 4600 
L 2384 0 
z
" transform="scale(0.015625)"/>
       </defs>
       <use xlink:href="#ArialMT-31"/>
       <use xlink:href="#ArialMT-30" x="55.615234"/>
      </g>
     </g>
    </g>
    <g id="xtick_3">
     <g id="line2d_3">
      <path d="M 119.879816 268.689375 
L 119.879816 21.789375 
" clip-path="url(#p95d72dcf6e)" style="fill: none; stroke: #cccccc; stroke-width: 0.8; stroke-linecap: round"/>
     </g>
     <g id="text_3">
      <!-- 20 -->
      <g style="fill: #262626" transform="translate(114.318878 282.847188)scale(0.1 -0.1)">
       <defs>
        <path id="ArialMT-32" d="M 3222 541 
L 3222 0 
L 194 0 
Q 188 203 259 391 
Q 375 700 629 1000 
Q 884 1300 1366 1694 
Q 2113 2306 2375 2664 
Q 2638 3022 2638 3341 
Q 2638 3675 2398 3904 
Q 2159 4134 1775 4134 
Q 1369 4134 1125 3890 
Q 881 3647 878 3216 
L 300 3275 
Q 359 3922 746 4261 
Q 1134 4600 1788 4600 
Q 2447 4600 2831 4234 
Q 3216 3869 3216 3328 
Q 3216 3053 3103 2787 
Q 2991 2522 2730 2228 
Q 2469 1934 1863 1422 
Q 1356 997 1212 845 
Q 1069 694 975 541 
L 3222 541 
z
" transform="scale(0.015625)"/>
       </defs>
       <use xlink:href="#ArialMT-32"/>
       <use xlink:href="#ArialMT-30" x="55.615234"/>
      </g>
     </g>
    </g>
    <g id="xtick_4">
     <g id="line2d_4">
      <path d="M 154.88478 268.689375 
L 154.88478 21.789375 
" clip-path="url(#p95d72dcf6e)" style="fill: none; stroke: #cccccc; stroke-width: 0.8; stroke-linecap: round"/>
     </g>
     <g id="text_4">
      <!-- 30 -->
      <g style="fill: #262626" transform="translate(149.323843 282.847188)scale(0.1 -0.1)">
       <defs>
        <path id="ArialMT-33" d="M 269 1209 
L 831 1284 
Q 928 806 1161 595 
Q 1394 384 1728 384 
Q 2125 384 2398 659 
Q 2672 934 2672 1341 
Q 2672 1728 2419 1979 
Q 2166 2231 1775 2231 
Q 1616 2231 1378 2169 
L 1441 2663 
Q 1497 2656 1531 2656 
Q 1891 2656 2178 2843 
Q 2466 3031 2466 3422 
Q 2466 3731 2256 3934 
Q 2047 4138 1716 4138 
Q 1388 4138 1169 3931 
Q 950 3725 888 3313 
L 325 3413 
Q 428 3978 793 4289 
Q 1159 4600 1703 4600 
Q 2078 4600 2393 4439 
Q 2709 4278 2876 4000 
Q 3044 3722 3044 3409 
Q 3044 3113 2884 2869 
Q 2725 2625 2413 2481 
Q 2819 2388 3044 2092 
Q 3269 1797 3269 1353 
Q 3269 753 2831 336 
Q 2394 -81 1725 -81 
Q 1122 -81 723 278 
Q 325 638 269 1209 
z
" transform="scale(0.015625)"/>
       </defs>
       <use xlink:href="#ArialMT-33"/>
       <use xlink:href="#ArialMT-30" x="55.615234"/>
      </g>
     </g>
    </g>
    <g id="xtick_5">
     <g id="line2d_5">
      <path d="M 189.889745 268.689375 
L 189.889745 21.789375 
" clip-path="url(#p95d72dcf6e)" style="fill: none; stroke: #cccccc; stroke-width: 0.8; stroke-linecap: round"/>
     </g>
     <g id="text_5">
      <!-- 40 -->
      <g style="fill: #262626" transform="translate(184.328807 282.847188)scale(0.1 -0.1)">
       <defs>
        <path id="ArialMT-34" d="M 2069 0 
L 2069 1097 
L 81 1097 
L 81 1613 
L 2172 4581 
L 2631 4581 
L 2631 1613 
L 3250 1613 
L 3250 1097 
L 2631 1097 
L 2631 0 
L 2069 0 
z
M 2069 1613 
L 2069 3678 
L 634 1613 
L 2069 1613 
z
" transform="scale(0.015625)"/>
       </defs>
       <use xlink:href="#ArialMT-34"/>
       <use xlink:href="#ArialMT-30" x="55.615234"/>
      </g>
     </g>
    </g>
    <g id="xtick_6">
     <g id="line2d_6">
      <path d="M 224.89471 268.689375 
L 224.89471 21.789375 
" clip-path="url(#p95d72dcf6e)" style="fill: none; stroke: #cccccc; stroke-width: 0.8; stroke-linecap: round"/>
     </g>
     <g id="text_6">
      <!-- 50 -->
      <g style="fill: #262626" transform="translate(219.333772 282.847188)scale(0.1 -0.1)">
       <defs>
        <path id="ArialMT-35" d="M 266 1200 
L 856 1250 
Q 922 819 1161 601 
Q 1400 384 1738 384 
Q 2144 384 2425 690 
Q 2706 997 2706 1503 
Q 2706 1984 2436 2262 
Q 2166 2541 1728 2541 
Q 1456 2541 1237 2417 
Q 1019 2294 894 2097 
L 366 2166 
L 809 4519 
L 3088 4519 
L 3088 3981 
L 1259 3981 
L 1013 2750 
Q 1425 3038 1878 3038 
Q 2478 3038 2890 2622 
Q 3303 2206 3303 1553 
Q 3303 931 2941 478 
Q 2500 -78 1738 -78 
Q 1113 -78 717 272 
Q 322 622 266 1200 
z
" transform="scale(0.015625)"/>
       </defs>
       <use xlink:href="#ArialMT-35"/>
       <use xlink:href="#ArialMT-30" x="55.615234"/>
      </g>
     </g>
    </g>
    <g id="xtick_7">
     <g id="line2d_7">
      <path d="M 259.899674 268.689375 
L 259.899674 21.789375 
" clip-path="url(#p95d72dcf6e)" style="fill: none; stroke: #cccccc; stroke-width: 0.8; stroke-linecap: round"/>
     </g>
     <g id="text_7">
      <!-- 60 -->
      <g style="fill: #262626" transform="translate(254.338737 282.847188)scale(0.1 -0.1)">
       <defs>
        <path id="ArialMT-36" d="M 3184 3459 
L 2625 3416 
Q 2550 3747 2413 3897 
Q 2184 4138 1850 4138 
Q 1581 4138 1378 3988 
Q 1113 3794 959 3422 
Q 806 3050 800 2363 
Q 1003 2672 1297 2822 
Q 1591 2972 1913 2972 
Q 2475 2972 2870 2558 
Q 3266 2144 3266 1488 
Q 3266 1056 3080 686 
Q 2894 316 2569 119 
Q 2244 -78 1831 -78 
Q 1128 -78 684 439 
Q 241 956 241 2144 
Q 241 3472 731 4075 
Q 1159 4600 1884 4600 
Q 2425 4600 2770 4297 
Q 3116 3994 3184 3459 
z
M 888 1484 
Q 888 1194 1011 928 
Q 1134 663 1356 523 
Q 1578 384 1822 384 
Q 2178 384 2434 671 
Q 2691 959 2691 1453 
Q 2691 1928 2437 2201 
Q 2184 2475 1800 2475 
Q 1419 2475 1153 2201 
Q 888 1928 888 1484 
z
" transform="scale(0.015625)"/>
       </defs>
       <use xlink:href="#ArialMT-36"/>
       <use xlink:href="#ArialMT-30" x="55.615234"/>
      </g>
     </g>
    </g>
    <g id="text_8">
     <!-- Missing monthly observations (%) -->
     <g style="fill: #262626" transform="translate(86.761719 296.114375)scale(0.1 -0.1)">
      <defs>
       <path id="ArialMT-4d" d="M 475 0 
L 475 4581 
L 1388 4581 
L 2472 1338 
Q 2622 884 2691 659 
Q 2769 909 2934 1394 
L 4031 4581 
L 4847 4581 
L 4847 0 
L 4263 0 
L 4263 3834 
L 2931 0 
L 2384 0 
L 1059 3900 
L 1059 0 
L 475 0 
z
" transform="scale(0.015625)"/>
       <path id="ArialMT-69" d="M 425 3934 
L 425 4581 
L 988 4581 
L 988 3934 
L 425 3934 
z
M 425 0 
L 425 3319 
L 988 3319 
L 988 0 
L 425 0 
z
" transform="scale(0.015625)"/>
       <path id="ArialMT-73" d="M 197 991 
L 753 1078 
Q 800 744 1014 566 
Q 1228 388 1613 388 
Q 2000 388 2187 545 
Q 2375 703 2375 916 
Q 2375 1106 2209 1216 
Q 2094 1291 1634 1406 
Q 1016 1563 777 1677 
Q 538 1791 414 1992 
Q 291 2194 291 2438 
Q 291 2659 392 2848 
Q 494 3038 669 3163 
Q 800 3259 1026 3326 
Q 1253 3394 1513 3394 
Q 1903 3394 2198 3281 
Q 2494 3169 2634 2976 
Q 2775 2784 2828 2463 
L 2278 2388 
Q 2241 2644 2061 2787 
Q 1881 2931 1553 2931 
Q 1166 2931 1000 2803 
Q 834 2675 834 2503 
Q 834 2394 903 2306 
Q 972 2216 1119 2156 
Q 1203 2125 1616 2013 
Q 2213 1853 2448 1751 
Q 2684 1650 2818 1456 
Q 2953 1263 2953 975 
Q 2953 694 2789 445 
Q 2625 197 2315 61 
Q 2006 -75 1616 -75 
Q 969 -75 630 194 
Q 291 463 197 991 
z
" transform="scale(0.015625)"/>
       <path id="ArialMT-6e" d="M 422 0 
L 422 3319 
L 928 3319 
L 928 2847 
Q 1294 3394 1984 3394 
Q 2284 3394 2536 3286 
Q 2788 3178 2913 3003 
Q 3038 2828 3088 2588 
Q 3119 2431 3119 2041 
L 3119 0 
L 2556 0 
L 2556 2019 
Q 2556 2363 2490 2533 
Q 2425 2703 2258 2804 
Q 2091 2906 1866 2906 
Q 1506 2906 1245 2678 
Q 984 2450 984 1813 
L 984 0 
L 422 0 
z
" transform="scale(0.015625)"/>
       <path id="ArialMT-67" d="M 319 -275 
L 866 -356 
Q 900 -609 1056 -725 
Q 1266 -881 1628 -881 
Q 2019 -881 2231 -725 
Q 2444 -569 2519 -288 
Q 2563 -116 2559 434 
Q 2191 0 1641 0 
Q 956 0 581 494 
Q 206 988 206 1678 
Q 206 2153 378 2554 
Q 550 2956 876 3175 
Q 1203 3394 1644 3394 
Q 2231 3394 2613 2919 
L 2613 3319 
L 3131 3319 
L 3131 450 
Q 3131 -325 2973 -648 
Q 2816 -972 2473 -1159 
Q 2131 -1347 1631 -1347 
Q 1038 -1347 672 -1080 
Q 306 -813 319 -275 
z
M 784 1719 
Q 784 1066 1043 766 
Q 1303 466 1694 466 
Q 2081 466 2343 764 
Q 2606 1063 2606 1700 
Q 2606 2309 2336 2618 
Q 2066 2928 1684 2928 
Q 1309 2928 1046 2623 
Q 784 2319 784 1719 
z
" transform="scale(0.015625)"/>
       <path id="ArialMT-20" transform="scale(0.015625)"/>
       <path id="ArialMT-6d" d="M 422 0 
L 422 3319 
L 925 3319 
L 925 2853 
Q 1081 3097 1340 3245 
Q 1600 3394 1931 3394 
Q 2300 3394 2536 3241 
Q 2772 3088 2869 2813 
Q 3263 3394 3894 3394 
Q 4388 3394 4653 3120 
Q 4919 2847 4919 2278 
L 4919 0 
L 4359 0 
L 4359 2091 
Q 4359 2428 4304 2576 
Q 4250 2725 4106 2815 
Q 3963 2906 3769 2906 
Q 3419 2906 3187 2673 
Q 2956 2441 2956 1928 
L 2956 0 
L 2394 0 
L 2394 2156 
Q 2394 2531 2256 2718 
Q 2119 2906 1806 2906 
Q 1569 2906 1367 2781 
Q 1166 2656 1075 2415 
Q 984 2175 984 1722 
L 984 0 
L 422 0 
z
" transform="scale(0.015625)"/>
       <path id="ArialMT-6f" d="M 213 1659 
Q 213 2581 725 3025 
Q 1153 3394 1769 3394 
Q 2453 3394 2887 2945 
Q 3322 2497 3322 1706 
Q 3322 1066 3130 698 
Q 2938 331 2570 128 
Q 2203 -75 1769 -75 
Q 1072 -75 642 372 
Q 213 819 213 1659 
z
M 791 1659 
Q 791 1022 1069 705 
Q 1347 388 1769 388 
Q 2188 388 2466 706 
Q 2744 1025 2744 1678 
Q 2744 2294 2464 2611 
Q 2184 2928 1769 2928 
Q 1347 2928 1069 2612 
Q 791 2297 791 1659 
z
" transform="scale(0.015625)"/>
       <path id="ArialMT-74" d="M 1650 503 
L 1731 6 
Q 1494 -44 1306 -44 
Q 1000 -44 831 53 
Q 663 150 594 308 
Q 525 466 525 972 
L 525 2881 
L 113 2881 
L 113 3319 
L 525 3319 
L 525 4141 
L 1084 4478 
L 1084 3319 
L 1650 3319 
L 1650 2881 
L 1084 2881 
L 1084 941 
Q 1084 700 1114 631 
Q 1144 563 1211 522 
Q 1278 481 1403 481 
Q 1497 481 1650 503 
z
" transform="scale(0.015625)"/>
       <path id="ArialMT-68" d="M 422 0 
L 422 4581 
L 984 4581 
L 984 2938 
Q 1378 3394 1978 3394 
Q 2347 3394 2619 3248 
Q 2891 3103 3008 2847 
Q 3125 2591 3125 2103 
L 3125 0 
L 2563 0 
L 2563 2103 
Q 2563 2525 2380 2717 
Q 2197 2909 1863 2909 
Q 1613 2909 1392 2779 
Q 1172 2650 1078 2428 
Q 984 2206 984 1816 
L 984 0 
L 422 0 
z
" transform="scale(0.015625)"/>
       <path id="ArialMT-6c" d="M 409 0 
L 409 4581 
L 972 4581 
L 972 0 
L 409 0 
z
" transform="scale(0.015625)"/>
       <path id="ArialMT-79" d="M 397 -1278 
L 334 -750 
Q 519 -800 656 -800 
Q 844 -800 956 -737 
Q 1069 -675 1141 -563 
Q 1194 -478 1313 -144 
Q 1328 -97 1363 -6 
L 103 3319 
L 709 3319 
L 1400 1397 
Q 1534 1031 1641 628 
Q 1738 1016 1872 1384 
L 2581 3319 
L 3144 3319 
L 1881 -56 
Q 1678 -603 1566 -809 
Q 1416 -1088 1222 -1217 
Q 1028 -1347 759 -1347 
Q 597 -1347 397 -1278 
z
" transform="scale(0.015625)"/>
       <path id="ArialMT-62" d="M 941 0 
L 419 0 
L 419 4581 
L 981 4581 
L 981 2947 
Q 1338 3394 1891 3394 
Q 2197 3394 2470 3270 
Q 2744 3147 2920 2923 
Q 3097 2700 3197 2384 
Q 3297 2069 3297 1709 
Q 3297 856 2875 390 
Q 2453 -75 1863 -75 
Q 1275 -75 941 416 
L 941 0 
z
M 934 1684 
Q 934 1088 1097 822 
Q 1363 388 1816 388 
Q 2184 388 2453 708 
Q 2722 1028 2722 1663 
Q 2722 2313 2464 2622 
Q 2206 2931 1841 2931 
Q 1472 2931 1203 2611 
Q 934 2291 934 1684 
z
" transform="scale(0.015625)"/>
       <path id="ArialMT-65" d="M 2694 1069 
L 3275 997 
Q 3138 488 2766 206 
Q 2394 -75 1816 -75 
Q 1088 -75 661 373 
Q 234 822 234 1631 
Q 234 2469 665 2931 
Q 1097 3394 1784 3394 
Q 2450 3394 2872 2941 
Q 3294 2488 3294 1666 
Q 3294 1616 3291 1516 
L 816 1516 
Q 847 969 1125 678 
Q 1403 388 1819 388 
Q 2128 388 2347 550 
Q 2566 713 2694 1069 
z
M 847 1978 
L 2700 1978 
Q 2663 2397 2488 2606 
Q 2219 2931 1791 2931 
Q 1403 2931 1139 2672 
Q 875 2413 847 1978 
z
" transform="scale(0.015625)"/>
       <path id="ArialMT-72" d="M 416 0 
L 416 3319 
L 922 3319 
L 922 2816 
Q 1116 3169 1280 3281 
Q 1444 3394 1641 3394 
Q 1925 3394 2219 3213 
L 2025 2691 
Q 1819 2813 1613 2813 
Q 1428 2813 1281 2702 
Q 1134 2591 1072 2394 
Q 978 2094 978 1738 
L 978 0 
L 416 0 
z
" transform="scale(0.015625)"/>
       <path id="ArialMT-76" d="M 1344 0 
L 81 3319 
L 675 3319 
L 1388 1331 
Q 1503 1009 1600 663 
Q 1675 925 1809 1294 
L 2547 3319 
L 3125 3319 
L 1869 0 
L 1344 0 
z
" transform="scale(0.015625)"/>
       <path id="ArialMT-61" d="M 2588 409 
Q 2275 144 1986 34 
Q 1697 -75 1366 -75 
Q 819 -75 525 192 
Q 231 459 231 875 
Q 231 1119 342 1320 
Q 453 1522 633 1644 
Q 813 1766 1038 1828 
Q 1203 1872 1538 1913 
Q 2219 1994 2541 2106 
Q 2544 2222 2544 2253 
Q 2544 2597 2384 2738 
Q 2169 2928 1744 2928 
Q 1347 2928 1158 2789 
Q 969 2650 878 2297 
L 328 2372 
Q 403 2725 575 2942 
Q 747 3159 1072 3276 
Q 1397 3394 1825 3394 
Q 2250 3394 2515 3294 
Q 2781 3194 2906 3042 
Q 3031 2891 3081 2659 
Q 3109 2516 3109 2141 
L 3109 1391 
Q 3109 606 3145 398 
Q 3181 191 3288 0 
L 2700 0 
Q 2613 175 2588 409 
z
M 2541 1666 
Q 2234 1541 1622 1453 
Q 1275 1403 1131 1340 
Q 988 1278 909 1158 
Q 831 1038 831 891 
Q 831 666 1001 516 
Q 1172 366 1500 366 
Q 1825 366 2078 508 
Q 2331 650 2450 897 
Q 2541 1088 2541 1459 
L 2541 1666 
z
" transform="scale(0.015625)"/>
       <path id="ArialMT-28" d="M 1497 -1347 
Q 1031 -759 709 28 
Q 388 816 388 1659 
Q 388 2403 628 3084 
Q 909 3875 1497 4659 
L 1900 4659 
Q 1522 4009 1400 3731 
Q 1209 3300 1100 2831 
Q 966 2247 966 1656 
Q 966 153 1900 -1347 
L 1497 -1347 
z
" transform="scale(0.015625)"/>
       <path id="ArialMT-25" d="M 372 3481 
Q 372 3972 619 4315 
Q 866 4659 1334 4659 
Q 1766 4659 2048 4351 
Q 2331 4044 2331 3447 
Q 2331 2866 2045 2552 
Q 1759 2238 1341 2238 
Q 925 2238 648 2547 
Q 372 2856 372 3481 
z
M 1350 4272 
Q 1141 4272 1002 4090 
Q 863 3909 863 3425 
Q 863 2984 1003 2804 
Q 1144 2625 1350 2625 
Q 1563 2625 1702 2806 
Q 1841 2988 1841 3469 
Q 1841 3913 1700 4092 
Q 1559 4272 1350 4272 
z
M 1353 -169 
L 3859 4659 
L 4316 4659 
L 1819 -169 
L 1353 -169 
z
M 3334 1075 
Q 3334 1569 3581 1911 
Q 3828 2253 4300 2253 
Q 4731 2253 5014 1945 
Q 5297 1638 5297 1041 
Q 5297 459 5011 145 
Q 4725 -169 4303 -169 
Q 3888 -169 3611 142 
Q 3334 453 3334 1075 
z
M 4316 1866 
Q 4103 1866 3964 1684 
Q 3825 1503 3825 1019 
Q 3825 581 3965 400 
Q 4106 219 4313 219 
Q 4528 219 4667 400 
Q 4806 581 4806 1063 
Q 4806 1506 4665 1686 
Q 4525 1866 4316 1866 
z
" transform="scale(0.015625)"/>
       <path id="ArialMT-29" d="M 791 -1347 
L 388 -1347 
Q 1322 153 1322 1656 
Q 1322 2244 1188 2822 
Q 1081 3291 891 3722 
Q 769 4003 388 4659 
L 791 4659 
Q 1378 3875 1659 3084 
Q 1900 2403 1900 1659 
Q 1900 816 1576 28 
Q 1253 -759 791 -1347 
z
" transform="scale(0.015625)"/>
      </defs>
      <use xlink:href="#ArialMT-4d"/>
      <use xlink:href="#ArialMT-69" x="83.300781"/>
      <use xlink:href="#ArialMT-73" x="105.517578"/>
      <use xlink:href="#ArialMT-73" x="155.517578"/>
      <use xlink:href="#ArialMT-69" x="205.517578"/>
      <use xlink:href="#ArialMT-6e" x="227.734375"/>
      <use xlink:href="#ArialMT-67" x="283.349609"/>
      <use xlink:href="#ArialMT-20" x="338.964844"/>
      <use xlink:href="#ArialMT-6d" x="366.748047"/>
      <use xlink:href="#ArialMT-6f" x="450.048828"/>
      <use xlink:href="#ArialMT-6e" x="505.664062"/>
      <use xlink:href="#ArialMT-74" x="561.279297"/>
      <use xlink:href="#ArialMT-68" x="589.0625"/>
      <use xlink:href="#ArialMT-6c" x="644.677734"/>
      <use xlink:href="#ArialMT-79" x="666.894531"/>
      <use xlink:href="#ArialMT-20" x="716.894531"/>
      <use xlink:href="#ArialMT-6f" x="744.677734"/>
      <use xlink:href="#ArialMT-62" x="800.292969"/>
      <use xlink:href="#ArialMT-73" x="855.908203"/>
      <use xlink:href="#ArialMT-65" x="905.908203"/>
      <use xlink:href="#ArialMT-72" x="961.523438"/>
      <use xlink:href="#ArialMT-76" x="994.824219"/>
      <use xlink:href="#ArialMT-61" x="1044.824219"/>
      <use xlink:href="#ArialMT-74" x="1100.439453"/>
      <use xlink:href="#ArialMT-69" x="1128.222656"/>
      <use xlink:href="#ArialMT-6f" x="1150.439453"/>
      <use xlink:href="#ArialMT-6e" x="1206.054688"/>
      <use xlink:href="#ArialMT-73" x="1261.669922"/>
      <use xlink:href="#ArialMT-20" x="1311.669922"/>
      <use xlink:href="#ArialMT-28" x="1339.453125"/>
      <use xlink:href="#ArialMT-25" x="1372.753906"/>
      <use xlink:href="#ArialMT-29" x="1461.669922"/>
     </g>
    </g>
   </g>
   <g id="matplotlib.axis_2">
    <g id="ytick_1">
     <g id="line2d_8">
      <path d="M 38.70625 268.689375 
L 284.30625 268.689375 
" clip-path="url(#p95d72dcf6e)" style="fill: none; stroke: #cccccc; stroke-width: 0.8; stroke-linecap: round"/>
     </g>
     <g id="text_9">
      <!-- 0 -->
      <g style="fill: #262626" transform="translate(26.145313 272.268281)scale(0.1 -0.1)">
       <use xlink:href="#ArialMT-30"/>
      </g>
     </g>
    </g>
    <g id="ytick_2">
     <g id="line2d_9">
      <path d="M 38.70625 217.587463 
L 284.30625 217.587463 
" clip-path="url(#p95d72dcf6e)" style="fill: none; stroke: #cccccc; stroke-width: 0.8; stroke-linecap: round"/>
     </g>
     <g id="text_10">
      <!-- 20 -->
      <g style="fill: #262626" transform="translate(20.584375 221.166369)scale(0.1 -0.1)">
       <use xlink:href="#ArialMT-32"/>
       <use xlink:href="#ArialMT-30" x="55.615234"/>
      </g>
     </g>
    </g>
    <g id="ytick_3">
     <g id="line2d_10">
      <path d="M 38.70625 166.48555 
L 284.30625 166.48555 
" clip-path="url(#p95d72dcf6e)" style="fill: none; stroke: #cccccc; stroke-width: 0.8; stroke-linecap: round"/>
     </g>
     <g id="text_11">
      <!-- 40 -->
      <g style="fill: #262626" transform="translate(20.584375 170.064457)scale(0.1 -0.1)">
       <use xlink:href="#ArialMT-34"/>
       <use xlink:href="#ArialMT-30" x="55.615234"/>
      </g>
     </g>
    </g>
    <g id="ytick_4">
     <g id="line2d_11">
      <path d="M 38.70625 115.383638 
L 284.30625 115.383638 
" clip-path="url(#p95d72dcf6e)" style="fill: none; stroke: #cccccc; stroke-width: 0.8; stroke-linecap: round"/>
     </g>
     <g id="text_12">
      <!-- 60 -->
      <g style="fill: #262626" transform="translate(20.584375 118.962544)scale(0.1 -0.1)">
       <use xlink:href="#ArialMT-36"/>
       <use xlink:href="#ArialMT-30" x="55.615234"/>
      </g>
     </g>
    </g>
    <g id="ytick_5">
     <g id="line2d_12">
      <path d="M 38.70625 64.281726 
L 284.30625 64.281726 
" clip-path="url(#p95d72dcf6e)" style="fill: none; stroke: #cccccc; stroke-width: 0.8; stroke-linecap: round"/>
     </g>
     <g id="text_13">
      <!-- 80 -->
      <g style="fill: #262626" transform="translate(20.584375 67.860632)scale(0.1 -0.1)">
       <defs>
        <path id="ArialMT-38" d="M 1131 2484 
Q 781 2613 612 2850 
Q 444 3088 444 3419 
Q 444 3919 803 4259 
Q 1163 4600 1759 4600 
Q 2359 4600 2725 4251 
Q 3091 3903 3091 3403 
Q 3091 3084 2923 2848 
Q 2756 2613 2416 2484 
Q 2838 2347 3058 2040 
Q 3278 1734 3278 1309 
Q 3278 722 2862 322 
Q 2447 -78 1769 -78 
Q 1091 -78 675 323 
Q 259 725 259 1325 
Q 259 1772 486 2073 
Q 713 2375 1131 2484 
z
M 1019 3438 
Q 1019 3113 1228 2906 
Q 1438 2700 1772 2700 
Q 2097 2700 2305 2904 
Q 2513 3109 2513 3406 
Q 2513 3716 2298 3927 
Q 2084 4138 1766 4138 
Q 1444 4138 1231 3931 
Q 1019 3725 1019 3438 
z
M 838 1322 
Q 838 1081 952 856 
Q 1066 631 1291 507 
Q 1516 384 1775 384 
Q 2178 384 2440 643 
Q 2703 903 2703 1303 
Q 2703 1709 2433 1975 
Q 2163 2241 1756 2241 
Q 1359 2241 1098 1978 
Q 838 1716 838 1322 
z
" transform="scale(0.015625)"/>
       </defs>
       <use xlink:href="#ArialMT-38"/>
       <use xlink:href="#ArialMT-30" x="55.615234"/>
      </g>
     </g>
    </g>
    <g id="text_14">
     <!-- Percentage of countries (%) -->
     <g style="fill: #262626" transform="translate(14.479687 207.210469)rotate(-90)scale(0.1 -0.1)">
      <defs>
       <path id="ArialMT-50" d="M 494 0 
L 494 4581 
L 2222 4581 
Q 2678 4581 2919 4538 
Q 3256 4481 3484 4323 
Q 3713 4166 3852 3881 
Q 3991 3597 3991 3256 
Q 3991 2672 3619 2267 
Q 3247 1863 2275 1863 
L 1100 1863 
L 1100 0 
L 494 0 
z
M 1100 2403 
L 2284 2403 
Q 2872 2403 3119 2622 
Q 3366 2841 3366 3238 
Q 3366 3525 3220 3729 
Q 3075 3934 2838 4000 
Q 2684 4041 2272 4041 
L 1100 4041 
L 1100 2403 
z
" transform="scale(0.015625)"/>
       <path id="ArialMT-63" d="M 2588 1216 
L 3141 1144 
Q 3050 572 2676 248 
Q 2303 -75 1759 -75 
Q 1078 -75 664 370 
Q 250 816 250 1647 
Q 250 2184 428 2587 
Q 606 2991 970 3192 
Q 1334 3394 1763 3394 
Q 2303 3394 2647 3120 
Q 2991 2847 3088 2344 
L 2541 2259 
Q 2463 2594 2264 2762 
Q 2066 2931 1784 2931 
Q 1359 2931 1093 2626 
Q 828 2322 828 1663 
Q 828 994 1084 691 
Q 1341 388 1753 388 
Q 2084 388 2306 591 
Q 2528 794 2588 1216 
z
" transform="scale(0.015625)"/>
       <path id="ArialMT-66" d="M 556 0 
L 556 2881 
L 59 2881 
L 59 3319 
L 556 3319 
L 556 3672 
Q 556 4006 616 4169 
Q 697 4388 901 4523 
Q 1106 4659 1475 4659 
Q 1713 4659 2000 4603 
L 1916 4113 
Q 1741 4144 1584 4144 
Q 1328 4144 1222 4034 
Q 1116 3925 1116 3625 
L 1116 3319 
L 1763 3319 
L 1763 2881 
L 1116 2881 
L 1116 0 
L 556 0 
z
" transform="scale(0.015625)"/>
       <path id="ArialMT-75" d="M 2597 0 
L 2597 488 
Q 2209 -75 1544 -75 
Q 1250 -75 995 37 
Q 741 150 617 320 
Q 494 491 444 738 
Q 409 903 409 1263 
L 409 3319 
L 972 3319 
L 972 1478 
Q 972 1038 1006 884 
Q 1059 663 1231 536 
Q 1403 409 1656 409 
Q 1909 409 2131 539 
Q 2353 669 2445 892 
Q 2538 1116 2538 1541 
L 2538 3319 
L 3100 3319 
L 3100 0 
L 2597 0 
z
" transform="scale(0.015625)"/>
      </defs>
      <use xlink:href="#ArialMT-50"/>
      <use xlink:href="#ArialMT-65" x="66.699219"/>
      <use xlink:href="#ArialMT-72" x="122.314453"/>
      <use xlink:href="#ArialMT-63" x="155.615234"/>
      <use xlink:href="#ArialMT-65" x="205.615234"/>
      <use xlink:href="#ArialMT-6e" x="261.230469"/>
      <use xlink:href="#ArialMT-74" x="316.845703"/>
      <use xlink:href="#ArialMT-61" x="344.628906"/>
      <use xlink:href="#ArialMT-67" x="400.244141"/>
      <use xlink:href="#ArialMT-65" x="455.859375"/>
      <use xlink:href="#ArialMT-20" x="511.474609"/>
      <use xlink:href="#ArialMT-6f" x="539.257812"/>
      <use xlink:href="#ArialMT-66" x="594.873047"/>
      <use xlink:href="#ArialMT-20" x="622.65625"/>
      <use xlink:href="#ArialMT-63" x="650.439453"/>
      <use xlink:href="#ArialMT-6f" x="700.439453"/>
      <use xlink:href="#ArialMT-75" x="756.054688"/>
      <use xlink:href="#ArialMT-6e" x="811.669922"/>
      <use xlink:href="#ArialMT-74" x="867.285156"/>
      <use xlink:href="#ArialMT-72" x="895.068359"/>
      <use xlink:href="#ArialMT-69" x="928.369141"/>
      <use xlink:href="#ArialMT-65" x="950.585938"/>
      <use xlink:href="#ArialMT-73" x="1006.201172"/>
      <use xlink:href="#ArialMT-20" x="1056.201172"/>
      <use xlink:href="#ArialMT-28" x="1083.984375"/>
      <use xlink:href="#ArialMT-25" x="1117.285156"/>
      <use xlink:href="#ArialMT-29" x="1206.201172"/>
     </g>
    </g>
   </g>
   <g id="patch_3">
    <path d="M 49.869886 268.689375 
L 68.475947 268.689375 
L 68.475947 33.546518 
L 49.869886 33.546518 
z
" clip-path="url(#p95d72dcf6e)" style="fill: #1f77b4; fill-opacity: 0.75; stroke: #ffffff; stroke-linejoin: miter"/>
   </g>
   <g id="patch_4">
    <path d="M 68.475947 268.689375 
L 87.082008 268.689375 
L 87.082008 257.580264 
L 68.475947 257.580264 
z
" clip-path="url(#p95d72dcf6e)" style="fill: #1f77b4; fill-opacity: 0.75; stroke: #ffffff; stroke-linejoin: miter"/>
   </g>
   <g id="patch_5">
    <path d="M 87.082008 268.689375 
L 105.688068 268.689375 
L 105.688068 264.986338 
L 87.082008 264.986338 
z
" clip-path="url(#p95d72dcf6e)" style="fill: #1f77b4; fill-opacity: 0.75; stroke: #ffffff; stroke-linejoin: miter"/>
   </g>
   <g id="patch_6">
    <path d="M 105.688068 268.689375 
L 124.294129 268.689375 
L 124.294129 266.837856 
L 105.688068 266.837856 
z
" clip-path="url(#p95d72dcf6e)" style="fill: #1f77b4; fill-opacity: 0.75; stroke: #ffffff; stroke-linejoin: miter"/>
   </g>
   <g id="patch_7">
    <path d="M 124.294129 268.689375 
L 142.900189 268.689375 
L 142.900189 268.689375 
L 124.294129 268.689375 
z
" clip-path="url(#p95d72dcf6e)" style="fill: #1f77b4; fill-opacity: 0.75; stroke: #ffffff; stroke-linejoin: miter"/>
   </g>
   <g id="patch_8">
    <path d="M 142.900189 268.689375 
L 161.50625 268.689375 
L 161.50625 268.689375 
L 142.900189 268.689375 
z
" clip-path="url(#p95d72dcf6e)" style="fill: #1f77b4; fill-opacity: 0.75; stroke: #ffffff; stroke-linejoin: miter"/>
   </g>
   <g id="patch_9">
    <path d="M 161.50625 268.689375 
L 180.112311 268.689375 
L 180.112311 268.689375 
L 161.50625 268.689375 
z
" clip-path="url(#p95d72dcf6e)" style="fill: #1f77b4; fill-opacity: 0.75; stroke: #ffffff; stroke-linejoin: miter"/>
   </g>
   <g id="patch_10">
    <path d="M 180.112311 268.689375 
L 198.718371 268.689375 
L 198.718371 268.689375 
L 180.112311 268.689375 
z
" clip-path="url(#p95d72dcf6e)" style="fill: #1f77b4; fill-opacity: 0.75; stroke: #ffffff; stroke-linejoin: miter"/>
   </g>
   <g id="patch_11">
    <path d="M 198.718371 268.689375 
L 217.324432 268.689375 
L 217.324432 268.689375 
L 198.718371 268.689375 
z
" clip-path="url(#p95d72dcf6e)" style="fill: #1f77b4; fill-opacity: 0.75; stroke: #ffffff; stroke-linejoin: miter"/>
   </g>
   <g id="patch_12">
    <path d="M 217.324432 268.689375 
L 235.930492 268.689375 
L 235.930492 268.689375 
L 217.324432 268.689375 
z
" clip-path="url(#p95d72dcf6e)" style="fill: #1f77b4; fill-opacity: 0.75; stroke: #ffffff; stroke-linejoin: miter"/>
   </g>
   <g id="patch_13">
    <path d="M 235.930492 268.689375 
L 254.536553 268.689375 
L 254.536553 268.689375 
L 235.930492 268.689375 
z
" clip-path="url(#p95d72dcf6e)" style="fill: #1f77b4; fill-opacity: 0.75; stroke: #ffffff; stroke-linejoin: miter"/>
   </g>
   <g id="patch_14">
    <path d="M 254.536553 268.689375 
L 273.142614 268.689375 
L 273.142614 264.986338 
L 254.536553 264.986338 
z
" clip-path="url(#p95d72dcf6e)" style="fill: #1f77b4; fill-opacity: 0.75; stroke: #ffffff; stroke-linejoin: miter"/>
   </g>
   <g id="line2d_13">
    <path d="M 56.570111 268.689375 
L 56.570111 21.789375 
" clip-path="url(#p95d72dcf6e)" style="fill: none; stroke: #ff0000; stroke-width: 1.5; stroke-linecap: round"/>
   </g>
   <g id="patch_15">
    <path d="M 38.70625 268.689375 
L 38.70625 21.789375 
" style="fill: none; stroke: #cccccc; stroke-width: 0.8; stroke-linejoin: miter; stroke-linecap: square"/>
   </g>
   <g id="patch_16">
    <path d="M 284.30625 268.689375 
L 284.30625 21.789375 
" style="fill: none; stroke: #cccccc; stroke-width: 0.8; stroke-linejoin: miter; stroke-linecap: square"/>
   </g>
   <g id="patch_17">
    <path d="M 38.70625 268.689375 
L 284.30625 268.689375 
" style="fill: none; stroke: #cccccc; stroke-width: 0.8; stroke-linejoin: miter; stroke-linecap: square"/>
   </g>
   <g id="patch_18">
    <path d="M 38.70625 21.789375 
L 284.30625 21.789375 
" style="fill: none; stroke: #cccccc; stroke-width: 0.8; stroke-linejoin: miter; stroke-linecap: square"/>
   </g>
   <g id="text_15">
    <!-- IMF - World Economic Outlook -->
    <g style="fill: #262626" transform="translate(79.929688 15.789375)scale(0.12 -0.12)">
     <defs>
      <path id="ArialMT-49" d="M 597 0 
L 597 4581 
L 1203 4581 
L 1203 0 
L 597 0 
z
" transform="scale(0.015625)"/>
      <path id="ArialMT-46" d="M 525 0 
L 525 4581 
L 3616 4581 
L 3616 4041 
L 1131 4041 
L 1131 2622 
L 3281 2622 
L 3281 2081 
L 1131 2081 
L 1131 0 
L 525 0 
z
" transform="scale(0.015625)"/>
      <path id="ArialMT-2d" d="M 203 1375 
L 203 1941 
L 1931 1941 
L 1931 1375 
L 203 1375 
z
" transform="scale(0.015625)"/>
      <path id="ArialMT-57" d="M 1294 0 
L 78 4581 
L 700 4581 
L 1397 1578 
Q 1509 1106 1591 641 
Q 1766 1375 1797 1488 
L 2669 4581 
L 3400 4581 
L 4056 2263 
Q 4303 1400 4413 641 
Q 4500 1075 4641 1638 
L 5359 4581 
L 5969 4581 
L 4713 0 
L 4128 0 
L 3163 3491 
Q 3041 3928 3019 4028 
Q 2947 3713 2884 3491 
L 1913 0 
L 1294 0 
z
" transform="scale(0.015625)"/>
      <path id="ArialMT-64" d="M 2575 0 
L 2575 419 
Q 2259 -75 1647 -75 
Q 1250 -75 917 144 
Q 584 363 401 755 
Q 219 1147 219 1656 
Q 219 2153 384 2558 
Q 550 2963 881 3178 
Q 1213 3394 1622 3394 
Q 1922 3394 2156 3267 
Q 2391 3141 2538 2938 
L 2538 4581 
L 3097 4581 
L 3097 0 
L 2575 0 
z
M 797 1656 
Q 797 1019 1065 703 
Q 1334 388 1700 388 
Q 2069 388 2326 689 
Q 2584 991 2584 1609 
Q 2584 2291 2321 2609 
Q 2059 2928 1675 2928 
Q 1300 2928 1048 2622 
Q 797 2316 797 1656 
z
" transform="scale(0.015625)"/>
      <path id="ArialMT-45" d="M 506 0 
L 506 4581 
L 3819 4581 
L 3819 4041 
L 1113 4041 
L 1113 2638 
L 3647 2638 
L 3647 2100 
L 1113 2100 
L 1113 541 
L 3925 541 
L 3925 0 
L 506 0 
z
" transform="scale(0.015625)"/>
      <path id="ArialMT-4f" d="M 309 2231 
Q 309 3372 921 4017 
Q 1534 4663 2503 4663 
Q 3138 4663 3647 4359 
Q 4156 4056 4423 3514 
Q 4691 2972 4691 2284 
Q 4691 1588 4409 1038 
Q 4128 488 3612 205 
Q 3097 -78 2500 -78 
Q 1853 -78 1343 234 
Q 834 547 571 1087 
Q 309 1628 309 2231 
z
M 934 2222 
Q 934 1394 1379 917 
Q 1825 441 2497 441 
Q 3181 441 3623 922 
Q 4066 1403 4066 2288 
Q 4066 2847 3877 3264 
Q 3688 3681 3323 3911 
Q 2959 4141 2506 4141 
Q 1863 4141 1398 3698 
Q 934 3256 934 2222 
z
" transform="scale(0.015625)"/>
      <path id="ArialMT-6b" d="M 425 0 
L 425 4581 
L 988 4581 
L 988 1969 
L 2319 3319 
L 3047 3319 
L 1778 2088 
L 3175 0 
L 2481 0 
L 1384 1697 
L 988 1316 
L 988 0 
L 425 0 
z
" transform="scale(0.015625)"/>
     </defs>
     <use xlink:href="#ArialMT-49"/>
     <use xlink:href="#ArialMT-4d" x="27.783203"/>
     <use xlink:href="#ArialMT-46" x="111.083984"/>
     <use xlink:href="#ArialMT-20" x="172.167969"/>
     <use xlink:href="#ArialMT-2d" x="199.951172"/>
     <use xlink:href="#ArialMT-20" x="233.251953"/>
     <use xlink:href="#ArialMT-57" x="261.035156"/>
     <use xlink:href="#ArialMT-6f" x="353.669922"/>
     <use xlink:href="#ArialMT-72" x="409.285156"/>
     <use xlink:href="#ArialMT-6c" x="442.585938"/>
     <use xlink:href="#ArialMT-64" x="464.802734"/>
     <use xlink:href="#ArialMT-20" x="520.417969"/>
     <use xlink:href="#ArialMT-45" x="548.201172"/>
     <use xlink:href="#ArialMT-63" x="614.900391"/>
     <use xlink:href="#ArialMT-6f" x="664.900391"/>
     <use xlink:href="#ArialMT-6e" x="720.515625"/>
     <use xlink:href="#ArialMT-6f" x="776.130859"/>
     <use xlink:href="#ArialMT-6d" x="831.746094"/>
     <use xlink:href="#ArialMT-69" x="915.046875"/>
     <use xlink:href="#ArialMT-63" x="937.263672"/>
     <use xlink:href="#ArialMT-20" x="987.263672"/>
     <use xlink:href="#ArialMT-4f" x="1015.046875"/>
     <use xlink:href="#ArialMT-75" x="1092.830078"/>
     <use xlink:href="#ArialMT-74" x="1148.445312"/>
     <use xlink:href="#ArialMT-6c" x="1176.228516"/>
     <use xlink:href="#ArialMT-6f" x="1198.445312"/>
     <use xlink:href="#ArialMT-6f" x="1254.060547"/>
     <use xlink:href="#ArialMT-6b" x="1309.675781"/>
    </g>
   </g>
   <g id="legend_1">
    <g id="patch_19">
     <path d="M 186.384375 43.934687 
L 277.30625 43.934687 
Q 279.30625 43.934687 279.30625 41.934687 
L 279.30625 28.789375 
Q 279.30625 26.789375 277.30625 26.789375 
L 186.384375 26.789375 
Q 184.384375 26.789375 184.384375 28.789375 
L 184.384375 41.934687 
Q 184.384375 43.934687 186.384375 43.934687 
z
" style="fill: #ffffff; opacity: 0.8; stroke: #cccccc; stroke-linejoin: miter"/>
    </g>
    <g id="line2d_14">
     <path d="M 188.384375 34.447187 
L 198.384375 34.447187 
L 208.384375 34.447187 
" style="fill: none; stroke: #ff0000; stroke-width: 1.5; stroke-linecap: round"/>
    </g>
    <g id="text_16">
     <!-- mean: 1.91% -->
     <g style="fill: #262626" transform="translate(216.384375 37.947187)scale(0.1 -0.1)">
      <defs>
       <path id="ArialMT-3a" d="M 578 2678 
L 578 3319 
L 1219 3319 
L 1219 2678 
L 578 2678 
z
M 578 0 
L 578 641 
L 1219 641 
L 1219 0 
L 578 0 
z
" transform="scale(0.015625)"/>
       <path id="ArialMT-2e" d="M 581 0 
L 581 641 
L 1222 641 
L 1222 0 
L 581 0 
z
" transform="scale(0.015625)"/>
       <path id="ArialMT-39" d="M 350 1059 
L 891 1109 
Q 959 728 1153 556 
Q 1347 384 1650 384 
Q 1909 384 2104 503 
Q 2300 622 2425 820 
Q 2550 1019 2634 1356 
Q 2719 1694 2719 2044 
Q 2719 2081 2716 2156 
Q 2547 1888 2255 1720 
Q 1963 1553 1622 1553 
Q 1053 1553 659 1965 
Q 266 2378 266 3053 
Q 266 3750 677 4175 
Q 1088 4600 1706 4600 
Q 2153 4600 2523 4359 
Q 2894 4119 3086 3673 
Q 3278 3228 3278 2384 
Q 3278 1506 3087 986 
Q 2897 466 2520 194 
Q 2144 -78 1638 -78 
Q 1100 -78 759 220 
Q 419 519 350 1059 
z
M 2653 3081 
Q 2653 3566 2395 3850 
Q 2138 4134 1775 4134 
Q 1400 4134 1122 3828 
Q 844 3522 844 3034 
Q 844 2597 1108 2323 
Q 1372 2050 1759 2050 
Q 2150 2050 2401 2323 
Q 2653 2597 2653 3081 
z
" transform="scale(0.015625)"/>
      </defs>
      <use xlink:href="#ArialMT-6d"/>
      <use xlink:href="#ArialMT-65" x="83.300781"/>
      <use xlink:href="#ArialMT-61" x="138.916016"/>
      <use xlink:href="#ArialMT-6e" x="194.53125"/>
      <use xlink:href="#ArialMT-3a" x="250.146484"/>
      <use xlink:href="#ArialMT-20" x="277.929688"/>
      <use xlink:href="#ArialMT-31" x="305.712891"/>
      <use xlink:href="#ArialMT-2e" x="361.328125"/>
      <use xlink:href="#ArialMT-39" x="389.111328"/>
      <use xlink:href="#ArialMT-31" x="444.726562"/>
      <use xlink:href="#ArialMT-25" x="500.341797"/>
     </g>
    </g>
   </g>
  </g>
  <g id="axes_2">
   <g id="patch_20">
    <path d="M 323.10625 268.689375 
L 568.70625 268.689375 
L 568.70625 21.789375 
L 323.10625 21.789375 
z
" style="fill: #ffffff"/>
   </g>
   <g id="matplotlib.axis_3">
    <g id="xtick_8">
     <g id="line2d_15">
      <path d="M 353.501254 268.689375 
L 353.501254 21.789375 
" clip-path="url(#p90daec07c1)" style="fill: none; stroke: #cccccc; stroke-width: 0.8; stroke-linecap: round"/>
     </g>
     <g id="text_17">
      <!-- 10 -->
      <g style="fill: #262626" transform="translate(347.940317 282.847188)scale(0.1 -0.1)">
       <use xlink:href="#ArialMT-31"/>
       <use xlink:href="#ArialMT-30" x="55.615234"/>
      </g>
     </g>
    </g>
    <g id="xtick_9">
     <g id="line2d_16">
      <path d="M 394.100809 268.689375 
L 394.100809 21.789375 
" clip-path="url(#p90daec07c1)" style="fill: none; stroke: #cccccc; stroke-width: 0.8; stroke-linecap: round"/>
     </g>
     <g id="text_18">
      <!-- 20 -->
      <g style="fill: #262626" transform="translate(388.539871 282.847188)scale(0.1 -0.1)">
       <use xlink:href="#ArialMT-32"/>
       <use xlink:href="#ArialMT-30" x="55.615234"/>
      </g>
     </g>
    </g>
    <g id="xtick_10">
     <g id="line2d_17">
      <path d="M 434.700363 268.689375 
L 434.700363 21.789375 
" clip-path="url(#p90daec07c1)" style="fill: none; stroke: #cccccc; stroke-width: 0.8; stroke-linecap: round"/>
     </g>
     <g id="text_19">
      <!-- 30 -->
      <g style="fill: #262626" transform="translate(429.139426 282.847188)scale(0.1 -0.1)">
       <use xlink:href="#ArialMT-33"/>
       <use xlink:href="#ArialMT-30" x="55.615234"/>
      </g>
     </g>
    </g>
    <g id="xtick_11">
     <g id="line2d_18">
      <path d="M 475.299918 268.689375 
L 475.299918 21.789375 
" clip-path="url(#p90daec07c1)" style="fill: none; stroke: #cccccc; stroke-width: 0.8; stroke-linecap: round"/>
     </g>
     <g id="text_20">
      <!-- 40 -->
      <g style="fill: #262626" transform="translate(469.73898 282.847188)scale(0.1 -0.1)">
       <use xlink:href="#ArialMT-34"/>
       <use xlink:href="#ArialMT-30" x="55.615234"/>
      </g>
     </g>
    </g>
    <g id="xtick_12">
     <g id="line2d_19">
      <path d="M 515.899472 268.689375 
L 515.899472 21.789375 
" clip-path="url(#p90daec07c1)" style="fill: none; stroke: #cccccc; stroke-width: 0.8; stroke-linecap: round"/>
     </g>
     <g id="text_21">
      <!-- 50 -->
      <g style="fill: #262626" transform="translate(510.338535 282.847188)scale(0.1 -0.1)">
       <use xlink:href="#ArialMT-35"/>
       <use xlink:href="#ArialMT-30" x="55.615234"/>
      </g>
     </g>
    </g>
    <g id="xtick_13">
     <g id="line2d_20">
      <path d="M 556.499026 268.689375 
L 556.499026 21.789375 
" clip-path="url(#p90daec07c1)" style="fill: none; stroke: #cccccc; stroke-width: 0.8; stroke-linecap: round"/>
     </g>
     <g id="text_22">
      <!-- 60 -->
      <g style="fill: #262626" transform="translate(550.938089 282.847188)scale(0.1 -0.1)">
       <use xlink:href="#ArialMT-36"/>
       <use xlink:href="#ArialMT-30" x="55.615234"/>
      </g>
     </g>
    </g>
    <g id="text_23">
     <!-- Missing monthly observations (%) -->
     <g style="fill: #262626" transform="translate(371.161719 296.114375)scale(0.1 -0.1)">
      <use xlink:href="#ArialMT-4d"/>
      <use xlink:href="#ArialMT-69" x="83.300781"/>
      <use xlink:href="#ArialMT-73" x="105.517578"/>
      <use xlink:href="#ArialMT-73" x="155.517578"/>
      <use xlink:href="#ArialMT-69" x="205.517578"/>
      <use xlink:href="#ArialMT-6e" x="227.734375"/>
      <use xlink:href="#ArialMT-67" x="283.349609"/>
      <use xlink:href="#ArialMT-20" x="338.964844"/>
      <use xlink:href="#ArialMT-6d" x="366.748047"/>
      <use xlink:href="#ArialMT-6f" x="450.048828"/>
      <use xlink:href="#ArialMT-6e" x="505.664062"/>
      <use xlink:href="#ArialMT-74" x="561.279297"/>
      <use xlink:href="#ArialMT-68" x="589.0625"/>
      <use xlink:href="#ArialMT-6c" x="644.677734"/>
      <use xlink:href="#ArialMT-79" x="666.894531"/>
      <use xlink:href="#ArialMT-20" x="716.894531"/>
      <use xlink:href="#ArialMT-6f" x="744.677734"/>
      <use xlink:href="#ArialMT-62" x="800.292969"/>
      <use xlink:href="#ArialMT-73" x="855.908203"/>
      <use xlink:href="#ArialMT-65" x="905.908203"/>
      <use xlink:href="#ArialMT-72" x="961.523438"/>
      <use xlink:href="#ArialMT-76" x="994.824219"/>
      <use xlink:href="#ArialMT-61" x="1044.824219"/>
      <use xlink:href="#ArialMT-74" x="1100.439453"/>
      <use xlink:href="#ArialMT-69" x="1128.222656"/>
      <use xlink:href="#ArialMT-6f" x="1150.439453"/>
      <use xlink:href="#ArialMT-6e" x="1206.054688"/>
      <use xlink:href="#ArialMT-73" x="1261.669922"/>
      <use xlink:href="#ArialMT-20" x="1311.669922"/>
      <use xlink:href="#ArialMT-28" x="1339.453125"/>
      <use xlink:href="#ArialMT-25" x="1372.753906"/>
      <use xlink:href="#ArialMT-29" x="1461.669922"/>
     </g>
    </g>
   </g>
   <g id="matplotlib.axis_4">
    <g id="ytick_6">
     <g id="line2d_21">
      <path d="M 323.10625 268.689375 
L 568.70625 268.689375 
" clip-path="url(#p90daec07c1)" style="fill: none; stroke: #cccccc; stroke-width: 0.8; stroke-linecap: round"/>
     </g>
     <g id="text_24">
      <!-- 0 -->
      <g style="fill: #262626" transform="translate(310.545313 272.268281)scale(0.1 -0.1)">
       <use xlink:href="#ArialMT-30"/>
      </g>
     </g>
    </g>
    <g id="ytick_7">
     <g id="line2d_22">
      <path d="M 323.10625 232.395586 
L 568.70625 232.395586 
" clip-path="url(#p90daec07c1)" style="fill: none; stroke: #cccccc; stroke-width: 0.8; stroke-linecap: round"/>
     </g>
     <g id="text_25">
      <!-- 5 -->
      <g style="fill: #262626" transform="translate(310.545313 235.974492)scale(0.1 -0.1)">
       <use xlink:href="#ArialMT-35"/>
      </g>
     </g>
    </g>
    <g id="ytick_8">
     <g id="line2d_23">
      <path d="M 323.10625 196.101797 
L 568.70625 196.101797 
" clip-path="url(#p90daec07c1)" style="fill: none; stroke: #cccccc; stroke-width: 0.8; stroke-linecap: round"/>
     </g>
     <g id="text_26">
      <!-- 10 -->
      <g style="fill: #262626" transform="translate(304.984375 199.680704)scale(0.1 -0.1)">
       <use xlink:href="#ArialMT-31"/>
       <use xlink:href="#ArialMT-30" x="55.615234"/>
      </g>
     </g>
    </g>
    <g id="ytick_9">
     <g id="line2d_24">
      <path d="M 323.10625 159.808009 
L 568.70625 159.808009 
" clip-path="url(#p90daec07c1)" style="fill: none; stroke: #cccccc; stroke-width: 0.8; stroke-linecap: round"/>
     </g>
     <g id="text_27">
      <!-- 15 -->
      <g style="fill: #262626" transform="translate(304.984375 163.386915)scale(0.1 -0.1)">
       <use xlink:href="#ArialMT-31"/>
       <use xlink:href="#ArialMT-35" x="55.615234"/>
      </g>
     </g>
    </g>
    <g id="ytick_10">
     <g id="line2d_25">
      <path d="M 323.10625 123.51422 
L 568.70625 123.51422 
" clip-path="url(#p90daec07c1)" style="fill: none; stroke: #cccccc; stroke-width: 0.8; stroke-linecap: round"/>
     </g>
     <g id="text_28">
      <!-- 20 -->
      <g style="fill: #262626" transform="translate(304.984375 127.093126)scale(0.1 -0.1)">
       <use xlink:href="#ArialMT-32"/>
       <use xlink:href="#ArialMT-30" x="55.615234"/>
      </g>
     </g>
    </g>
    <g id="ytick_11">
     <g id="line2d_26">
      <path d="M 323.10625 87.220431 
L 568.70625 87.220431 
" clip-path="url(#p90daec07c1)" style="fill: none; stroke: #cccccc; stroke-width: 0.8; stroke-linecap: round"/>
     </g>
     <g id="text_29">
      <!-- 25 -->
      <g style="fill: #262626" transform="translate(304.984375 90.799337)scale(0.1 -0.1)">
       <use xlink:href="#ArialMT-32"/>
       <use xlink:href="#ArialMT-35" x="55.615234"/>
      </g>
     </g>
    </g>
    <g id="ytick_12">
     <g id="line2d_27">
      <path d="M 323.10625 50.926642 
L 568.70625 50.926642 
" clip-path="url(#p90daec07c1)" style="fill: none; stroke: #cccccc; stroke-width: 0.8; stroke-linecap: round"/>
     </g>
     <g id="text_30">
      <!-- 30 -->
      <g style="fill: #262626" transform="translate(304.984375 54.505548)scale(0.1 -0.1)">
       <use xlink:href="#ArialMT-33"/>
       <use xlink:href="#ArialMT-30" x="55.615234"/>
      </g>
     </g>
    </g>
    <g id="text_31">
     <!-- Percentage of countries (%) -->
     <g style="fill: #262626" transform="translate(298.879688 207.210469)rotate(-90)scale(0.1 -0.1)">
      <use xlink:href="#ArialMT-50"/>
      <use xlink:href="#ArialMT-65" x="66.699219"/>
      <use xlink:href="#ArialMT-72" x="122.314453"/>
      <use xlink:href="#ArialMT-63" x="155.615234"/>
      <use xlink:href="#ArialMT-65" x="205.615234"/>
      <use xlink:href="#ArialMT-6e" x="261.230469"/>
      <use xlink:href="#ArialMT-74" x="316.845703"/>
      <use xlink:href="#ArialMT-61" x="344.628906"/>
      <use xlink:href="#ArialMT-67" x="400.244141"/>
      <use xlink:href="#ArialMT-65" x="455.859375"/>
      <use xlink:href="#ArialMT-20" x="511.474609"/>
      <use xlink:href="#ArialMT-6f" x="539.257812"/>
      <use xlink:href="#ArialMT-66" x="594.873047"/>
      <use xlink:href="#ArialMT-20" x="622.65625"/>
      <use xlink:href="#ArialMT-63" x="650.439453"/>
      <use xlink:href="#ArialMT-6f" x="700.439453"/>
      <use xlink:href="#ArialMT-75" x="756.054688"/>
      <use xlink:href="#ArialMT-6e" x="811.669922"/>
      <use xlink:href="#ArialMT-74" x="867.285156"/>
      <use xlink:href="#ArialMT-72" x="895.068359"/>
      <use xlink:href="#ArialMT-69" x="928.369141"/>
      <use xlink:href="#ArialMT-65" x="950.585938"/>
      <use xlink:href="#ArialMT-73" x="1006.201172"/>
      <use xlink:href="#ArialMT-20" x="1056.201172"/>
      <use xlink:href="#ArialMT-28" x="1083.984375"/>
      <use xlink:href="#ArialMT-25" x="1117.285156"/>
      <use xlink:href="#ArialMT-29" x="1206.201172"/>
     </g>
    </g>
   </g>
   <g id="patch_21">
    <path d="M 334.269886 268.689375 
L 352.875947 268.689375 
L 352.875947 263.577574 
L 334.269886 263.577574 
z
" clip-path="url(#p90daec07c1)" style="fill: #1f77b4; fill-opacity: 0.75; stroke: #ffffff; stroke-linejoin: miter"/>
   </g>
   <g id="patch_22">
    <path d="M 352.875947 268.689375 
L 371.482008 268.689375 
L 371.482008 156.229748 
L 352.875947 156.229748 
z
" clip-path="url(#p90daec07c1)" style="fill: #1f77b4; fill-opacity: 0.75; stroke: #ffffff; stroke-linejoin: miter"/>
   </g>
   <g id="patch_23">
    <path d="M 371.482008 268.689375 
L 390.088068 268.689375 
L 390.088068 33.546518 
L 371.482008 33.546518 
z
" clip-path="url(#p90daec07c1)" style="fill: #1f77b4; fill-opacity: 0.75; stroke: #ffffff; stroke-linejoin: miter"/>
   </g>
   <g id="patch_24">
    <path d="M 390.088068 268.689375 
L 408.694129 268.689375 
L 408.694129 186.900555 
L 390.088068 186.900555 
z
" clip-path="url(#p90daec07c1)" style="fill: #1f77b4; fill-opacity: 0.75; stroke: #ffffff; stroke-linejoin: miter"/>
   </g>
   <g id="patch_25">
    <path d="M 408.694129 268.689375 
L 427.300189 268.689375 
L 427.300189 248.24217 
L 408.694129 248.24217 
z
" clip-path="url(#p90daec07c1)" style="fill: #1f77b4; fill-opacity: 0.75; stroke: #ffffff; stroke-linejoin: miter"/>
   </g>
   <g id="patch_26">
    <path d="M 427.300189 268.689375 
L 445.90625 268.689375 
L 445.90625 48.881922 
L 427.300189 48.881922 
z
" clip-path="url(#p90daec07c1)" style="fill: #1f77b4; fill-opacity: 0.75; stroke: #ffffff; stroke-linejoin: miter"/>
   </g>
   <g id="patch_27">
    <path d="M 445.90625 268.689375 
L 464.512311 268.689375 
L 464.512311 227.794965 
L 445.90625 227.794965 
z
" clip-path="url(#p90daec07c1)" style="fill: #1f77b4; fill-opacity: 0.75; stroke: #ffffff; stroke-linejoin: miter"/>
   </g>
   <g id="patch_28">
    <path d="M 464.512311 268.689375 
L 483.118371 268.689375 
L 483.118371 263.577574 
L 464.512311 263.577574 
z
" clip-path="url(#p90daec07c1)" style="fill: #1f77b4; fill-opacity: 0.75; stroke: #ffffff; stroke-linejoin: miter"/>
   </g>
   <g id="patch_29">
    <path d="M 483.118371 268.689375 
L 501.724432 268.689375 
L 501.724432 268.689375 
L 483.118371 268.689375 
z
" clip-path="url(#p90daec07c1)" style="fill: #1f77b4; fill-opacity: 0.75; stroke: #ffffff; stroke-linejoin: miter"/>
   </g>
   <g id="patch_30">
    <path d="M 501.724432 268.689375 
L 520.330492 268.689375 
L 520.330492 268.689375 
L 501.724432 268.689375 
z
" clip-path="url(#p90daec07c1)" style="fill: #1f77b4; fill-opacity: 0.75; stroke: #ffffff; stroke-linejoin: miter"/>
   </g>
   <g id="patch_31">
    <path d="M 520.330492 268.689375 
L 538.936553 268.689375 
L 538.936553 268.689375 
L 520.330492 268.689375 
z
" clip-path="url(#p90daec07c1)" style="fill: #1f77b4; fill-opacity: 0.75; stroke: #ffffff; stroke-linejoin: miter"/>
   </g>
   <g id="patch_32">
    <path d="M 538.936553 268.689375 
L 557.542614 268.689375 
L 557.542614 263.577574 
L 538.936553 263.577574 
z
" clip-path="url(#p90daec07c1)" style="fill: #1f77b4; fill-opacity: 0.75; stroke: #ffffff; stroke-linejoin: miter"/>
   </g>
   <g id="line2d_28">
    <path d="M 403.017009 268.689375 
L 403.017009 21.789375 
" clip-path="url(#p90daec07c1)" style="fill: none; stroke: #ff0000; stroke-width: 1.5; stroke-linecap: round"/>
   </g>
   <g id="patch_33">
    <path d="M 323.10625 268.689375 
L 323.10625 21.789375 
" style="fill: none; stroke: #cccccc; stroke-width: 0.8; stroke-linejoin: miter; stroke-linecap: square"/>
   </g>
   <g id="patch_34">
    <path d="M 568.70625 268.689375 
L 568.70625 21.789375 
" style="fill: none; stroke: #cccccc; stroke-width: 0.8; stroke-linejoin: miter; stroke-linecap: square"/>
   </g>
   <g id="patch_35">
    <path d="M 323.10625 268.689375 
L 568.70625 268.689375 
" style="fill: none; stroke: #cccccc; stroke-width: 0.8; stroke-linejoin: miter; stroke-linecap: square"/>
   </g>
   <g id="patch_36">
    <path d="M 323.10625 21.789375 
L 568.70625 21.789375 
" style="fill: none; stroke: #cccccc; stroke-width: 0.8; stroke-linejoin: miter; stroke-linecap: square"/>
   </g>
   <g id="text_32">
    <!-- WB - World Development Indicators -->
    <g style="fill: #262626" transform="translate(350.651563 15.789375)scale(0.12 -0.12)">
     <defs>
      <path id="ArialMT-42" d="M 469 0 
L 469 4581 
L 2188 4581 
Q 2713 4581 3030 4442 
Q 3347 4303 3526 4014 
Q 3706 3725 3706 3409 
Q 3706 3116 3547 2856 
Q 3388 2597 3066 2438 
Q 3481 2316 3704 2022 
Q 3928 1728 3928 1328 
Q 3928 1006 3792 729 
Q 3656 453 3456 303 
Q 3256 153 2954 76 
Q 2653 0 2216 0 
L 469 0 
z
M 1075 2656 
L 2066 2656 
Q 2469 2656 2644 2709 
Q 2875 2778 2992 2937 
Q 3109 3097 3109 3338 
Q 3109 3566 3000 3739 
Q 2891 3913 2687 3977 
Q 2484 4041 1991 4041 
L 1075 4041 
L 1075 2656 
z
M 1075 541 
L 2216 541 
Q 2509 541 2628 563 
Q 2838 600 2978 687 
Q 3119 775 3209 942 
Q 3300 1109 3300 1328 
Q 3300 1584 3169 1773 
Q 3038 1963 2805 2039 
Q 2572 2116 2134 2116 
L 1075 2116 
L 1075 541 
z
" transform="scale(0.015625)"/>
      <path id="ArialMT-44" d="M 494 0 
L 494 4581 
L 2072 4581 
Q 2606 4581 2888 4516 
Q 3281 4425 3559 4188 
Q 3922 3881 4101 3404 
Q 4281 2928 4281 2316 
Q 4281 1794 4159 1391 
Q 4038 988 3847 723 
Q 3656 459 3429 307 
Q 3203 156 2883 78 
Q 2563 0 2147 0 
L 494 0 
z
M 1100 541 
L 2078 541 
Q 2531 541 2789 625 
Q 3047 709 3200 863 
Q 3416 1078 3536 1442 
Q 3656 1806 3656 2325 
Q 3656 3044 3420 3430 
Q 3184 3816 2847 3947 
Q 2603 4041 2063 4041 
L 1100 4041 
L 1100 541 
z
" transform="scale(0.015625)"/>
      <path id="ArialMT-70" d="M 422 -1272 
L 422 3319 
L 934 3319 
L 934 2888 
Q 1116 3141 1344 3267 
Q 1572 3394 1897 3394 
Q 2322 3394 2647 3175 
Q 2972 2956 3137 2557 
Q 3303 2159 3303 1684 
Q 3303 1175 3120 767 
Q 2938 359 2589 142 
Q 2241 -75 1856 -75 
Q 1575 -75 1351 44 
Q 1128 163 984 344 
L 984 -1272 
L 422 -1272 
z
M 931 1641 
Q 931 1000 1190 694 
Q 1450 388 1819 388 
Q 2194 388 2461 705 
Q 2728 1022 2728 1688 
Q 2728 2322 2467 2637 
Q 2206 2953 1844 2953 
Q 1484 2953 1207 2617 
Q 931 2281 931 1641 
z
" transform="scale(0.015625)"/>
     </defs>
     <use xlink:href="#ArialMT-57"/>
     <use xlink:href="#ArialMT-42" x="94.384766"/>
     <use xlink:href="#ArialMT-20" x="161.083984"/>
     <use xlink:href="#ArialMT-2d" x="188.867188"/>
     <use xlink:href="#ArialMT-20" x="222.167969"/>
     <use xlink:href="#ArialMT-57" x="249.951172"/>
     <use xlink:href="#ArialMT-6f" x="342.585938"/>
     <use xlink:href="#ArialMT-72" x="398.201172"/>
     <use xlink:href="#ArialMT-6c" x="431.501953"/>
     <use xlink:href="#ArialMT-64" x="453.71875"/>
     <use xlink:href="#ArialMT-20" x="509.333984"/>
     <use xlink:href="#ArialMT-44" x="537.117188"/>
     <use xlink:href="#ArialMT-65" x="609.333984"/>
     <use xlink:href="#ArialMT-76" x="664.949219"/>
     <use xlink:href="#ArialMT-65" x="714.949219"/>
     <use xlink:href="#ArialMT-6c" x="770.564453"/>
     <use xlink:href="#ArialMT-6f" x="792.78125"/>
     <use xlink:href="#ArialMT-70" x="848.396484"/>
     <use xlink:href="#ArialMT-6d" x="904.011719"/>
     <use xlink:href="#ArialMT-65" x="987.3125"/>
     <use xlink:href="#ArialMT-6e" x="1042.927734"/>
     <use xlink:href="#ArialMT-74" x="1098.542969"/>
     <use xlink:href="#ArialMT-20" x="1126.326172"/>
     <use xlink:href="#ArialMT-49" x="1154.109375"/>
     <use xlink:href="#ArialMT-6e" x="1181.892578"/>
     <use xlink:href="#ArialMT-64" x="1237.507812"/>
     <use xlink:href="#ArialMT-69" x="1293.123047"/>
     <use xlink:href="#ArialMT-63" x="1315.339844"/>
     <use xlink:href="#ArialMT-61" x="1365.339844"/>
     <use xlink:href="#ArialMT-74" x="1420.955078"/>
     <use xlink:href="#ArialMT-6f" x="1448.738281"/>
     <use xlink:href="#ArialMT-72" x="1504.353516"/>
     <use xlink:href="#ArialMT-73" x="1537.654297"/>
    </g>
   </g>
   <g id="legend_2">
    <g id="patch_37">
     <path d="M 465.223438 43.934687 
L 561.70625 43.934687 
Q 563.70625 43.934687 563.70625 41.934687 
L 563.70625 28.789375 
Q 563.70625 26.789375 561.70625 26.789375 
L 465.223438 26.789375 
Q 463.223438 26.789375 463.223438 28.789375 
L 463.223438 41.934687 
Q 463.223438 43.934687 465.223438 43.934687 
z
" style="fill: #ffffff; opacity: 0.8; stroke: #cccccc; stroke-linejoin: miter"/>
    </g>
    <g id="line2d_29">
     <path d="M 467.223438 34.447187 
L 477.223438 34.447187 
L 487.223438 34.447187 
" style="fill: none; stroke: #ff0000; stroke-width: 1.5; stroke-linecap: round"/>
    </g>
    <g id="text_33">
     <!-- mean: 22.20% -->
     <g style="fill: #262626" transform="translate(495.223438 37.947187)scale(0.1 -0.1)">
      <use xlink:href="#ArialMT-6d"/>
      <use xlink:href="#ArialMT-65" x="83.300781"/>
      <use xlink:href="#ArialMT-61" x="138.916016"/>
      <use xlink:href="#ArialMT-6e" x="194.53125"/>
      <use xlink:href="#ArialMT-3a" x="250.146484"/>
      <use xlink:href="#ArialMT-20" x="277.929688"/>
      <use xlink:href="#ArialMT-32" x="305.712891"/>
      <use xlink:href="#ArialMT-32" x="361.328125"/>
      <use xlink:href="#ArialMT-2e" x="416.943359"/>
      <use xlink:href="#ArialMT-32" x="444.726562"/>
      <use xlink:href="#ArialMT-30" x="500.341797"/>
      <use xlink:href="#ArialMT-25" x="555.957031"/>
     </g>
    </g>
   </g>
  </g>
  <g id="axes_3">
   <g id="patch_38">
    <path d="M 607.50625 268.689375 
L 853.10625 268.689375 
L 853.10625 21.789375 
L 607.50625 21.789375 
z
" style="fill: #ffffff"/>
   </g>
   <g id="matplotlib.axis_5">
    <g id="xtick_14">
     <g id="line2d_30">
      <path d="M 618.669886 268.689375 
L 618.669886 21.789375 
" clip-path="url(#pbf86b42d86)" style="fill: none; stroke: #cccccc; stroke-width: 0.8; stroke-linecap: round"/>
     </g>
     <g id="text_34">
      <!-- 0 -->
      <g style="fill: #262626" transform="translate(615.889418 282.847188)scale(0.1 -0.1)">
       <use xlink:href="#ArialMT-30"/>
      </g>
     </g>
    </g>
    <g id="xtick_15">
     <g id="line2d_31">
      <path d="M 679.085464 268.689375 
L 679.085464 21.789375 
" clip-path="url(#pbf86b42d86)" style="fill: none; stroke: #cccccc; stroke-width: 0.8; stroke-linecap: round"/>
     </g>
     <g id="text_35">
      <!-- 10 -->
      <g style="fill: #262626" transform="translate(673.524527 282.847188)scale(0.1 -0.1)">
       <use xlink:href="#ArialMT-31"/>
       <use xlink:href="#ArialMT-30" x="55.615234"/>
      </g>
     </g>
    </g>
    <g id="xtick_16">
     <g id="line2d_32">
      <path d="M 739.501042 268.689375 
L 739.501042 21.789375 
" clip-path="url(#pbf86b42d86)" style="fill: none; stroke: #cccccc; stroke-width: 0.8; stroke-linecap: round"/>
     </g>
     <g id="text_36">
      <!-- 20 -->
      <g style="fill: #262626" transform="translate(733.940105 282.847188)scale(0.1 -0.1)">
       <use xlink:href="#ArialMT-32"/>
       <use xlink:href="#ArialMT-30" x="55.615234"/>
      </g>
     </g>
    </g>
    <g id="xtick_17">
     <g id="line2d_33">
      <path d="M 799.91662 268.689375 
L 799.91662 21.789375 
" clip-path="url(#pbf86b42d86)" style="fill: none; stroke: #cccccc; stroke-width: 0.8; stroke-linecap: round"/>
     </g>
     <g id="text_37">
      <!-- 30 -->
      <g style="fill: #262626" transform="translate(794.355683 282.847188)scale(0.1 -0.1)">
       <use xlink:href="#ArialMT-33"/>
       <use xlink:href="#ArialMT-30" x="55.615234"/>
      </g>
     </g>
    </g>
    <g id="text_38">
     <!-- Missing monthly observations (%) -->
     <g style="fill: #262626" transform="translate(655.561719 296.114375)scale(0.1 -0.1)">
      <use xlink:href="#ArialMT-4d"/>
      <use xlink:href="#ArialMT-69" x="83.300781"/>
      <use xlink:href="#ArialMT-73" x="105.517578"/>
      <use xlink:href="#ArialMT-73" x="155.517578"/>
      <use xlink:href="#ArialMT-69" x="205.517578"/>
      <use xlink:href="#ArialMT-6e" x="227.734375"/>
      <use xlink:href="#ArialMT-67" x="283.349609"/>
      <use xlink:href="#ArialMT-20" x="338.964844"/>
      <use xlink:href="#ArialMT-6d" x="366.748047"/>
      <use xlink:href="#ArialMT-6f" x="450.048828"/>
      <use xlink:href="#ArialMT-6e" x="505.664062"/>
      <use xlink:href="#ArialMT-74" x="561.279297"/>
      <use xlink:href="#ArialMT-68" x="589.0625"/>
      <use xlink:href="#ArialMT-6c" x="644.677734"/>
      <use xlink:href="#ArialMT-79" x="666.894531"/>
      <use xlink:href="#ArialMT-20" x="716.894531"/>
      <use xlink:href="#ArialMT-6f" x="744.677734"/>
      <use xlink:href="#ArialMT-62" x="800.292969"/>
      <use xlink:href="#ArialMT-73" x="855.908203"/>
      <use xlink:href="#ArialMT-65" x="905.908203"/>
      <use xlink:href="#ArialMT-72" x="961.523438"/>
      <use xlink:href="#ArialMT-76" x="994.824219"/>
      <use xlink:href="#ArialMT-61" x="1044.824219"/>
      <use xlink:href="#ArialMT-74" x="1100.439453"/>
      <use xlink:href="#ArialMT-69" x="1128.222656"/>
      <use xlink:href="#ArialMT-6f" x="1150.439453"/>
      <use xlink:href="#ArialMT-6e" x="1206.054688"/>
      <use xlink:href="#ArialMT-73" x="1261.669922"/>
      <use xlink:href="#ArialMT-20" x="1311.669922"/>
      <use xlink:href="#ArialMT-28" x="1339.453125"/>
      <use xlink:href="#ArialMT-25" x="1372.753906"/>
      <use xlink:href="#ArialMT-29" x="1461.669922"/>
     </g>
    </g>
   </g>
   <g id="matplotlib.axis_6">
    <g id="ytick_13">
     <g id="line2d_34">
      <path d="M 607.50625 268.689375 
L 853.10625 268.689375 
" clip-path="url(#pbf86b42d86)" style="fill: none; stroke: #cccccc; stroke-width: 0.8; stroke-linecap: round"/>
     </g>
     <g id="text_39">
      <!-- 0 -->
      <g style="fill: #262626" transform="translate(594.945312 272.268281)scale(0.1 -0.1)">
       <use xlink:href="#ArialMT-30"/>
      </g>
     </g>
    </g>
    <g id="ytick_14">
     <g id="line2d_35">
      <path d="M 607.50625 221.660804 
L 853.10625 221.660804 
" clip-path="url(#pbf86b42d86)" style="fill: none; stroke: #cccccc; stroke-width: 0.8; stroke-linecap: round"/>
     </g>
     <g id="text_40">
      <!-- 5 -->
      <g style="fill: #262626" transform="translate(594.945312 225.23971)scale(0.1 -0.1)">
       <use xlink:href="#ArialMT-35"/>
      </g>
     </g>
    </g>
    <g id="ytick_15">
     <g id="line2d_36">
      <path d="M 607.50625 174.632232 
L 853.10625 174.632232 
" clip-path="url(#pbf86b42d86)" style="fill: none; stroke: #cccccc; stroke-width: 0.8; stroke-linecap: round"/>
     </g>
     <g id="text_41">
      <!-- 10 -->
      <g style="fill: #262626" transform="translate(589.384375 178.211138)scale(0.1 -0.1)">
       <use xlink:href="#ArialMT-31"/>
       <use xlink:href="#ArialMT-30" x="55.615234"/>
      </g>
     </g>
    </g>
    <g id="ytick_16">
     <g id="line2d_37">
      <path d="M 607.50625 127.603661 
L 853.10625 127.603661 
" clip-path="url(#pbf86b42d86)" style="fill: none; stroke: #cccccc; stroke-width: 0.8; stroke-linecap: round"/>
     </g>
     <g id="text_42">
      <!-- 15 -->
      <g style="fill: #262626" transform="translate(589.384375 131.182567)scale(0.1 -0.1)">
       <use xlink:href="#ArialMT-31"/>
       <use xlink:href="#ArialMT-35" x="55.615234"/>
      </g>
     </g>
    </g>
    <g id="ytick_17">
     <g id="line2d_38">
      <path d="M 607.50625 80.575089 
L 853.10625 80.575089 
" clip-path="url(#pbf86b42d86)" style="fill: none; stroke: #cccccc; stroke-width: 0.8; stroke-linecap: round"/>
     </g>
     <g id="text_43">
      <!-- 20 -->
      <g style="fill: #262626" transform="translate(589.384375 84.153996)scale(0.1 -0.1)">
       <use xlink:href="#ArialMT-32"/>
       <use xlink:href="#ArialMT-30" x="55.615234"/>
      </g>
     </g>
    </g>
    <g id="ytick_18">
     <g id="line2d_39">
      <path d="M 607.50625 33.546518 
L 853.10625 33.546518 
" clip-path="url(#pbf86b42d86)" style="fill: none; stroke: #cccccc; stroke-width: 0.8; stroke-linecap: round"/>
     </g>
     <g id="text_44">
      <!-- 25 -->
      <g style="fill: #262626" transform="translate(589.384375 37.125424)scale(0.1 -0.1)">
       <use xlink:href="#ArialMT-32"/>
       <use xlink:href="#ArialMT-35" x="55.615234"/>
      </g>
     </g>
    </g>
    <g id="text_45">
     <!-- Percentage of countries (%) -->
     <g style="fill: #262626" transform="translate(583.279688 207.210469)rotate(-90)scale(0.1 -0.1)">
      <use xlink:href="#ArialMT-50"/>
      <use xlink:href="#ArialMT-65" x="66.699219"/>
      <use xlink:href="#ArialMT-72" x="122.314453"/>
      <use xlink:href="#ArialMT-63" x="155.615234"/>
      <use xlink:href="#ArialMT-65" x="205.615234"/>
      <use xlink:href="#ArialMT-6e" x="261.230469"/>
      <use xlink:href="#ArialMT-74" x="316.845703"/>
      <use xlink:href="#ArialMT-61" x="344.628906"/>
      <use xlink:href="#ArialMT-67" x="400.244141"/>
      <use xlink:href="#ArialMT-65" x="455.859375"/>
      <use xlink:href="#ArialMT-20" x="511.474609"/>
      <use xlink:href="#ArialMT-6f" x="539.257812"/>
      <use xlink:href="#ArialMT-66" x="594.873047"/>
      <use xlink:href="#ArialMT-20" x="622.65625"/>
      <use xlink:href="#ArialMT-63" x="650.439453"/>
      <use xlink:href="#ArialMT-6f" x="700.439453"/>
      <use xlink:href="#ArialMT-75" x="756.054688"/>
      <use xlink:href="#ArialMT-6e" x="811.669922"/>
      <use xlink:href="#ArialMT-74" x="867.285156"/>
      <use xlink:href="#ArialMT-72" x="895.068359"/>
      <use xlink:href="#ArialMT-69" x="928.369141"/>
      <use xlink:href="#ArialMT-65" x="950.585938"/>
      <use xlink:href="#ArialMT-73" x="1006.201172"/>
      <use xlink:href="#ArialMT-20" x="1056.201172"/>
      <use xlink:href="#ArialMT-28" x="1083.984375"/>
      <use xlink:href="#ArialMT-25" x="1117.285156"/>
      <use xlink:href="#ArialMT-29" x="1206.201172"/>
     </g>
    </g>
   </g>
   <g id="patch_39">
    <path d="M 618.669886 268.689375 
L 637.275947 268.689375 
L 637.275947 249.094137 
L 618.669886 249.094137 
z
" clip-path="url(#pbf86b42d86)" style="fill: #1f77b4; fill-opacity: 0.75; stroke: #ffffff; stroke-linejoin: miter"/>
   </g>
   <g id="patch_40">
    <path d="M 637.275947 268.689375 
L 655.882008 268.689375 
L 655.882008 209.903661 
L 637.275947 209.903661 
z
" clip-path="url(#pbf86b42d86)" style="fill: #1f77b4; fill-opacity: 0.75; stroke: #ffffff; stroke-linejoin: miter"/>
   </g>
   <g id="patch_41">
    <path d="M 655.882008 268.689375 
L 674.488068 268.689375 
L 674.488068 33.546518 
L 655.882008 33.546518 
z
" clip-path="url(#pbf86b42d86)" style="fill: #1f77b4; fill-opacity: 0.75; stroke: #ffffff; stroke-linejoin: miter"/>
   </g>
   <g id="patch_42">
    <path d="M 674.488068 268.689375 
L 693.094129 268.689375 
L 693.094129 92.332232 
L 674.488068 92.332232 
z
" clip-path="url(#pbf86b42d86)" style="fill: #1f77b4; fill-opacity: 0.75; stroke: #ffffff; stroke-linejoin: miter"/>
   </g>
   <g id="patch_43">
    <path d="M 693.094129 268.689375 
L 711.700189 268.689375 
L 711.700189 72.736994 
L 693.094129 72.736994 
z
" clip-path="url(#pbf86b42d86)" style="fill: #1f77b4; fill-opacity: 0.75; stroke: #ffffff; stroke-linejoin: miter"/>
   </g>
   <g id="patch_44">
    <path d="M 711.700189 268.689375 
L 730.30625 268.689375 
L 730.30625 190.308423 
L 711.700189 190.308423 
z
" clip-path="url(#pbf86b42d86)" style="fill: #1f77b4; fill-opacity: 0.75; stroke: #ffffff; stroke-linejoin: miter"/>
   </g>
   <g id="patch_45">
    <path d="M 730.30625 268.689375 
L 748.912311 268.689375 
L 748.912311 177.244931 
L 730.30625 177.244931 
z
" clip-path="url(#pbf86b42d86)" style="fill: #1f77b4; fill-opacity: 0.75; stroke: #ffffff; stroke-linejoin: miter"/>
   </g>
   <g id="patch_46">
    <path d="M 748.912311 268.689375 
L 767.518371 268.689375 
L 767.518371 222.967153 
L 748.912311 222.967153 
z
" clip-path="url(#pbf86b42d86)" style="fill: #1f77b4; fill-opacity: 0.75; stroke: #ffffff; stroke-linejoin: miter"/>
   </g>
   <g id="patch_47">
    <path d="M 767.518371 268.689375 
L 786.124432 268.689375 
L 786.124432 242.562391 
L 767.518371 242.562391 
z
" clip-path="url(#pbf86b42d86)" style="fill: #1f77b4; fill-opacity: 0.75; stroke: #ffffff; stroke-linejoin: miter"/>
   </g>
   <g id="patch_48">
    <path d="M 786.124432 268.689375 
L 804.730492 268.689375 
L 804.730492 262.157629 
L 786.124432 262.157629 
z
" clip-path="url(#pbf86b42d86)" style="fill: #1f77b4; fill-opacity: 0.75; stroke: #ffffff; stroke-linejoin: miter"/>
   </g>
   <g id="patch_49">
    <path d="M 804.730492 268.689375 
L 823.336553 268.689375 
L 823.336553 268.689375 
L 804.730492 268.689375 
z
" clip-path="url(#pbf86b42d86)" style="fill: #1f77b4; fill-opacity: 0.75; stroke: #ffffff; stroke-linejoin: miter"/>
   </g>
   <g id="patch_50">
    <path d="M 823.336553 268.689375 
L 841.942614 268.689375 
L 841.942614 262.157629 
L 823.336553 262.157629 
z
" clip-path="url(#pbf86b42d86)" style="fill: #1f77b4; fill-opacity: 0.75; stroke: #ffffff; stroke-linejoin: miter"/>
   </g>
   <g id="line2d_40">
    <path d="M 696.570091 268.689375 
L 696.570091 21.789375 
" clip-path="url(#pbf86b42d86)" style="fill: none; stroke: #ff0000; stroke-width: 1.5; stroke-linecap: round"/>
   </g>
   <g id="patch_51">
    <path d="M 607.50625 268.689375 
L 607.50625 21.789375 
" style="fill: none; stroke: #cccccc; stroke-width: 0.8; stroke-linejoin: miter; stroke-linecap: square"/>
   </g>
   <g id="patch_52">
    <path d="M 853.10625 268.689375 
L 853.10625 21.789375 
" style="fill: none; stroke: #cccccc; stroke-width: 0.8; stroke-linejoin: miter; stroke-linecap: square"/>
   </g>
   <g id="patch_53">
    <path d="M 607.50625 268.689375 
L 853.10625 268.689375 
" style="fill: none; stroke: #cccccc; stroke-width: 0.8; stroke-linejoin: miter; stroke-linecap: square"/>
   </g>
   <g id="patch_54">
    <path d="M 607.50625 21.789375 
L 853.10625 21.789375 
" style="fill: none; stroke: #cccccc; stroke-width: 0.8; stroke-linejoin: miter; stroke-linecap: square"/>
   </g>
   <g id="text_46">
    <!-- IMF &amp; World Bank Indicators -->
    <g style="fill: #262626" transform="translate(654.058438 15.789375)scale(0.12 -0.12)">
     <defs>
      <path id="ArialMT-26" d="M 3041 541 
Q 2763 231 2434 76 
Q 2106 -78 1725 -78 
Q 1022 -78 609 397 
Q 275 784 275 1263 
Q 275 1688 548 2030 
Q 822 2372 1366 2631 
Q 1056 2988 953 3209 
Q 850 3431 850 3638 
Q 850 4050 1173 4354 
Q 1497 4659 1988 4659 
Q 2456 4659 2754 4371 
Q 3053 4084 3053 3681 
Q 3053 3028 2188 2566 
L 3009 1519 
Q 3150 1794 3228 2156 
L 3813 2031 
Q 3663 1431 3406 1044 
Q 3722 625 4122 341 
L 3744 -106 
Q 3403 113 3041 541 
z
M 1897 2928 
Q 2263 3144 2370 3306 
Q 2478 3469 2478 3666 
Q 2478 3900 2329 4048 
Q 2181 4197 1959 4197 
Q 1731 4197 1579 4050 
Q 1428 3903 1428 3691 
Q 1428 3584 1483 3467 
Q 1538 3350 1647 3219 
L 1897 2928 
z
M 2688 984 
L 1656 2263 
Q 1200 1991 1040 1758 
Q 881 1525 881 1297 
Q 881 1019 1103 719 
Q 1325 419 1731 419 
Q 1984 419 2254 576 
Q 2525 734 2688 984 
z
" transform="scale(0.015625)"/>
     </defs>
     <use xlink:href="#ArialMT-49"/>
     <use xlink:href="#ArialMT-4d" x="27.783203"/>
     <use xlink:href="#ArialMT-46" x="111.083984"/>
     <use xlink:href="#ArialMT-20" x="172.167969"/>
     <use xlink:href="#ArialMT-26" x="199.951172"/>
     <use xlink:href="#ArialMT-20" x="266.650391"/>
     <use xlink:href="#ArialMT-57" x="294.433594"/>
     <use xlink:href="#ArialMT-6f" x="387.068359"/>
     <use xlink:href="#ArialMT-72" x="442.683594"/>
     <use xlink:href="#ArialMT-6c" x="475.984375"/>
     <use xlink:href="#ArialMT-64" x="498.201172"/>
     <use xlink:href="#ArialMT-20" x="553.816406"/>
     <use xlink:href="#ArialMT-42" x="581.599609"/>
     <use xlink:href="#ArialMT-61" x="648.298828"/>
     <use xlink:href="#ArialMT-6e" x="703.914062"/>
     <use xlink:href="#ArialMT-6b" x="759.529297"/>
     <use xlink:href="#ArialMT-20" x="809.529297"/>
     <use xlink:href="#ArialMT-49" x="837.3125"/>
     <use xlink:href="#ArialMT-6e" x="865.095703"/>
     <use xlink:href="#ArialMT-64" x="920.710938"/>
     <use xlink:href="#ArialMT-69" x="976.326172"/>
     <use xlink:href="#ArialMT-63" x="998.542969"/>
     <use xlink:href="#ArialMT-61" x="1048.542969"/>
     <use xlink:href="#ArialMT-74" x="1104.158203"/>
     <use xlink:href="#ArialMT-6f" x="1131.941406"/>
     <use xlink:href="#ArialMT-72" x="1187.556641"/>
     <use xlink:href="#ArialMT-73" x="1220.857422"/>
    </g>
   </g>
   <g id="legend_3">
    <g id="patch_55">
     <path d="M 749.623438 43.934687 
L 846.10625 43.934687 
Q 848.10625 43.934687 848.10625 41.934687 
L 848.10625 28.789375 
Q 848.10625 26.789375 846.10625 26.789375 
L 749.623438 26.789375 
Q 747.623438 26.789375 747.623438 28.789375 
L 747.623438 41.934687 
Q 747.623438 43.934687 749.623438 43.934687 
z
" style="fill: #ffffff; opacity: 0.8; stroke: #cccccc; stroke-linejoin: miter"/>
    </g>
    <g id="line2d_41">
     <path d="M 751.623438 34.447187 
L 761.623438 34.447187 
L 771.623438 34.447187 
" style="fill: none; stroke: #ff0000; stroke-width: 1.5; stroke-linecap: round"/>
    </g>
    <g id="text_47">
     <!-- mean: 12.89% -->
     <g style="fill: #262626" transform="translate(779.623438 37.947187)scale(0.1 -0.1)">
      <use xlink:href="#ArialMT-6d"/>
      <use xlink:href="#ArialMT-65" x="83.300781"/>
      <use xlink:href="#ArialMT-61" x="138.916016"/>
      <use xlink:href="#ArialMT-6e" x="194.53125"/>
      <use xlink:href="#ArialMT-3a" x="250.146484"/>
      <use xlink:href="#ArialMT-20" x="277.929688"/>
      <use xlink:href="#ArialMT-31" x="305.712891"/>
      <use xlink:href="#ArialMT-32" x="361.328125"/>
      <use xlink:href="#ArialMT-2e" x="416.943359"/>
      <use xlink:href="#ArialMT-38" x="444.726562"/>
      <use xlink:href="#ArialMT-39" x="500.341797"/>
      <use xlink:href="#ArialMT-25" x="555.957031"/>
     </g>
    </g>
   </g>
  </g>
 </g>
 <defs>
  <clipPath id="p95d72dcf6e">
   <rect x="38.70625" y="21.789375" width="245.6" height="246.9"/>
  </clipPath>
  <clipPath id="p90daec07c1">
   <rect x="323.10625" y="21.789375" width="245.6" height="246.9"/>
  </clipPath>
  <clipPath id="pbf86b42d86">
   <rect x="607.50625" y="21.789375" width="245.6" height="246.9"/>
  </clipPath>
 </defs>
</svg>
