<?xml version="1.0" encoding="utf-8" standalone="no"?>
<!DOCTYPE svg PUBLIC "-//W3C//DTD SVG 1.1//EN"
  "http://www.w3.org/Graphics/SVG/1.1/DTD/svg11.dtd">
<svg xmlns:xlink="http://www.w3.org/1999/xlink" width="350.843437pt" height="266.142969pt" viewBox="0 0 350.843437 266.142969" xmlns="http://www.w3.org/2000/svg" version="1.1">
 <metadata>
  <rdf:RDF xmlns:dc="http://purl.org/dc/elements/1.1/" xmlns:cc="http://creativecommons.org/ns#" xmlns:rdf="http://www.w3.org/1999/02/22-rdf-syntax-ns#">
   <cc:Work>
    <dc:type rdf:resource="http://purl.org/dc/dcmitype/StillImage"/>
    <dc:date>2022-11-05T14:55:48.460264</dc:date>
    <dc:format>image/svg+xml</dc:format>
    <dc:creator>
     <cc:Agent>
      <dc:title>Matplotlib v3.5.1, https://matplotlib.org/</dc:title>
     </cc:Agent>
    </dc:creator>
   </cc:Work>
  </rdf:RDF>
 </metadata>
 <defs>
  <style type="text/css">*{stroke-linejoin: round; stroke-linecap: butt}</style>
 </defs>
 <g id="figure_1">
  <g id="patch_1">
   <path d="M 0 266.142969 
L 350.843437 266.142969 
L 350.843437 0 
L 0 0 
z
" style="fill: #ffffff"/>
  </g>
  <g id="axes_1">
   <g id="patch_2">
    <path d="M 120.443438 239.383125 
L 343.643438 239.383125 
L 343.643438 21.943125 
L 120.443438 21.943125 
z
" style="fill: #eaeaf2"/>
   </g>
   <g id="matplotlib.axis_1">
    <g id="xtick_1">
     <g id="text_1">
      <!-- TADDA -->
      <g style="fill: #262626" transform="translate(139.408359 256.756719)scale(0.11 -0.11)">
       <defs>
        <path id="ArialMT-54" d="M 1659 0 
L 1659 4041 
L 150 4041 
L 150 4581 
L 3781 4581 
L 3781 4041 
L 2266 4041 
L 2266 0 
L 1659 0 
z
" transform="scale(0.015625)"/>
        <path id="ArialMT-41" d="M -9 0 
L 1750 4581 
L 2403 4581 
L 4278 0 
L 3588 0 
L 3053 1388 
L 1138 1388 
L 634 0 
L -9 0 
z
M 1313 1881 
L 2866 1881 
L 2388 3150 
Q 2169 3728 2063 4100 
Q 1975 3659 1816 3225 
L 1313 1881 
z
" transform="scale(0.015625)"/>
        <path id="ArialMT-44" d="M 494 0 
L 494 4581 
L 2072 4581 
Q 2606 4581 2888 4516 
Q 3281 4425 3559 4188 
Q 3922 3881 4101 3404 
Q 4281 2928 4281 2316 
Q 4281 1794 4159 1391 
Q 4038 988 3847 723 
Q 3656 459 3429 307 
Q 3203 156 2883 78 
Q 2563 0 2147 0 
L 494 0 
z
M 1100 541 
L 2078 541 
Q 2531 541 2789 625 
Q 3047 709 3200 863 
Q 3416 1078 3536 1442 
Q 3656 1806 3656 2325 
Q 3656 3044 3420 3430 
Q 3184 3816 2847 3947 
Q 2603 4041 2063 4041 
L 1100 4041 
L 1100 541 
z
" transform="scale(0.015625)"/>
       </defs>
       <use xlink:href="#ArialMT-54"/>
       <use xlink:href="#ArialMT-41" x="53.708984"/>
       <use xlink:href="#ArialMT-44" x="120.408203"/>
       <use xlink:href="#ArialMT-44" x="192.625"/>
       <use xlink:href="#ArialMT-41" x="264.841797"/>
      </g>
     </g>
    </g>
    <g id="xtick_2">
     <g id="text_2">
      <!-- MAE -->
      <g style="fill: #262626" transform="translate(220.124766 256.756719)scale(0.11 -0.11)">
       <defs>
        <path id="ArialMT-4d" d="M 475 0 
L 475 4581 
L 1388 4581 
L 2472 1338 
Q 2622 884 2691 659 
Q 2769 909 2934 1394 
L 4031 4581 
L 4847 4581 
L 4847 0 
L 4263 0 
L 4263 3834 
L 2931 0 
L 2384 0 
L 1059 3900 
L 1059 0 
L 475 0 
z
" transform="scale(0.015625)"/>
        <path id="ArialMT-45" d="M 506 0 
L 506 4581 
L 3819 4581 
L 3819 4041 
L 1113 4041 
L 1113 2638 
L 3647 2638 
L 3647 2100 
L 1113 2100 
L 1113 541 
L 3925 541 
L 3925 0 
L 506 0 
z
" transform="scale(0.015625)"/>
       </defs>
       <use xlink:href="#ArialMT-4d"/>
       <use xlink:href="#ArialMT-41" x="83.300781"/>
       <use xlink:href="#ArialMT-45" x="150"/>
      </g>
     </g>
    </g>
    <g id="xtick_3">
     <g id="text_3">
      <!-- RMSE -->
      <g style="fill: #262626" transform="translate(290.552734 256.756719)scale(0.11 -0.11)">
       <defs>
        <path id="ArialMT-52" d="M 503 0 
L 503 4581 
L 2534 4581 
Q 3147 4581 3465 4457 
Q 3784 4334 3975 4021 
Q 4166 3709 4166 3331 
Q 4166 2844 3850 2509 
Q 3534 2175 2875 2084 
Q 3116 1969 3241 1856 
Q 3506 1613 3744 1247 
L 4541 0 
L 3778 0 
L 3172 953 
Q 2906 1366 2734 1584 
Q 2563 1803 2427 1890 
Q 2291 1978 2150 2013 
Q 2047 2034 1813 2034 
L 1109 2034 
L 1109 0 
L 503 0 
z
M 1109 2559 
L 2413 2559 
Q 2828 2559 3062 2645 
Q 3297 2731 3419 2920 
Q 3541 3109 3541 3331 
Q 3541 3656 3305 3865 
Q 3069 4075 2559 4075 
L 1109 4075 
L 1109 2559 
z
" transform="scale(0.015625)"/>
        <path id="ArialMT-53" d="M 288 1472 
L 859 1522 
Q 900 1178 1048 958 
Q 1197 738 1509 602 
Q 1822 466 2213 466 
Q 2559 466 2825 569 
Q 3091 672 3220 851 
Q 3350 1031 3350 1244 
Q 3350 1459 3225 1620 
Q 3100 1781 2813 1891 
Q 2628 1963 1997 2114 
Q 1366 2266 1113 2400 
Q 784 2572 623 2826 
Q 463 3081 463 3397 
Q 463 3744 659 4045 
Q 856 4347 1234 4503 
Q 1613 4659 2075 4659 
Q 2584 4659 2973 4495 
Q 3363 4331 3572 4012 
Q 3781 3694 3797 3291 
L 3216 3247 
Q 3169 3681 2898 3903 
Q 2628 4125 2100 4125 
Q 1550 4125 1298 3923 
Q 1047 3722 1047 3438 
Q 1047 3191 1225 3031 
Q 1400 2872 2139 2705 
Q 2878 2538 3153 2413 
Q 3553 2228 3743 1945 
Q 3934 1663 3934 1294 
Q 3934 928 3725 604 
Q 3516 281 3123 101 
Q 2731 -78 2241 -78 
Q 1619 -78 1198 103 
Q 778 284 539 648 
Q 300 1013 288 1472 
z
" transform="scale(0.015625)"/>
       </defs>
       <use xlink:href="#ArialMT-52"/>
       <use xlink:href="#ArialMT-4d" x="72.216797"/>
       <use xlink:href="#ArialMT-53" x="155.517578"/>
       <use xlink:href="#ArialMT-45" x="222.216797"/>
      </g>
     </g>
    </g>
   </g>
   <g id="matplotlib.axis_2">
    <g id="ytick_1">
     <g id="text_4">
      <!-- NO_CONFLICT -->
      <g style="fill: #262626" transform="translate(33.328125 61.097266)scale(0.11 -0.11)">
       <defs>
        <path id="ArialMT-4e" d="M 488 0 
L 488 4581 
L 1109 4581 
L 3516 984 
L 3516 4581 
L 4097 4581 
L 4097 0 
L 3475 0 
L 1069 3600 
L 1069 0 
L 488 0 
z
" transform="scale(0.015625)"/>
        <path id="ArialMT-4f" d="M 309 2231 
Q 309 3372 921 4017 
Q 1534 4663 2503 4663 
Q 3138 4663 3647 4359 
Q 4156 4056 4423 3514 
Q 4691 2972 4691 2284 
Q 4691 1588 4409 1038 
Q 4128 488 3612 205 
Q 3097 -78 2500 -78 
Q 1853 -78 1343 234 
Q 834 547 571 1087 
Q 309 1628 309 2231 
z
M 934 2222 
Q 934 1394 1379 917 
Q 1825 441 2497 441 
Q 3181 441 3623 922 
Q 4066 1403 4066 2288 
Q 4066 2847 3877 3264 
Q 3688 3681 3323 3911 
Q 2959 4141 2506 4141 
Q 1863 4141 1398 3698 
Q 934 3256 934 2222 
z
" transform="scale(0.015625)"/>
        <path id="ArialMT-5f" d="M -97 -1272 
L -97 -866 
L 3631 -866 
L 3631 -1272 
L -97 -1272 
z
" transform="scale(0.015625)"/>
        <path id="ArialMT-43" d="M 3763 1606 
L 4369 1453 
Q 4178 706 3683 314 
Q 3188 -78 2472 -78 
Q 1731 -78 1267 223 
Q 803 525 561 1097 
Q 319 1669 319 2325 
Q 319 3041 592 3573 
Q 866 4106 1370 4382 
Q 1875 4659 2481 4659 
Q 3169 4659 3637 4309 
Q 4106 3959 4291 3325 
L 3694 3184 
Q 3534 3684 3231 3912 
Q 2928 4141 2469 4141 
Q 1941 4141 1586 3887 
Q 1231 3634 1087 3207 
Q 944 2781 944 2328 
Q 944 1744 1114 1308 
Q 1284 872 1643 656 
Q 2003 441 2422 441 
Q 2931 441 3284 734 
Q 3638 1028 3763 1606 
z
" transform="scale(0.015625)"/>
        <path id="ArialMT-46" d="M 525 0 
L 525 4581 
L 3616 4581 
L 3616 4041 
L 1131 4041 
L 1131 2622 
L 3281 2622 
L 3281 2081 
L 1131 2081 
L 1131 0 
L 525 0 
z
" transform="scale(0.015625)"/>
        <path id="ArialMT-4c" d="M 469 0 
L 469 4581 
L 1075 4581 
L 1075 541 
L 3331 541 
L 3331 0 
L 469 0 
z
" transform="scale(0.015625)"/>
        <path id="ArialMT-49" d="M 597 0 
L 597 4581 
L 1203 4581 
L 1203 0 
L 597 0 
z
" transform="scale(0.015625)"/>
       </defs>
       <use xlink:href="#ArialMT-4e"/>
       <use xlink:href="#ArialMT-4f" x="72.216797"/>
       <use xlink:href="#ArialMT-5f" x="150"/>
       <use xlink:href="#ArialMT-43" x="205.615234"/>
       <use xlink:href="#ArialMT-4f" x="277.832031"/>
       <use xlink:href="#ArialMT-4e" x="355.615234"/>
       <use xlink:href="#ArialMT-46" x="427.832031"/>
       <use xlink:href="#ArialMT-4c" x="488.916016"/>
       <use xlink:href="#ArialMT-49" x="544.53125"/>
       <use xlink:href="#ArialMT-43" x="572.314453"/>
       <use xlink:href="#ArialMT-54" x="644.53125"/>
      </g>
     </g>
    </g>
    <g id="ytick_2">
     <g id="text_5">
      <!-- LOW_CONFLICT -->
      <g style="fill: #262626" transform="translate(24.772188 133.577266)scale(0.11 -0.11)">
       <defs>
        <path id="ArialMT-57" d="M 1294 0 
L 78 4581 
L 700 4581 
L 1397 1578 
Q 1509 1106 1591 641 
Q 1766 1375 1797 1488 
L 2669 4581 
L 3400 4581 
L 4056 2263 
Q 4303 1400 4413 641 
Q 4500 1075 4641 1638 
L 5359 4581 
L 5969 4581 
L 4713 0 
L 4128 0 
L 3163 3491 
Q 3041 3928 3019 4028 
Q 2947 3713 2884 3491 
L 1913 0 
L 1294 0 
z
" transform="scale(0.015625)"/>
       </defs>
       <use xlink:href="#ArialMT-4c"/>
       <use xlink:href="#ArialMT-4f" x="55.615234"/>
       <use xlink:href="#ArialMT-57" x="133.398438"/>
       <use xlink:href="#ArialMT-5f" x="227.783203"/>
       <use xlink:href="#ArialMT-43" x="283.398438"/>
       <use xlink:href="#ArialMT-4f" x="355.615234"/>
       <use xlink:href="#ArialMT-4e" x="433.398438"/>
       <use xlink:href="#ArialMT-46" x="505.615234"/>
       <use xlink:href="#ArialMT-4c" x="566.699219"/>
       <use xlink:href="#ArialMT-49" x="622.314453"/>
       <use xlink:href="#ArialMT-43" x="650.097656"/>
       <use xlink:href="#ArialMT-54" x="722.314453"/>
      </g>
     </g>
    </g>
    <g id="ytick_3">
     <g id="text_6">
      <!-- HIGH_CONFLICT -->
      <g style="fill: #262626" transform="translate(22.328125 206.057266)scale(0.11 -0.11)">
       <defs>
        <path id="ArialMT-48" d="M 513 0 
L 513 4581 
L 1119 4581 
L 1119 2700 
L 3500 2700 
L 3500 4581 
L 4106 4581 
L 4106 0 
L 3500 0 
L 3500 2159 
L 1119 2159 
L 1119 0 
L 513 0 
z
" transform="scale(0.015625)"/>
        <path id="ArialMT-47" d="M 2638 1797 
L 2638 2334 
L 4578 2338 
L 4578 638 
Q 4131 281 3656 101 
Q 3181 -78 2681 -78 
Q 2006 -78 1454 211 
Q 903 500 622 1047 
Q 341 1594 341 2269 
Q 341 2938 620 3517 
Q 900 4097 1425 4378 
Q 1950 4659 2634 4659 
Q 3131 4659 3532 4498 
Q 3934 4338 4162 4050 
Q 4391 3763 4509 3300 
L 3963 3150 
Q 3859 3500 3706 3700 
Q 3553 3900 3268 4020 
Q 2984 4141 2638 4141 
Q 2222 4141 1919 4014 
Q 1616 3888 1430 3681 
Q 1244 3475 1141 3228 
Q 966 2803 966 2306 
Q 966 1694 1177 1281 
Q 1388 869 1791 669 
Q 2194 469 2647 469 
Q 3041 469 3416 620 
Q 3791 772 3984 944 
L 3984 1797 
L 2638 1797 
z
" transform="scale(0.015625)"/>
       </defs>
       <use xlink:href="#ArialMT-48"/>
       <use xlink:href="#ArialMT-49" x="72.216797"/>
       <use xlink:href="#ArialMT-47" x="100"/>
       <use xlink:href="#ArialMT-48" x="177.783203"/>
       <use xlink:href="#ArialMT-5f" x="250"/>
       <use xlink:href="#ArialMT-43" x="305.615234"/>
       <use xlink:href="#ArialMT-4f" x="377.832031"/>
       <use xlink:href="#ArialMT-4e" x="455.615234"/>
       <use xlink:href="#ArialMT-46" x="527.832031"/>
       <use xlink:href="#ArialMT-4c" x="588.916016"/>
       <use xlink:href="#ArialMT-49" x="644.53125"/>
       <use xlink:href="#ArialMT-43" x="672.314453"/>
       <use xlink:href="#ArialMT-54" x="744.53125"/>
      </g>
     </g>
    </g>
    <g id="text_7">
     <!-- COUNTRY_CATEGORY -->
     <g style="fill: #262626" transform="translate(15.943125 196.684687)rotate(-90)scale(0.12 -0.12)">
      <defs>
       <path id="ArialMT-55" d="M 3500 4581 
L 4106 4581 
L 4106 1934 
Q 4106 1244 3950 837 
Q 3794 431 3386 176 
Q 2978 -78 2316 -78 
Q 1672 -78 1262 144 
Q 853 366 678 786 
Q 503 1206 503 1934 
L 503 4581 
L 1109 4581 
L 1109 1938 
Q 1109 1341 1220 1058 
Q 1331 775 1601 622 
Q 1872 469 2263 469 
Q 2931 469 3215 772 
Q 3500 1075 3500 1938 
L 3500 4581 
z
" transform="scale(0.015625)"/>
       <path id="ArialMT-59" d="M 1784 0 
L 1784 1941 
L 19 4581 
L 756 4581 
L 1659 3200 
Q 1909 2813 2125 2425 
Q 2331 2784 2625 3234 
L 3513 4581 
L 4219 4581 
L 2391 1941 
L 2391 0 
L 1784 0 
z
" transform="scale(0.015625)"/>
      </defs>
      <use xlink:href="#ArialMT-43"/>
      <use xlink:href="#ArialMT-4f" x="72.216797"/>
      <use xlink:href="#ArialMT-55" x="150"/>
      <use xlink:href="#ArialMT-4e" x="222.216797"/>
      <use xlink:href="#ArialMT-54" x="294.433594"/>
      <use xlink:href="#ArialMT-52" x="355.517578"/>
      <use xlink:href="#ArialMT-59" x="425.984375"/>
      <use xlink:href="#ArialMT-5f" x="492.683594"/>
      <use xlink:href="#ArialMT-43" x="548.298828"/>
      <use xlink:href="#ArialMT-41" x="620.515625"/>
      <use xlink:href="#ArialMT-54" x="679.839844"/>
      <use xlink:href="#ArialMT-45" x="740.923828"/>
      <use xlink:href="#ArialMT-47" x="807.623047"/>
      <use xlink:href="#ArialMT-4f" x="885.40625"/>
      <use xlink:href="#ArialMT-52" x="963.189453"/>
      <use xlink:href="#ArialMT-59" x="1033.65625"/>
     </g>
    </g>
   </g>
   <g id="QuadMesh_1">
    <path d="M 120.443438 21.943125 
L 194.843437 21.943125 
L 194.843437 94.423125 
L 120.443438 94.423125 
L 120.443438 21.943125 
" clip-path="url(#p1f02efa239)" style="fill: #fff5f0"/>
    <path d="M 194.843437 21.943125 
L 269.243437 21.943125 
L 269.243437 94.423125 
L 194.843437 94.423125 
L 194.843437 21.943125 
" clip-path="url(#p1f02efa239)" style="fill: #fff5f0"/>
    <path d="M 269.243437 21.943125 
L 343.643438 21.943125 
L 343.643438 94.423125 
L 269.243437 94.423125 
L 269.243437 21.943125 
" clip-path="url(#p1f02efa239)" style="fill: #fff5f0"/>
    <path d="M 120.443438 94.423125 
L 194.843437 94.423125 
L 194.843437 166.903125 
L 120.443438 166.903125 
L 120.443438 94.423125 
" clip-path="url(#p1f02efa239)" style="fill: #dc2924"/>
    <path d="M 194.843437 94.423125 
L 269.243437 94.423125 
L 269.243437 166.903125 
L 194.843437 166.903125 
L 194.843437 94.423125 
" clip-path="url(#p1f02efa239)" style="fill: #dc2924"/>
    <path d="M 269.243437 94.423125 
L 343.643438 94.423125 
L 343.643438 166.903125 
L 269.243437 166.903125 
L 269.243437 94.423125 
" clip-path="url(#p1f02efa239)" style="fill: #6d010e"/>
    <path d="M 120.443438 166.903125 
L 194.843437 166.903125 
L 194.843437 239.383125 
L 120.443438 239.383125 
L 120.443438 166.903125 
" clip-path="url(#p1f02efa239)" style="fill: #ad1117"/>
    <path d="M 194.843437 166.903125 
L 269.243437 166.903125 
L 269.243437 239.383125 
L 194.843437 239.383125 
L 194.843437 166.903125 
" clip-path="url(#p1f02efa239)" style="fill: #ad1117"/>
    <path d="M 269.243437 166.903125 
L 343.643438 166.903125 
L 343.643438 239.383125 
L 269.243437 239.383125 
L 269.243437 166.903125 
" clip-path="url(#p1f02efa239)" style="fill: #67000d"/>
   </g>
   <g id="text_8">
    <!-- 0 -->
    <g style="fill: #262626" transform="translate(154.306875 61.285312)scale(0.12 -0.12)">
     <defs>
      <path id="ArialMT-30" d="M 266 2259 
Q 266 3072 433 3567 
Q 600 4063 929 4331 
Q 1259 4600 1759 4600 
Q 2128 4600 2406 4451 
Q 2684 4303 2865 4023 
Q 3047 3744 3150 3342 
Q 3253 2941 3253 2259 
Q 3253 1453 3087 958 
Q 2922 463 2592 192 
Q 2263 -78 1759 -78 
Q 1097 -78 719 397 
Q 266 969 266 2259 
z
M 844 2259 
Q 844 1131 1108 757 
Q 1372 384 1759 384 
Q 2147 384 2411 759 
Q 2675 1134 2675 2259 
Q 2675 3391 2411 3762 
Q 2147 4134 1753 4134 
Q 1366 4134 1134 3806 
Q 844 3388 844 2259 
z
" transform="scale(0.015625)"/>
     </defs>
     <use xlink:href="#ArialMT-30"/>
    </g>
   </g>
   <g id="text_9">
    <!-- 0 -->
    <g style="fill: #262626" transform="translate(228.706875 61.285312)scale(0.12 -0.12)">
     <use xlink:href="#ArialMT-30"/>
    </g>
   </g>
   <g id="text_10">
    <!-- 0 -->
    <g style="fill: #262626" transform="translate(303.106875 61.285312)scale(0.12 -0.12)">
     <use xlink:href="#ArialMT-30"/>
    </g>
   </g>
   <g id="text_11">
    <!-- 0.46 -->
    <g style="fill: #ffffff" transform="translate(145.966875 133.765312)scale(0.12 -0.12)">
     <defs>
      <path id="ArialMT-2e" d="M 581 0 
L 581 641 
L 1222 641 
L 1222 0 
L 581 0 
z
" transform="scale(0.015625)"/>
      <path id="ArialMT-34" d="M 2069 0 
L 2069 1097 
L 81 1097 
L 81 1613 
L 2172 4581 
L 2631 4581 
L 2631 1613 
L 3250 1613 
L 3250 1097 
L 2631 1097 
L 2631 0 
L 2069 0 
z
M 2069 1613 
L 2069 3678 
L 634 1613 
L 2069 1613 
z
" transform="scale(0.015625)"/>
      <path id="ArialMT-36" d="M 3184 3459 
L 2625 3416 
Q 2550 3747 2413 3897 
Q 2184 4138 1850 4138 
Q 1581 4138 1378 3988 
Q 1113 3794 959 3422 
Q 806 3050 800 2363 
Q 1003 2672 1297 2822 
Q 1591 2972 1913 2972 
Q 2475 2972 2870 2558 
Q 3266 2144 3266 1488 
Q 3266 1056 3080 686 
Q 2894 316 2569 119 
Q 2244 -78 1831 -78 
Q 1128 -78 684 439 
Q 241 956 241 2144 
Q 241 3472 731 4075 
Q 1159 4600 1884 4600 
Q 2425 4600 2770 4297 
Q 3116 3994 3184 3459 
z
M 888 1484 
Q 888 1194 1011 928 
Q 1134 663 1356 523 
Q 1578 384 1822 384 
Q 2178 384 2434 671 
Q 2691 959 2691 1453 
Q 2691 1928 2437 2201 
Q 2184 2475 1800 2475 
Q 1419 2475 1153 2201 
Q 888 1928 888 1484 
z
" transform="scale(0.015625)"/>
     </defs>
     <use xlink:href="#ArialMT-30"/>
     <use xlink:href="#ArialMT-2e" x="55.615234"/>
     <use xlink:href="#ArialMT-34" x="83.398438"/>
     <use xlink:href="#ArialMT-36" x="139.013672"/>
    </g>
   </g>
   <g id="text_12">
    <!-- 0.46 -->
    <g style="fill: #ffffff" transform="translate(220.366875 133.765312)scale(0.12 -0.12)">
     <use xlink:href="#ArialMT-30"/>
     <use xlink:href="#ArialMT-2e" x="55.615234"/>
     <use xlink:href="#ArialMT-34" x="83.398438"/>
     <use xlink:href="#ArialMT-36" x="139.013672"/>
    </g>
   </g>
   <g id="text_13">
    <!-- 0.65 -->
    <g style="fill: #ffffff" transform="translate(294.766875 133.765312)scale(0.12 -0.12)">
     <defs>
      <path id="ArialMT-35" d="M 266 1200 
L 856 1250 
Q 922 819 1161 601 
Q 1400 384 1738 384 
Q 2144 384 2425 690 
Q 2706 997 2706 1503 
Q 2706 1984 2436 2262 
Q 2166 2541 1728 2541 
Q 1456 2541 1237 2417 
Q 1019 2294 894 2097 
L 366 2166 
L 809 4519 
L 3088 4519 
L 3088 3981 
L 1259 3981 
L 1013 2750 
Q 1425 3038 1878 3038 
Q 2478 3038 2890 2622 
Q 3303 2206 3303 1553 
Q 3303 931 2941 478 
Q 2500 -78 1738 -78 
Q 1113 -78 717 272 
Q 322 622 266 1200 
z
" transform="scale(0.015625)"/>
     </defs>
     <use xlink:href="#ArialMT-30"/>
     <use xlink:href="#ArialMT-2e" x="55.615234"/>
     <use xlink:href="#ArialMT-36" x="83.398438"/>
     <use xlink:href="#ArialMT-35" x="139.013672"/>
    </g>
   </g>
   <g id="text_14">
    <!-- 0.56 -->
    <g style="fill: #ffffff" transform="translate(145.966875 206.245312)scale(0.12 -0.12)">
     <use xlink:href="#ArialMT-30"/>
     <use xlink:href="#ArialMT-2e" x="55.615234"/>
     <use xlink:href="#ArialMT-35" x="83.398438"/>
     <use xlink:href="#ArialMT-36" x="139.013672"/>
    </g>
   </g>
   <g id="text_15">
    <!-- 0.56 -->
    <g style="fill: #ffffff" transform="translate(220.366875 206.245312)scale(0.12 -0.12)">
     <use xlink:href="#ArialMT-30"/>
     <use xlink:href="#ArialMT-2e" x="55.615234"/>
     <use xlink:href="#ArialMT-35" x="83.398438"/>
     <use xlink:href="#ArialMT-36" x="139.013672"/>
    </g>
   </g>
   <g id="text_16">
    <!-- 0.66 -->
    <g style="fill: #ffffff" transform="translate(294.766875 206.245312)scale(0.12 -0.12)">
     <use xlink:href="#ArialMT-30"/>
     <use xlink:href="#ArialMT-2e" x="55.615234"/>
     <use xlink:href="#ArialMT-36" x="83.398438"/>
     <use xlink:href="#ArialMT-36" x="139.013672"/>
    </g>
   </g>
   <g id="text_17">
    <!-- NO_CHANGE_MONTHLY -->
    <g style="fill: #262626" transform="translate(161.807812 15.943125)scale(0.12 -0.12)">
     <use xlink:href="#ArialMT-4e"/>
     <use xlink:href="#ArialMT-4f" x="72.216797"/>
     <use xlink:href="#ArialMT-5f" x="150"/>
     <use xlink:href="#ArialMT-43" x="205.615234"/>
     <use xlink:href="#ArialMT-48" x="277.832031"/>
     <use xlink:href="#ArialMT-41" x="350.048828"/>
     <use xlink:href="#ArialMT-4e" x="416.748047"/>
     <use xlink:href="#ArialMT-47" x="488.964844"/>
     <use xlink:href="#ArialMT-45" x="566.748047"/>
     <use xlink:href="#ArialMT-5f" x="633.447266"/>
     <use xlink:href="#ArialMT-4d" x="689.0625"/>
     <use xlink:href="#ArialMT-4f" x="772.363281"/>
     <use xlink:href="#ArialMT-4e" x="850.146484"/>
     <use xlink:href="#ArialMT-54" x="922.363281"/>
     <use xlink:href="#ArialMT-48" x="983.447266"/>
     <use xlink:href="#ArialMT-4c" x="1055.664062"/>
     <use xlink:href="#ArialMT-59" x="1103.904297"/>
    </g>
   </g>
  </g>
 </g>
 <defs>
  <clipPath id="p1f02efa239">
   <rect x="120.443438" y="21.943125" width="223.2" height="217.44"/>
  </clipPath>
 </defs>
</svg>
