<?xml version="1.0" encoding="utf-8" standalone="no"?>
<!DOCTYPE svg PUBLIC "-//W3C//DTD SVG 1.1//EN"
  "http://www.w3.org/Graphics/SVG/1.1/DTD/svg11.dtd">
<svg xmlns:xlink="http://www.w3.org/1999/xlink" width="309.547969pt" height="251.399844pt" viewBox="0 0 309.547969 251.399844" xmlns="http://www.w3.org/2000/svg" version="1.1">
 <metadata>
  <rdf:RDF xmlns:dc="http://purl.org/dc/elements/1.1/" xmlns:cc="http://creativecommons.org/ns#" xmlns:rdf="http://www.w3.org/1999/02/22-rdf-syntax-ns#">
   <cc:Work>
    <dc:type rdf:resource="http://purl.org/dc/dcmitype/StillImage"/>
    <dc:date>2022-11-05T14:55:34.310987</dc:date>
    <dc:format>image/svg+xml</dc:format>
    <dc:creator>
     <cc:Agent>
      <dc:title>Matplotlib v3.5.1, https://matplotlib.org/</dc:title>
     </cc:Agent>
    </dc:creator>
   </cc:Work>
  </rdf:RDF>
 </metadata>
 <defs>
  <style type="text/css">*{stroke-linejoin: round; stroke-linecap: butt}</style>
 </defs>
 <g id="figure_1">
  <g id="patch_1">
   <path d="M 0 251.399844 
L 309.547969 251.399844 
L 309.547969 0 
L 0 0 
z
" style="fill: #ffffff"/>
  </g>
  <g id="axes_1">
   <g id="patch_2">
    <path d="M 134.947969 224.64 
L 302.347969 224.64 
L 302.347969 7.2 
L 134.947969 7.2 
z
" style="fill: #ffffff"/>
   </g>
   <g id="matplotlib.axis_1">
    <g id="xtick_1">
     <g id="text_1">
      <!-- TADDA -->
      <g style="fill: #262626" transform="translate(144.612891 242.013594)scale(0.11 -0.11)">
       <defs>
        <path id="ArialMT-54" d="M 1659 0 
L 1659 4041 
L 150 4041 
L 150 4581 
L 3781 4581 
L 3781 4041 
L 2266 4041 
L 2266 0 
L 1659 0 
z
" transform="scale(0.015625)"/>
        <path id="ArialMT-41" d="M -9 0 
L 1750 4581 
L 2403 4581 
L 4278 0 
L 3588 0 
L 3053 1388 
L 1138 1388 
L 634 0 
L -9 0 
z
M 1313 1881 
L 2866 1881 
L 2388 3150 
Q 2169 3728 2063 4100 
Q 1975 3659 1816 3225 
L 1313 1881 
z
" transform="scale(0.015625)"/>
        <path id="ArialMT-44" d="M 494 0 
L 494 4581 
L 2072 4581 
Q 2606 4581 2888 4516 
Q 3281 4425 3559 4188 
Q 3922 3881 4101 3404 
Q 4281 2928 4281 2316 
Q 4281 1794 4159 1391 
Q 4038 988 3847 723 
Q 3656 459 3429 307 
Q 3203 156 2883 78 
Q 2563 0 2147 0 
L 494 0 
z
M 1100 541 
L 2078 541 
Q 2531 541 2789 625 
Q 3047 709 3200 863 
Q 3416 1078 3536 1442 
Q 3656 1806 3656 2325 
Q 3656 3044 3420 3430 
Q 3184 3816 2847 3947 
Q 2603 4041 2063 4041 
L 1100 4041 
L 1100 541 
z
" transform="scale(0.015625)"/>
       </defs>
       <use xlink:href="#ArialMT-54"/>
       <use xlink:href="#ArialMT-41" x="53.708984"/>
       <use xlink:href="#ArialMT-44" x="120.408203"/>
       <use xlink:href="#ArialMT-44" x="192.625"/>
       <use xlink:href="#ArialMT-41" x="264.841797"/>
      </g>
     </g>
    </g>
    <g id="xtick_2">
     <g id="text_2">
      <!-- MAE -->
      <g style="fill: #262626" transform="translate(206.729297 242.013594)scale(0.11 -0.11)">
       <defs>
        <path id="ArialMT-4d" d="M 475 0 
L 475 4581 
L 1388 4581 
L 2472 1338 
Q 2622 884 2691 659 
Q 2769 909 2934 1394 
L 4031 4581 
L 4847 4581 
L 4847 0 
L 4263 0 
L 4263 3834 
L 2931 0 
L 2384 0 
L 1059 3900 
L 1059 0 
L 475 0 
z
" transform="scale(0.015625)"/>
        <path id="ArialMT-45" d="M 506 0 
L 506 4581 
L 3819 4581 
L 3819 4041 
L 1113 4041 
L 1113 2638 
L 3647 2638 
L 3647 2100 
L 1113 2100 
L 1113 541 
L 3925 541 
L 3925 0 
L 506 0 
z
" transform="scale(0.015625)"/>
       </defs>
       <use xlink:href="#ArialMT-4d"/>
       <use xlink:href="#ArialMT-41" x="83.300781"/>
       <use xlink:href="#ArialMT-45" x="150"/>
      </g>
     </g>
    </g>
    <g id="xtick_3">
     <g id="text_3">
      <!-- RMSE -->
      <g style="fill: #262626" transform="translate(258.557266 242.013594)scale(0.11 -0.11)">
       <defs>
        <path id="ArialMT-52" d="M 503 0 
L 503 4581 
L 2534 4581 
Q 3147 4581 3465 4457 
Q 3784 4334 3975 4021 
Q 4166 3709 4166 3331 
Q 4166 2844 3850 2509 
Q 3534 2175 2875 2084 
Q 3116 1969 3241 1856 
Q 3506 1613 3744 1247 
L 4541 0 
L 3778 0 
L 3172 953 
Q 2906 1366 2734 1584 
Q 2563 1803 2427 1890 
Q 2291 1978 2150 2013 
Q 2047 2034 1813 2034 
L 1109 2034 
L 1109 0 
L 503 0 
z
M 1109 2559 
L 2413 2559 
Q 2828 2559 3062 2645 
Q 3297 2731 3419 2920 
Q 3541 3109 3541 3331 
Q 3541 3656 3305 3865 
Q 3069 4075 2559 4075 
L 1109 4075 
L 1109 2559 
z
" transform="scale(0.015625)"/>
        <path id="ArialMT-53" d="M 288 1472 
L 859 1522 
Q 900 1178 1048 958 
Q 1197 738 1509 602 
Q 1822 466 2213 466 
Q 2559 466 2825 569 
Q 3091 672 3220 851 
Q 3350 1031 3350 1244 
Q 3350 1459 3225 1620 
Q 3100 1781 2813 1891 
Q 2628 1963 1997 2114 
Q 1366 2266 1113 2400 
Q 784 2572 623 2826 
Q 463 3081 463 3397 
Q 463 3744 659 4045 
Q 856 4347 1234 4503 
Q 1613 4659 2075 4659 
Q 2584 4659 2973 4495 
Q 3363 4331 3572 4012 
Q 3781 3694 3797 3291 
L 3216 3247 
Q 3169 3681 2898 3903 
Q 2628 4125 2100 4125 
Q 1550 4125 1298 3923 
Q 1047 3722 1047 3438 
Q 1047 3191 1225 3031 
Q 1400 2872 2139 2705 
Q 2878 2538 3153 2413 
Q 3553 2228 3743 1945 
Q 3934 1663 3934 1294 
Q 3934 928 3725 604 
Q 3516 281 3123 101 
Q 2731 -78 2241 -78 
Q 1619 -78 1198 103 
Q 778 284 539 648 
Q 300 1013 288 1472 
z
" transform="scale(0.015625)"/>
       </defs>
       <use xlink:href="#ArialMT-52"/>
       <use xlink:href="#ArialMT-4d" x="72.216797"/>
       <use xlink:href="#ArialMT-53" x="155.517578"/>
       <use xlink:href="#ArialMT-45" x="222.216797"/>
      </g>
     </g>
    </g>
   </g>
   <g id="matplotlib.axis_2">
    <g id="ytick_1">
     <g id="text_4">
      <!-- MONTHLY-TIER 0 -->
      <g style="fill: #262626" transform="translate(35.591719 23.633672)scale(0.11 -0.11)">
       <defs>
        <path id="ArialMT-4f" d="M 309 2231 
Q 309 3372 921 4017 
Q 1534 4663 2503 4663 
Q 3138 4663 3647 4359 
Q 4156 4056 4423 3514 
Q 4691 2972 4691 2284 
Q 4691 1588 4409 1038 
Q 4128 488 3612 205 
Q 3097 -78 2500 -78 
Q 1853 -78 1343 234 
Q 834 547 571 1087 
Q 309 1628 309 2231 
z
M 934 2222 
Q 934 1394 1379 917 
Q 1825 441 2497 441 
Q 3181 441 3623 922 
Q 4066 1403 4066 2288 
Q 4066 2847 3877 3264 
Q 3688 3681 3323 3911 
Q 2959 4141 2506 4141 
Q 1863 4141 1398 3698 
Q 934 3256 934 2222 
z
" transform="scale(0.015625)"/>
        <path id="ArialMT-4e" d="M 488 0 
L 488 4581 
L 1109 4581 
L 3516 984 
L 3516 4581 
L 4097 4581 
L 4097 0 
L 3475 0 
L 1069 3600 
L 1069 0 
L 488 0 
z
" transform="scale(0.015625)"/>
        <path id="ArialMT-48" d="M 513 0 
L 513 4581 
L 1119 4581 
L 1119 2700 
L 3500 2700 
L 3500 4581 
L 4106 4581 
L 4106 0 
L 3500 0 
L 3500 2159 
L 1119 2159 
L 1119 0 
L 513 0 
z
" transform="scale(0.015625)"/>
        <path id="ArialMT-4c" d="M 469 0 
L 469 4581 
L 1075 4581 
L 1075 541 
L 3331 541 
L 3331 0 
L 469 0 
z
" transform="scale(0.015625)"/>
        <path id="ArialMT-59" d="M 1784 0 
L 1784 1941 
L 19 4581 
L 756 4581 
L 1659 3200 
Q 1909 2813 2125 2425 
Q 2331 2784 2625 3234 
L 3513 4581 
L 4219 4581 
L 2391 1941 
L 2391 0 
L 1784 0 
z
" transform="scale(0.015625)"/>
        <path id="ArialMT-2d" d="M 203 1375 
L 203 1941 
L 1931 1941 
L 1931 1375 
L 203 1375 
z
" transform="scale(0.015625)"/>
        <path id="ArialMT-49" d="M 597 0 
L 597 4581 
L 1203 4581 
L 1203 0 
L 597 0 
z
" transform="scale(0.015625)"/>
        <path id="ArialMT-20" transform="scale(0.015625)"/>
        <path id="ArialMT-30" d="M 266 2259 
Q 266 3072 433 3567 
Q 600 4063 929 4331 
Q 1259 4600 1759 4600 
Q 2128 4600 2406 4451 
Q 2684 4303 2865 4023 
Q 3047 3744 3150 3342 
Q 3253 2941 3253 2259 
Q 3253 1453 3087 958 
Q 2922 463 2592 192 
Q 2263 -78 1759 -78 
Q 1097 -78 719 397 
Q 266 969 266 2259 
z
M 844 2259 
Q 844 1131 1108 757 
Q 1372 384 1759 384 
Q 2147 384 2411 759 
Q 2675 1134 2675 2259 
Q 2675 3391 2411 3762 
Q 2147 4134 1753 4134 
Q 1366 4134 1134 3806 
Q 844 3388 844 2259 
z
" transform="scale(0.015625)"/>
       </defs>
       <use xlink:href="#ArialMT-4d"/>
       <use xlink:href="#ArialMT-4f" x="83.300781"/>
       <use xlink:href="#ArialMT-4e" x="161.083984"/>
       <use xlink:href="#ArialMT-54" x="233.300781"/>
       <use xlink:href="#ArialMT-48" x="294.384766"/>
       <use xlink:href="#ArialMT-4c" x="366.601562"/>
       <use xlink:href="#ArialMT-59" x="414.841797"/>
       <use xlink:href="#ArialMT-2d" x="472.416016"/>
       <use xlink:href="#ArialMT-54" x="505.716797"/>
       <use xlink:href="#ArialMT-49" x="566.800781"/>
       <use xlink:href="#ArialMT-45" x="594.583984"/>
       <use xlink:href="#ArialMT-52" x="661.283203"/>
       <use xlink:href="#ArialMT-20" x="733.5"/>
       <use xlink:href="#ArialMT-30" x="761.283203"/>
      </g>
     </g>
    </g>
    <g id="ytick_2">
     <g id="text_5">
      <!-- MONTHLY-TIER 1 -->
      <g style="fill: #262626" transform="translate(35.591719 50.813672)scale(0.11 -0.11)">
       <defs>
        <path id="ArialMT-31" d="M 2384 0 
L 1822 0 
L 1822 3584 
Q 1619 3391 1289 3197 
Q 959 3003 697 2906 
L 697 3450 
Q 1169 3672 1522 3987 
Q 1875 4303 2022 4600 
L 2384 4600 
L 2384 0 
z
" transform="scale(0.015625)"/>
       </defs>
       <use xlink:href="#ArialMT-4d"/>
       <use xlink:href="#ArialMT-4f" x="83.300781"/>
       <use xlink:href="#ArialMT-4e" x="161.083984"/>
       <use xlink:href="#ArialMT-54" x="233.300781"/>
       <use xlink:href="#ArialMT-48" x="294.384766"/>
       <use xlink:href="#ArialMT-4c" x="366.601562"/>
       <use xlink:href="#ArialMT-59" x="414.841797"/>
       <use xlink:href="#ArialMT-2d" x="472.416016"/>
       <use xlink:href="#ArialMT-54" x="505.716797"/>
       <use xlink:href="#ArialMT-49" x="566.800781"/>
       <use xlink:href="#ArialMT-45" x="594.583984"/>
       <use xlink:href="#ArialMT-52" x="661.283203"/>
       <use xlink:href="#ArialMT-20" x="733.5"/>
       <use xlink:href="#ArialMT-31" x="761.283203"/>
      </g>
     </g>
    </g>
    <g id="ytick_3">
     <g id="text_6">
      <!-- MONTHLY-TIER 2 -->
      <g style="fill: #262626" transform="translate(35.591719 77.993672)scale(0.11 -0.11)">
       <defs>
        <path id="ArialMT-32" d="M 3222 541 
L 3222 0 
L 194 0 
Q 188 203 259 391 
Q 375 700 629 1000 
Q 884 1300 1366 1694 
Q 2113 2306 2375 2664 
Q 2638 3022 2638 3341 
Q 2638 3675 2398 3904 
Q 2159 4134 1775 4134 
Q 1369 4134 1125 3890 
Q 881 3647 878 3216 
L 300 3275 
Q 359 3922 746 4261 
Q 1134 4600 1788 4600 
Q 2447 4600 2831 4234 
Q 3216 3869 3216 3328 
Q 3216 3053 3103 2787 
Q 2991 2522 2730 2228 
Q 2469 1934 1863 1422 
Q 1356 997 1212 845 
Q 1069 694 975 541 
L 3222 541 
z
" transform="scale(0.015625)"/>
       </defs>
       <use xlink:href="#ArialMT-4d"/>
       <use xlink:href="#ArialMT-4f" x="83.300781"/>
       <use xlink:href="#ArialMT-4e" x="161.083984"/>
       <use xlink:href="#ArialMT-54" x="233.300781"/>
       <use xlink:href="#ArialMT-48" x="294.384766"/>
       <use xlink:href="#ArialMT-4c" x="366.601562"/>
       <use xlink:href="#ArialMT-59" x="414.841797"/>
       <use xlink:href="#ArialMT-2d" x="472.416016"/>
       <use xlink:href="#ArialMT-54" x="505.716797"/>
       <use xlink:href="#ArialMT-49" x="566.800781"/>
       <use xlink:href="#ArialMT-45" x="594.583984"/>
       <use xlink:href="#ArialMT-52" x="661.283203"/>
       <use xlink:href="#ArialMT-20" x="733.5"/>
       <use xlink:href="#ArialMT-32" x="761.283203"/>
      </g>
     </g>
    </g>
    <g id="ytick_4">
     <g id="text_7">
      <!-- MONTHLY-TIER 3 -->
      <g style="fill: #262626" transform="translate(35.591719 105.173672)scale(0.11 -0.11)">
       <defs>
        <path id="ArialMT-33" d="M 269 1209 
L 831 1284 
Q 928 806 1161 595 
Q 1394 384 1728 384 
Q 2125 384 2398 659 
Q 2672 934 2672 1341 
Q 2672 1728 2419 1979 
Q 2166 2231 1775 2231 
Q 1616 2231 1378 2169 
L 1441 2663 
Q 1497 2656 1531 2656 
Q 1891 2656 2178 2843 
Q 2466 3031 2466 3422 
Q 2466 3731 2256 3934 
Q 2047 4138 1716 4138 
Q 1388 4138 1169 3931 
Q 950 3725 888 3313 
L 325 3413 
Q 428 3978 793 4289 
Q 1159 4600 1703 4600 
Q 2078 4600 2393 4439 
Q 2709 4278 2876 4000 
Q 3044 3722 3044 3409 
Q 3044 3113 2884 2869 
Q 2725 2625 2413 2481 
Q 2819 2388 3044 2092 
Q 3269 1797 3269 1353 
Q 3269 753 2831 336 
Q 2394 -81 1725 -81 
Q 1122 -81 723 278 
Q 325 638 269 1209 
z
" transform="scale(0.015625)"/>
       </defs>
       <use xlink:href="#ArialMT-4d"/>
       <use xlink:href="#ArialMT-4f" x="83.300781"/>
       <use xlink:href="#ArialMT-4e" x="161.083984"/>
       <use xlink:href="#ArialMT-54" x="233.300781"/>
       <use xlink:href="#ArialMT-48" x="294.384766"/>
       <use xlink:href="#ArialMT-4c" x="366.601562"/>
       <use xlink:href="#ArialMT-59" x="414.841797"/>
       <use xlink:href="#ArialMT-2d" x="472.416016"/>
       <use xlink:href="#ArialMT-54" x="505.716797"/>
       <use xlink:href="#ArialMT-49" x="566.800781"/>
       <use xlink:href="#ArialMT-45" x="594.583984"/>
       <use xlink:href="#ArialMT-52" x="661.283203"/>
       <use xlink:href="#ArialMT-20" x="733.5"/>
       <use xlink:href="#ArialMT-33" x="761.283203"/>
      </g>
     </g>
    </g>
    <g id="ytick_5">
     <g id="text_8">
      <!-- QUARTERLY-TIER 0 -->
      <g style="fill: #262626" transform="translate(22.328125 132.353672)scale(0.11 -0.11)">
       <defs>
        <path id="ArialMT-51" d="M 3966 491 
Q 4388 200 4744 66 
L 4566 -356 
Q 4072 -178 3581 206 
Q 3072 -78 2456 -78 
Q 1834 -78 1328 222 
Q 822 522 548 1065 
Q 275 1609 275 2291 
Q 275 2969 550 3525 
Q 825 4081 1333 4372 
Q 1841 4663 2469 4663 
Q 3103 4663 3612 4361 
Q 4122 4059 4389 3517 
Q 4656 2975 4656 2294 
Q 4656 1728 4484 1276 
Q 4313 825 3966 491 
z
M 2631 1266 
Q 3156 1119 3497 828 
Q 4031 1316 4031 2294 
Q 4031 2850 3842 3265 
Q 3653 3681 3289 3911 
Q 2925 4141 2472 4141 
Q 1794 4141 1347 3677 
Q 900 3213 900 2291 
Q 900 1397 1342 919 
Q 1784 441 2472 441 
Q 2797 441 3084 563 
Q 2800 747 2484 825 
L 2631 1266 
z
" transform="scale(0.015625)"/>
        <path id="ArialMT-55" d="M 3500 4581 
L 4106 4581 
L 4106 1934 
Q 4106 1244 3950 837 
Q 3794 431 3386 176 
Q 2978 -78 2316 -78 
Q 1672 -78 1262 144 
Q 853 366 678 786 
Q 503 1206 503 1934 
L 503 4581 
L 1109 4581 
L 1109 1938 
Q 1109 1341 1220 1058 
Q 1331 775 1601 622 
Q 1872 469 2263 469 
Q 2931 469 3215 772 
Q 3500 1075 3500 1938 
L 3500 4581 
z
" transform="scale(0.015625)"/>
       </defs>
       <use xlink:href="#ArialMT-51"/>
       <use xlink:href="#ArialMT-55" x="77.783203"/>
       <use xlink:href="#ArialMT-41" x="150"/>
       <use xlink:href="#ArialMT-52" x="216.699219"/>
       <use xlink:href="#ArialMT-54" x="287.166016"/>
       <use xlink:href="#ArialMT-45" x="348.25"/>
       <use xlink:href="#ArialMT-52" x="414.949219"/>
       <use xlink:href="#ArialMT-4c" x="487.166016"/>
       <use xlink:href="#ArialMT-59" x="535.40625"/>
       <use xlink:href="#ArialMT-2d" x="592.980469"/>
       <use xlink:href="#ArialMT-54" x="626.28125"/>
       <use xlink:href="#ArialMT-49" x="687.365234"/>
       <use xlink:href="#ArialMT-45" x="715.148438"/>
       <use xlink:href="#ArialMT-52" x="781.847656"/>
       <use xlink:href="#ArialMT-20" x="854.064453"/>
       <use xlink:href="#ArialMT-30" x="881.847656"/>
      </g>
     </g>
    </g>
    <g id="ytick_6">
     <g id="text_9">
      <!-- QUARTERLY-TIER 1 -->
      <g style="fill: #262626" transform="translate(22.328125 159.533672)scale(0.11 -0.11)">
       <use xlink:href="#ArialMT-51"/>
       <use xlink:href="#ArialMT-55" x="77.783203"/>
       <use xlink:href="#ArialMT-41" x="150"/>
       <use xlink:href="#ArialMT-52" x="216.699219"/>
       <use xlink:href="#ArialMT-54" x="287.166016"/>
       <use xlink:href="#ArialMT-45" x="348.25"/>
       <use xlink:href="#ArialMT-52" x="414.949219"/>
       <use xlink:href="#ArialMT-4c" x="487.166016"/>
       <use xlink:href="#ArialMT-59" x="535.40625"/>
       <use xlink:href="#ArialMT-2d" x="592.980469"/>
       <use xlink:href="#ArialMT-54" x="626.28125"/>
       <use xlink:href="#ArialMT-49" x="687.365234"/>
       <use xlink:href="#ArialMT-45" x="715.148438"/>
       <use xlink:href="#ArialMT-52" x="781.847656"/>
       <use xlink:href="#ArialMT-20" x="854.064453"/>
       <use xlink:href="#ArialMT-31" x="881.847656"/>
      </g>
     </g>
    </g>
    <g id="ytick_7">
     <g id="text_10">
      <!-- QUARTERLY-TIER 2 -->
      <g style="fill: #262626" transform="translate(22.328125 186.713672)scale(0.11 -0.11)">
       <use xlink:href="#ArialMT-51"/>
       <use xlink:href="#ArialMT-55" x="77.783203"/>
       <use xlink:href="#ArialMT-41" x="150"/>
       <use xlink:href="#ArialMT-52" x="216.699219"/>
       <use xlink:href="#ArialMT-54" x="287.166016"/>
       <use xlink:href="#ArialMT-45" x="348.25"/>
       <use xlink:href="#ArialMT-52" x="414.949219"/>
       <use xlink:href="#ArialMT-4c" x="487.166016"/>
       <use xlink:href="#ArialMT-59" x="535.40625"/>
       <use xlink:href="#ArialMT-2d" x="592.980469"/>
       <use xlink:href="#ArialMT-54" x="626.28125"/>
       <use xlink:href="#ArialMT-49" x="687.365234"/>
       <use xlink:href="#ArialMT-45" x="715.148438"/>
       <use xlink:href="#ArialMT-52" x="781.847656"/>
       <use xlink:href="#ArialMT-20" x="854.064453"/>
       <use xlink:href="#ArialMT-32" x="881.847656"/>
      </g>
     </g>
    </g>
    <g id="ytick_8">
     <g id="text_11">
      <!-- QUARTERLY-TIER 3 -->
      <g style="fill: #262626" transform="translate(22.328125 213.893672)scale(0.11 -0.11)">
       <use xlink:href="#ArialMT-51"/>
       <use xlink:href="#ArialMT-55" x="77.783203"/>
       <use xlink:href="#ArialMT-41" x="150"/>
       <use xlink:href="#ArialMT-52" x="216.699219"/>
       <use xlink:href="#ArialMT-54" x="287.166016"/>
       <use xlink:href="#ArialMT-45" x="348.25"/>
       <use xlink:href="#ArialMT-52" x="414.949219"/>
       <use xlink:href="#ArialMT-4c" x="487.166016"/>
       <use xlink:href="#ArialMT-59" x="535.40625"/>
       <use xlink:href="#ArialMT-2d" x="592.980469"/>
       <use xlink:href="#ArialMT-54" x="626.28125"/>
       <use xlink:href="#ArialMT-49" x="687.365234"/>
       <use xlink:href="#ArialMT-45" x="715.148438"/>
       <use xlink:href="#ArialMT-52" x="781.847656"/>
       <use xlink:href="#ArialMT-20" x="854.064453"/>
       <use xlink:href="#ArialMT-33" x="881.847656"/>
      </g>
     </g>
    </g>
    <g id="text_12">
     <!-- TEMPORAL_AGGREGATION-TIER -->
     <g style="fill: #262626" transform="translate(15.943125 212.15625)rotate(-90)scale(0.12 -0.12)">
      <defs>
       <path id="ArialMT-50" d="M 494 0 
L 494 4581 
L 2222 4581 
Q 2678 4581 2919 4538 
Q 3256 4481 3484 4323 
Q 3713 4166 3852 3881 
Q 3991 3597 3991 3256 
Q 3991 2672 3619 2267 
Q 3247 1863 2275 1863 
L 1100 1863 
L 1100 0 
L 494 0 
z
M 1100 2403 
L 2284 2403 
Q 2872 2403 3119 2622 
Q 3366 2841 3366 3238 
Q 3366 3525 3220 3729 
Q 3075 3934 2838 4000 
Q 2684 4041 2272 4041 
L 1100 4041 
L 1100 2403 
z
" transform="scale(0.015625)"/>
       <path id="ArialMT-5f" d="M -97 -1272 
L -97 -866 
L 3631 -866 
L 3631 -1272 
L -97 -1272 
z
" transform="scale(0.015625)"/>
       <path id="ArialMT-47" d="M 2638 1797 
L 2638 2334 
L 4578 2338 
L 4578 638 
Q 4131 281 3656 101 
Q 3181 -78 2681 -78 
Q 2006 -78 1454 211 
Q 903 500 622 1047 
Q 341 1594 341 2269 
Q 341 2938 620 3517 
Q 900 4097 1425 4378 
Q 1950 4659 2634 4659 
Q 3131 4659 3532 4498 
Q 3934 4338 4162 4050 
Q 4391 3763 4509 3300 
L 3963 3150 
Q 3859 3500 3706 3700 
Q 3553 3900 3268 4020 
Q 2984 4141 2638 4141 
Q 2222 4141 1919 4014 
Q 1616 3888 1430 3681 
Q 1244 3475 1141 3228 
Q 966 2803 966 2306 
Q 966 1694 1177 1281 
Q 1388 869 1791 669 
Q 2194 469 2647 469 
Q 3041 469 3416 620 
Q 3791 772 3984 944 
L 3984 1797 
L 2638 1797 
z
" transform="scale(0.015625)"/>
      </defs>
      <use xlink:href="#ArialMT-54"/>
      <use xlink:href="#ArialMT-45" x="61.083984"/>
      <use xlink:href="#ArialMT-4d" x="127.783203"/>
      <use xlink:href="#ArialMT-50" x="211.083984"/>
      <use xlink:href="#ArialMT-4f" x="277.783203"/>
      <use xlink:href="#ArialMT-52" x="355.566406"/>
      <use xlink:href="#ArialMT-41" x="427.783203"/>
      <use xlink:href="#ArialMT-4c" x="494.482422"/>
      <use xlink:href="#ArialMT-5f" x="550.097656"/>
      <use xlink:href="#ArialMT-41" x="605.712891"/>
      <use xlink:href="#ArialMT-47" x="672.412109"/>
      <use xlink:href="#ArialMT-47" x="750.195312"/>
      <use xlink:href="#ArialMT-52" x="827.978516"/>
      <use xlink:href="#ArialMT-45" x="900.195312"/>
      <use xlink:href="#ArialMT-47" x="966.894531"/>
      <use xlink:href="#ArialMT-41" x="1044.677734"/>
      <use xlink:href="#ArialMT-54" x="1104.001953"/>
      <use xlink:href="#ArialMT-49" x="1165.085938"/>
      <use xlink:href="#ArialMT-4f" x="1192.869141"/>
      <use xlink:href="#ArialMT-4e" x="1270.652344"/>
      <use xlink:href="#ArialMT-2d" x="1342.869141"/>
      <use xlink:href="#ArialMT-54" x="1376.169922"/>
      <use xlink:href="#ArialMT-49" x="1437.253906"/>
      <use xlink:href="#ArialMT-45" x="1465.037109"/>
      <use xlink:href="#ArialMT-52" x="1531.736328"/>
     </g>
    </g>
   </g>
   <g id="QuadMesh_1">
    <path d="M 134.947969 7.2 
L 190.747969 7.2 
L 190.747969 34.38 
L 134.947969 34.38 
L 134.947969 7.2 
" clip-path="url(#p91e6a8e648)" style="fill: #ffeee7"/>
    <path d="M 190.747969 7.2 
L 246.547969 7.2 
L 246.547969 34.38 
L 190.747969 34.38 
L 190.747969 7.2 
" clip-path="url(#p91e6a8e648)" style="fill: #fff5f0"/>
    <path d="M 246.547969 7.2 
L 302.347969 7.2 
L 302.347969 34.38 
L 246.547969 34.38 
L 246.547969 7.2 
" clip-path="url(#p91e6a8e648)" style="fill: #fca689"/>
    <path d="M 134.947969 34.38 
L 190.747969 34.38 
L 190.747969 61.56 
L 134.947969 61.56 
L 134.947969 34.38 
" clip-path="url(#p91e6a8e648)" style="fill: #fee6da"/>
    <path d="M 190.747969 34.38 
L 246.547969 34.38 
L 246.547969 61.56 
L 190.747969 61.56 
L 190.747969 34.38 
" clip-path="url(#p91e6a8e648)" style="fill: #fff2ec"/>
    <path d="M 246.547969 34.38 
L 302.347969 34.38 
L 302.347969 61.56 
L 246.547969 61.56 
L 246.547969 34.38 
" clip-path="url(#p91e6a8e648)" style="fill: #fc8969"/>
    <path d="M 134.947969 61.56 
L 190.747969 61.56 
L 190.747969 88.74 
L 134.947969 88.74 
L 134.947969 61.56 
" clip-path="url(#p91e6a8e648)" style="fill: #fdc9b3"/>
    <path d="M 190.747969 61.56 
L 246.547969 61.56 
L 246.547969 88.74 
L 190.747969 88.74 
L 190.747969 61.56 
" clip-path="url(#p91e6a8e648)" style="fill: #fee8dd"/>
    <path d="M 246.547969 61.56 
L 302.347969 61.56 
L 302.347969 88.74 
L 246.547969 88.74 
L 246.547969 61.56 
" clip-path="url(#p91e6a8e648)" style="fill: #d52221"/>
    <path d="M 134.947969 88.74 
L 190.747969 88.74 
L 190.747969 115.92 
L 134.947969 115.92 
L 134.947969 88.74 
" clip-path="url(#p91e6a8e648)" style="fill: #fdd0bc"/>
    <path d="M 190.747969 88.74 
L 246.547969 88.74 
L 246.547969 115.92 
L 190.747969 115.92 
L 190.747969 88.74 
" clip-path="url(#p91e6a8e648)" style="fill: #feeae1"/>
    <path d="M 246.547969 88.74 
L 302.347969 88.74 
L 302.347969 115.92 
L 246.547969 115.92 
L 246.547969 88.74 
" clip-path="url(#p91e6a8e648)" style="fill: #ed392b"/>
    <path d="M 134.947969 115.92 
L 190.747969 115.92 
L 190.747969 143.1 
L 134.947969 143.1 
L 134.947969 115.92 
" clip-path="url(#p91e6a8e648)" style="fill: #fc9070"/>
    <path d="M 190.747969 115.92 
L 246.547969 115.92 
L 246.547969 143.1 
L 190.747969 143.1 
L 190.747969 115.92 
" clip-path="url(#p91e6a8e648)" style="fill: #fcb398"/>
    <path d="M 246.547969 115.92 
L 302.347969 115.92 
L 302.347969 143.1 
L 246.547969 143.1 
L 246.547969 115.92 
" clip-path="url(#p91e6a8e648)" style="fill: #bc141a"/>
    <path d="M 134.947969 143.1 
L 190.747969 143.1 
L 190.747969 170.28 
L 134.947969 170.28 
L 134.947969 143.1 
" clip-path="url(#p91e6a8e648)" style="fill: #fc8464"/>
    <path d="M 190.747969 143.1 
L 246.547969 143.1 
L 246.547969 170.28 
L 190.747969 170.28 
L 190.747969 143.1 
" clip-path="url(#p91e6a8e648)" style="fill: #fcad90"/>
    <path d="M 246.547969 143.1 
L 302.347969 143.1 
L 302.347969 170.28 
L 246.547969 170.28 
L 246.547969 143.1 
" clip-path="url(#p91e6a8e648)" style="fill: #b81419"/>
    <path d="M 134.947969 170.28 
L 190.747969 170.28 
L 190.747969 197.46 
L 134.947969 197.46 
L 134.947969 170.28 
" clip-path="url(#p91e6a8e648)" style="fill: #f96245"/>
    <path d="M 190.747969 170.28 
L 246.547969 170.28 
L 246.547969 197.46 
L 190.747969 197.46 
L 190.747969 170.28 
" clip-path="url(#p91e6a8e648)" style="fill: #fc9c7d"/>
    <path d="M 246.547969 170.28 
L 302.347969 170.28 
L 302.347969 197.46 
L 246.547969 197.46 
L 246.547969 170.28 
" clip-path="url(#p91e6a8e648)" style="fill: #67000d"/>
    <path d="M 134.947969 197.46 
L 190.747969 197.46 
L 190.747969 224.64 
L 134.947969 224.64 
L 134.947969 197.46 
" clip-path="url(#p91e6a8e648)" style="fill: #f5523a"/>
    <path d="M 190.747969 197.46 
L 246.547969 197.46 
L 246.547969 224.64 
L 190.747969 224.64 
L 190.747969 197.46 
" clip-path="url(#p91e6a8e648)" style="fill: #fc9373"/>
    <path d="M 246.547969 197.46 
L 302.347969 197.46 
L 302.347969 224.64 
L 246.547969 224.64 
L 246.547969 197.46 
" clip-path="url(#p91e6a8e648)" style="fill: #7c0510"/>
   </g>
   <g id="text_13">
    <!-- 0.39 -->
    <g style="fill: #262626" transform="translate(151.171406 23.892187)scale(0.12 -0.12)">
     <defs>
      <path id="ArialMT-2e" d="M 581 0 
L 581 641 
L 1222 641 
L 1222 0 
L 581 0 
z
" transform="scale(0.015625)"/>
      <path id="ArialMT-39" d="M 350 1059 
L 891 1109 
Q 959 728 1153 556 
Q 1347 384 1650 384 
Q 1909 384 2104 503 
Q 2300 622 2425 820 
Q 2550 1019 2634 1356 
Q 2719 1694 2719 2044 
Q 2719 2081 2716 2156 
Q 2547 1888 2255 1720 
Q 1963 1553 1622 1553 
Q 1053 1553 659 1965 
Q 266 2378 266 3053 
Q 266 3750 677 4175 
Q 1088 4600 1706 4600 
Q 2153 4600 2523 4359 
Q 2894 4119 3086 3673 
Q 3278 3228 3278 2384 
Q 3278 1506 3087 986 
Q 2897 466 2520 194 
Q 2144 -78 1638 -78 
Q 1100 -78 759 220 
Q 419 519 350 1059 
z
M 2653 3081 
Q 2653 3566 2395 3850 
Q 2138 4134 1775 4134 
Q 1400 4134 1122 3828 
Q 844 3522 844 3034 
Q 844 2597 1108 2323 
Q 1372 2050 1759 2050 
Q 2150 2050 2401 2323 
Q 2653 2597 2653 3081 
z
" transform="scale(0.015625)"/>
     </defs>
     <use xlink:href="#ArialMT-30"/>
     <use xlink:href="#ArialMT-2e" x="55.615234"/>
     <use xlink:href="#ArialMT-33" x="83.398438"/>
     <use xlink:href="#ArialMT-39" x="139.013672"/>
    </g>
   </g>
   <g id="text_14">
    <!-- 0.37 -->
    <g style="fill: #262626" transform="translate(206.971406 23.892187)scale(0.12 -0.12)">
     <defs>
      <path id="ArialMT-37" d="M 303 3981 
L 303 4522 
L 3269 4522 
L 3269 4084 
Q 2831 3619 2401 2847 
Q 1972 2075 1738 1259 
Q 1569 684 1522 0 
L 944 0 
Q 953 541 1156 1306 
Q 1359 2072 1739 2783 
Q 2119 3494 2547 3981 
L 303 3981 
z
" transform="scale(0.015625)"/>
     </defs>
     <use xlink:href="#ArialMT-30"/>
     <use xlink:href="#ArialMT-2e" x="55.615234"/>
     <use xlink:href="#ArialMT-33" x="83.398438"/>
     <use xlink:href="#ArialMT-37" x="139.013672"/>
    </g>
   </g>
   <g id="text_15">
    <!-- 0.49 -->
    <g style="fill: #262626" transform="translate(262.771406 23.892187)scale(0.12 -0.12)">
     <defs>
      <path id="ArialMT-34" d="M 2069 0 
L 2069 1097 
L 81 1097 
L 81 1613 
L 2172 4581 
L 2631 4581 
L 2631 1613 
L 3250 1613 
L 3250 1097 
L 2631 1097 
L 2631 0 
L 2069 0 
z
M 2069 1613 
L 2069 3678 
L 634 1613 
L 2069 1613 
z
" transform="scale(0.015625)"/>
     </defs>
     <use xlink:href="#ArialMT-30"/>
     <use xlink:href="#ArialMT-2e" x="55.615234"/>
     <use xlink:href="#ArialMT-34" x="83.398438"/>
     <use xlink:href="#ArialMT-39" x="139.013672"/>
    </g>
   </g>
   <g id="text_16">
    <!-- 0.41 -->
    <g style="fill: #262626" transform="translate(151.171406 51.072187)scale(0.12 -0.12)">
     <use xlink:href="#ArialMT-30"/>
     <use xlink:href="#ArialMT-2e" x="55.615234"/>
     <use xlink:href="#ArialMT-34" x="83.398438"/>
     <use xlink:href="#ArialMT-31" x="139.013672"/>
    </g>
   </g>
   <g id="text_17">
    <!-- 0.38 -->
    <g style="fill: #262626" transform="translate(206.971406 51.072187)scale(0.12 -0.12)">
     <defs>
      <path id="ArialMT-38" d="M 1131 2484 
Q 781 2613 612 2850 
Q 444 3088 444 3419 
Q 444 3919 803 4259 
Q 1163 4600 1759 4600 
Q 2359 4600 2725 4251 
Q 3091 3903 3091 3403 
Q 3091 3084 2923 2848 
Q 2756 2613 2416 2484 
Q 2838 2347 3058 2040 
Q 3278 1734 3278 1309 
Q 3278 722 2862 322 
Q 2447 -78 1769 -78 
Q 1091 -78 675 323 
Q 259 725 259 1325 
Q 259 1772 486 2073 
Q 713 2375 1131 2484 
z
M 1019 3438 
Q 1019 3113 1228 2906 
Q 1438 2700 1772 2700 
Q 2097 2700 2305 2904 
Q 2513 3109 2513 3406 
Q 2513 3716 2298 3927 
Q 2084 4138 1766 4138 
Q 1444 4138 1231 3931 
Q 1019 3725 1019 3438 
z
M 838 1322 
Q 838 1081 952 856 
Q 1066 631 1291 507 
Q 1516 384 1775 384 
Q 2178 384 2440 643 
Q 2703 903 2703 1303 
Q 2703 1709 2433 1975 
Q 2163 2241 1756 2241 
Q 1359 2241 1098 1978 
Q 838 1716 838 1322 
z
" transform="scale(0.015625)"/>
     </defs>
     <use xlink:href="#ArialMT-30"/>
     <use xlink:href="#ArialMT-2e" x="55.615234"/>
     <use xlink:href="#ArialMT-33" x="83.398438"/>
     <use xlink:href="#ArialMT-38" x="139.013672"/>
    </g>
   </g>
   <g id="text_18">
    <!-- 0.53 -->
    <g style="fill: #ffffff" transform="translate(262.771406 51.072187)scale(0.12 -0.12)">
     <defs>
      <path id="ArialMT-35" d="M 266 1200 
L 856 1250 
Q 922 819 1161 601 
Q 1400 384 1738 384 
Q 2144 384 2425 690 
Q 2706 997 2706 1503 
Q 2706 1984 2436 2262 
Q 2166 2541 1728 2541 
Q 1456 2541 1237 2417 
Q 1019 2294 894 2097 
L 366 2166 
L 809 4519 
L 3088 4519 
L 3088 3981 
L 1259 3981 
L 1013 2750 
Q 1425 3038 1878 3038 
Q 2478 3038 2890 2622 
Q 3303 2206 3303 1553 
Q 3303 931 2941 478 
Q 2500 -78 1738 -78 
Q 1113 -78 717 272 
Q 322 622 266 1200 
z
" transform="scale(0.015625)"/>
     </defs>
     <use xlink:href="#ArialMT-30"/>
     <use xlink:href="#ArialMT-2e" x="55.615234"/>
     <use xlink:href="#ArialMT-35" x="83.398438"/>
     <use xlink:href="#ArialMT-33" x="139.013672"/>
    </g>
   </g>
   <g id="text_19">
    <!-- 0.45 -->
    <g style="fill: #262626" transform="translate(151.171406 78.252187)scale(0.12 -0.12)">
     <use xlink:href="#ArialMT-30"/>
     <use xlink:href="#ArialMT-2e" x="55.615234"/>
     <use xlink:href="#ArialMT-34" x="83.398438"/>
     <use xlink:href="#ArialMT-35" x="139.013672"/>
    </g>
   </g>
   <g id="text_20">
    <!-- 0.40 -->
    <g style="fill: #262626" transform="translate(206.971406 78.252187)scale(0.12 -0.12)">
     <use xlink:href="#ArialMT-30"/>
     <use xlink:href="#ArialMT-2e" x="55.615234"/>
     <use xlink:href="#ArialMT-34" x="83.398438"/>
     <use xlink:href="#ArialMT-30" x="139.013672"/>
    </g>
   </g>
   <g id="text_21">
    <!-- 0.65 -->
    <g style="fill: #ffffff" transform="translate(262.771406 78.252187)scale(0.12 -0.12)">
     <defs>
      <path id="ArialMT-36" d="M 3184 3459 
L 2625 3416 
Q 2550 3747 2413 3897 
Q 2184 4138 1850 4138 
Q 1581 4138 1378 3988 
Q 1113 3794 959 3422 
Q 806 3050 800 2363 
Q 1003 2672 1297 2822 
Q 1591 2972 1913 2972 
Q 2475 2972 2870 2558 
Q 3266 2144 3266 1488 
Q 3266 1056 3080 686 
Q 2894 316 2569 119 
Q 2244 -78 1831 -78 
Q 1128 -78 684 439 
Q 241 956 241 2144 
Q 241 3472 731 4075 
Q 1159 4600 1884 4600 
Q 2425 4600 2770 4297 
Q 3116 3994 3184 3459 
z
M 888 1484 
Q 888 1194 1011 928 
Q 1134 663 1356 523 
Q 1578 384 1822 384 
Q 2178 384 2434 671 
Q 2691 959 2691 1453 
Q 2691 1928 2437 2201 
Q 2184 2475 1800 2475 
Q 1419 2475 1153 2201 
Q 888 1928 888 1484 
z
" transform="scale(0.015625)"/>
     </defs>
     <use xlink:href="#ArialMT-30"/>
     <use xlink:href="#ArialMT-2e" x="55.615234"/>
     <use xlink:href="#ArialMT-36" x="83.398438"/>
     <use xlink:href="#ArialMT-35" x="139.013672"/>
    </g>
   </g>
   <g id="text_22">
    <!-- 0.44 -->
    <g style="fill: #262626" transform="translate(151.171406 105.432187)scale(0.12 -0.12)">
     <use xlink:href="#ArialMT-30"/>
     <use xlink:href="#ArialMT-2e" x="55.615234"/>
     <use xlink:href="#ArialMT-34" x="83.398438"/>
     <use xlink:href="#ArialMT-34" x="139.013672"/>
    </g>
   </g>
   <g id="text_23">
    <!-- 0.40 -->
    <g style="fill: #262626" transform="translate(206.971406 105.432187)scale(0.12 -0.12)">
     <use xlink:href="#ArialMT-30"/>
     <use xlink:href="#ArialMT-2e" x="55.615234"/>
     <use xlink:href="#ArialMT-34" x="83.398438"/>
     <use xlink:href="#ArialMT-30" x="139.013672"/>
    </g>
   </g>
   <g id="text_24">
    <!-- 0.62 -->
    <g style="fill: #ffffff" transform="translate(262.771406 105.432187)scale(0.12 -0.12)">
     <use xlink:href="#ArialMT-30"/>
     <use xlink:href="#ArialMT-2e" x="55.615234"/>
     <use xlink:href="#ArialMT-36" x="83.398438"/>
     <use xlink:href="#ArialMT-32" x="139.013672"/>
    </g>
   </g>
   <g id="text_25">
    <!-- 0.52 -->
    <g style="fill: #262626" transform="translate(151.171406 132.612187)scale(0.12 -0.12)">
     <use xlink:href="#ArialMT-30"/>
     <use xlink:href="#ArialMT-2e" x="55.615234"/>
     <use xlink:href="#ArialMT-35" x="83.398438"/>
     <use xlink:href="#ArialMT-32" x="139.013672"/>
    </g>
   </g>
   <g id="text_26">
    <!-- 0.48 -->
    <g style="fill: #262626" transform="translate(206.971406 132.612187)scale(0.12 -0.12)">
     <use xlink:href="#ArialMT-30"/>
     <use xlink:href="#ArialMT-2e" x="55.615234"/>
     <use xlink:href="#ArialMT-34" x="83.398438"/>
     <use xlink:href="#ArialMT-38" x="139.013672"/>
    </g>
   </g>
   <g id="text_27">
    <!-- 0.69 -->
    <g style="fill: #ffffff" transform="translate(262.771406 132.612187)scale(0.12 -0.12)">
     <use xlink:href="#ArialMT-30"/>
     <use xlink:href="#ArialMT-2e" x="55.615234"/>
     <use xlink:href="#ArialMT-36" x="83.398438"/>
     <use xlink:href="#ArialMT-39" x="139.013672"/>
    </g>
   </g>
   <g id="text_28">
    <!-- 0.54 -->
    <g style="fill: #ffffff" transform="translate(151.171406 159.792187)scale(0.12 -0.12)">
     <use xlink:href="#ArialMT-30"/>
     <use xlink:href="#ArialMT-2e" x="55.615234"/>
     <use xlink:href="#ArialMT-35" x="83.398438"/>
     <use xlink:href="#ArialMT-34" x="139.013672"/>
    </g>
   </g>
   <g id="text_29">
    <!-- 0.49 -->
    <g style="fill: #262626" transform="translate(206.971406 159.792187)scale(0.12 -0.12)">
     <use xlink:href="#ArialMT-30"/>
     <use xlink:href="#ArialMT-2e" x="55.615234"/>
     <use xlink:href="#ArialMT-34" x="83.398438"/>
     <use xlink:href="#ArialMT-39" x="139.013672"/>
    </g>
   </g>
   <g id="text_30">
    <!-- 0.69 -->
    <g style="fill: #ffffff" transform="translate(262.771406 159.792187)scale(0.12 -0.12)">
     <use xlink:href="#ArialMT-30"/>
     <use xlink:href="#ArialMT-2e" x="55.615234"/>
     <use xlink:href="#ArialMT-36" x="83.398438"/>
     <use xlink:href="#ArialMT-39" x="139.013672"/>
    </g>
   </g>
   <g id="text_31">
    <!-- 0.58 -->
    <g style="fill: #ffffff" transform="translate(151.171406 186.972187)scale(0.12 -0.12)">
     <use xlink:href="#ArialMT-30"/>
     <use xlink:href="#ArialMT-2e" x="55.615234"/>
     <use xlink:href="#ArialMT-35" x="83.398438"/>
     <use xlink:href="#ArialMT-38" x="139.013672"/>
    </g>
   </g>
   <g id="text_32">
    <!-- 0.51 -->
    <g style="fill: #262626" transform="translate(206.971406 186.972187)scale(0.12 -0.12)">
     <use xlink:href="#ArialMT-30"/>
     <use xlink:href="#ArialMT-2e" x="55.615234"/>
     <use xlink:href="#ArialMT-35" x="83.398438"/>
     <use xlink:href="#ArialMT-31" x="139.013672"/>
    </g>
   </g>
   <g id="text_33">
    <!-- 0.77 -->
    <g style="fill: #ffffff" transform="translate(262.771406 186.972187)scale(0.12 -0.12)">
     <use xlink:href="#ArialMT-30"/>
     <use xlink:href="#ArialMT-2e" x="55.615234"/>
     <use xlink:href="#ArialMT-37" x="83.398438"/>
     <use xlink:href="#ArialMT-37" x="139.013672"/>
    </g>
   </g>
   <g id="text_34">
    <!-- 0.59 -->
    <g style="fill: #ffffff" transform="translate(151.171406 214.152187)scale(0.12 -0.12)">
     <use xlink:href="#ArialMT-30"/>
     <use xlink:href="#ArialMT-2e" x="55.615234"/>
     <use xlink:href="#ArialMT-35" x="83.398438"/>
     <use xlink:href="#ArialMT-39" x="139.013672"/>
    </g>
   </g>
   <g id="text_35">
    <!-- 0.52 -->
    <g style="fill: #262626" transform="translate(206.971406 214.152187)scale(0.12 -0.12)">
     <use xlink:href="#ArialMT-30"/>
     <use xlink:href="#ArialMT-2e" x="55.615234"/>
     <use xlink:href="#ArialMT-35" x="83.398438"/>
     <use xlink:href="#ArialMT-32" x="139.013672"/>
    </g>
   </g>
   <g id="text_36">
    <!-- 0.75 -->
    <g style="fill: #ffffff" transform="translate(262.771406 214.152187)scale(0.12 -0.12)">
     <use xlink:href="#ArialMT-30"/>
     <use xlink:href="#ArialMT-2e" x="55.615234"/>
     <use xlink:href="#ArialMT-37" x="83.398438"/>
     <use xlink:href="#ArialMT-35" x="139.013672"/>
    </g>
   </g>
  </g>
 </g>
 <defs>
  <clipPath id="p91e6a8e648">
   <rect x="134.947969" y="7.2" width="167.4" height="217.44"/>
  </clipPath>
 </defs>
</svg>
